<svg width="135" height="32" viewBox="0 0 135 32" fill="none" xmlns="http://www.w3.org/2000/svg">
<path d="M14.484 15.8608C27.9096 15.1096 19.1832 1.77762 13.1232 13.78C19.1856 1.77762 3.27601 2.66801 10.6392 13.9192C3.27601 2.66801 -3.90719 16.8904 9.51841 16.1392C-3.90719 16.8904 4.81921 30.2224 10.8792 18.22C4.81681 30.2224 20.7264 29.332 13.3632 18.0808C20.7264 29.332 27.9096 15.1096 14.484 15.8608ZM13.6128 17.6128C12.7224 18.5032 11.28 18.5032 10.3896 17.6128C9.49921 16.7224 9.49921 15.28 10.3896 14.3896C11.28 13.4992 12.7224 13.4992 13.6128 14.3896C14.5032 15.28 14.5032 16.7224 13.6128 17.6128Z" fill="#C9B4FF"/>
<path d="M40.64 16.504C40.176 14.808 39.792 13.408 39.488 12.304C39.2 11.2 38.968 10.312 38.792 9.64C38.616 8.968 38.48 8.472 38.384 8.152C38.304 7.832 38.24 7.608 38.192 7.48L35.288 17.32C35.56 17.352 35.816 17.376 36.056 17.392C36.296 17.408 36.52 17.416 36.728 17.416C37.24 17.416 37.816 17.36 38.456 17.248C39.096 17.136 39.824 16.888 40.64 16.504ZM44.816 22.624C44.944 23.088 45.256 23.432 45.752 23.656C46.248 23.88 46.856 23.992 47.576 23.992V25C47.384 25 47.144 24.992 46.856 24.976C46.584 24.944 46.28 24.912 45.944 24.88C45.624 24.848 45.288 24.824 44.936 24.808C44.6 24.776 44.28 24.76 43.976 24.76C43.656 24.76 43.304 24.776 42.92 24.808C42.536 24.824 42.152 24.848 41.768 24.88C41.4 24.912 41.048 24.944 40.712 24.976C40.392 24.992 40.136 25 39.944 25V23.992C40.184 23.992 40.44 23.984 40.712 23.968C40.984 23.952 41.232 23.912 41.456 23.848C41.696 23.768 41.888 23.664 42.032 23.536C42.192 23.392 42.272 23.2 42.272 22.96C42.272 22.896 42.256 22.8 42.224 22.672C42.208 22.544 42.152 22.304 42.056 21.952C41.96 21.6 41.824 21.104 41.648 20.464C41.488 19.808 41.264 18.928 40.976 17.824C40.016 18.16 39.168 18.384 38.432 18.496C37.712 18.608 37.048 18.664 36.44 18.664C36.216 18.664 35.976 18.656 35.72 18.64C35.464 18.624 35.2 18.6 34.928 18.568L34.064 21.688C33.984 21.944 33.92 22.168 33.872 22.36C33.824 22.536 33.808 22.688 33.824 22.816C33.824 23.104 33.896 23.328 34.04 23.488C34.2 23.632 34.4 23.744 34.64 23.824C34.88 23.904 35.144 23.952 35.432 23.968C35.736 23.984 36.032 23.992 36.32 23.992V25C36.128 25 35.888 24.992 35.6 24.976C35.312 24.944 34.992 24.912 34.64 24.88C34.304 24.848 33.96 24.824 33.608 24.808C33.256 24.776 32.928 24.76 32.624 24.76C32.016 24.76 31.416 24.8 30.824 24.88C30.248 24.96 29.776 25 29.408 25V23.992C30.128 23.992 30.712 23.88 31.16 23.656C31.624 23.432 31.928 23.088 32.072 22.624L33.44 18.28C32.528 18.008 31.752 17.584 31.112 17.008C30.488 16.416 30.176 15.648 30.176 14.704C30.176 14.448 30.2 14.264 30.248 14.152C30.312 14.04 30.4 13.936 30.512 13.84C30.256 13.536 30.128 13.16 30.128 12.712C30.128 12.44 30.176 12.176 30.272 11.92C30.384 11.648 30.528 11.416 30.704 11.224C30.896 11.016 31.12 10.856 31.376 10.744C31.632 10.616 31.92 10.552 32.24 10.552C32.4 10.552 32.544 10.576 32.672 10.624C32.816 10.656 32.944 10.712 33.056 10.792C33.184 10.856 33.312 10.952 33.44 11.08C33.584 11.192 33.744 11.32 33.92 11.464C33.312 11.72 32.872 12.104 32.6 12.616C32.328 13.128 32.192 13.664 32.192 14.224C32.192 14.992 32.352 15.592 32.672 16.024C32.992 16.456 33.384 16.776 33.848 16.984L37.448 6.136C38.264 6.136 39.096 6.048 39.944 5.872C40.792 5.696 41.6 5.512 42.368 5.32L42.848 6.16C42.512 6.224 42.232 6.296 42.008 6.376C41.8 6.44 41.632 6.528 41.504 6.64C41.392 6.736 41.312 6.864 41.264 7.024C41.232 7.168 41.216 7.352 41.216 7.576C41.216 7.736 41.224 7.936 41.24 8.176C41.272 8.416 41.328 8.76 41.408 9.208C41.504 9.64 41.632 10.2 41.792 10.888C41.952 11.576 42.16 12.456 42.416 13.528C42.688 14.584 43.016 15.856 43.4 17.344C43.8 18.832 44.272 20.592 44.816 22.624ZM51.5338 22.624C51.5338 22.944 51.5818 23.208 51.6778 23.416C51.7898 23.624 51.9178 23.792 52.0618 23.92C52.2218 24.048 52.3978 24.144 52.5898 24.208C52.7978 24.256 52.9978 24.28 53.1898 24.28V25C52.9978 25 52.7818 24.992 52.5418 24.976C52.3178 24.944 52.0778 24.912 51.8218 24.88C51.5658 24.848 51.3178 24.824 51.0778 24.808C50.8538 24.776 50.6458 24.76 50.4538 24.76C50.2618 24.76 50.0458 24.776 49.8058 24.808C49.5818 24.824 49.3418 24.848 49.0858 24.88C48.8298 24.912 48.5818 24.944 48.3418 24.976C48.1178 24.992 47.9098 25 47.7178 25V24.28C48.1498 24.28 48.5338 24.16 48.8698 23.92C49.2058 23.68 49.3738 23.248 49.3738 22.624V10.192C49.3738 9.6 49.3578 9.112 49.3258 8.728C49.3098 8.328 49.2458 8.024 49.1338 7.816C49.0218 7.592 48.8618 7.44 48.6538 7.36C48.4458 7.264 48.1578 7.216 47.7898 7.216V6.616C48.1898 6.616 48.5338 6.592 48.8218 6.544C49.1258 6.496 49.3978 6.424 49.6378 6.328C49.8778 6.232 50.0938 6.12 50.2858 5.992C50.4938 5.864 50.7098 5.728 50.9338 5.584H51.5338V22.624ZM55.6923 10.216C55.6923 9.736 55.8603 9.336 56.1963 9.016C56.5323 8.68 56.9323 8.512 57.3963 8.512C57.8603 8.512 58.2523 8.68 58.5723 9.016C58.9083 9.336 59.0763 9.736 59.0763 10.216C59.0763 10.696 58.9083 11.104 58.5723 11.44C58.2523 11.76 57.8603 11.92 57.3963 11.92C56.9323 11.92 56.5323 11.76 56.1963 11.44C55.8603 11.104 55.6923 10.696 55.6923 10.216ZM58.4043 22.624C58.4043 22.944 58.4523 23.208 58.5483 23.416C58.6603 23.624 58.7883 23.792 58.9323 23.92C59.0923 24.048 59.2683 24.144 59.4603 24.208C59.6683 24.256 59.8683 24.28 60.0603 24.28V25C59.8683 25 59.6523 24.992 59.4123 24.976C59.1883 24.944 58.9483 24.912 58.6923 24.88C58.4363 24.848 58.1883 24.824 57.9483 24.808C57.7243 24.776 57.5163 24.76 57.3243 24.76C57.1323 24.76 56.9163 24.776 56.6763 24.808C56.4523 24.824 56.2123 24.848 55.9563 24.88C55.7003 24.912 55.4523 24.944 55.2123 24.976C54.9883 24.992 54.7803 25 54.5883 25V24.28C55.0203 24.28 55.4043 24.16 55.7403 23.92C56.0763 23.68 56.2443 23.248 56.2443 22.624V18.496C56.2443 17.904 56.2283 17.416 56.1963 17.032C56.1803 16.632 56.1163 16.328 56.0043 16.12C55.8923 15.896 55.7323 15.744 55.5243 15.664C55.3163 15.568 55.0283 15.52 54.6603 15.52V14.8C55.0603 14.8 55.3963 14.776 55.6683 14.728C55.9563 14.68 56.2123 14.608 56.4363 14.512C56.6603 14.416 56.8683 14.304 57.0603 14.176C57.2523 14.048 57.4603 13.912 57.6843 13.768H58.4043V22.624ZM67.1932 13.768C67.3532 13.768 67.5372 13.776 67.7452 13.792C67.9692 13.792 68.1772 13.816 68.3692 13.864C68.5772 13.912 68.7532 13.992 68.8972 14.104C69.0412 14.2 69.1132 14.344 69.1132 14.536C69.6732 14.536 70.1052 14.664 70.4092 14.92C70.7292 15.16 70.8892 15.56 70.8892 16.12C70.8892 16.44 70.8332 16.72 70.7212 16.96C70.6092 17.184 70.4652 17.368 70.2892 17.512C70.1132 17.656 69.9132 17.768 69.6892 17.848C69.4652 17.912 69.2412 17.944 69.0172 17.944C68.9212 17.944 68.8012 17.944 68.6572 17.944C68.5292 17.928 68.4172 17.904 68.3212 17.872V17.776C68.5452 17.696 68.7212 17.56 68.8492 17.368C68.9772 17.16 69.0412 16.88 69.0412 16.528C69.0412 16.048 68.8892 15.656 68.5852 15.352C68.2972 15.048 67.8172 14.896 67.1452 14.896C66.0572 14.896 65.2492 15.32 64.7212 16.168C64.2092 17 63.9532 18.136 63.9532 19.576C63.9532 21.096 64.2252 22.256 64.7692 23.056C65.3292 23.84 66.1372 24.232 67.1932 24.232C67.9612 24.232 68.5452 24.032 68.9452 23.632C69.3612 23.216 69.6332 22.624 69.7612 21.856H69.8572C70.0652 21.936 70.2732 22.064 70.4812 22.24C70.6892 22.4 70.7932 22.664 70.7932 23.032C70.7932 23.688 70.4412 24.24 69.7372 24.688C69.0492 25.12 68.1372 25.336 67.0012 25.336C66.2332 25.336 65.5212 25.224 64.8652 25C64.2092 24.76 63.6412 24.408 63.1612 23.944C62.6812 23.48 62.3052 22.888 62.0332 22.168C61.7612 21.448 61.6252 20.608 61.6252 19.648C61.6252 18.672 61.7692 17.816 62.0572 17.08C62.3452 16.344 62.7372 15.728 63.2332 15.232C63.7292 14.736 64.3132 14.368 64.9852 14.128C65.6732 13.888 66.4092 13.768 67.1932 13.768ZM78.278 24.256C78.518 24.256 78.758 24.232 78.998 24.184C79.238 24.12 79.462 24.016 79.67 23.872C79.894 23.712 80.094 23.496 80.27 23.224C80.462 22.936 80.63 22.56 80.774 22.096C81.142 22.096 81.446 22.184 81.686 22.36C81.926 22.536 82.046 22.808 82.046 23.176C82.046 23.512 81.934 23.816 81.71 24.088C81.502 24.36 81.214 24.592 80.846 24.784C80.494 24.96 80.078 25.096 79.598 25.192C79.134 25.288 78.646 25.336 78.134 25.336C77.254 25.336 76.478 25.2 75.806 24.928C75.134 24.64 74.574 24.248 74.126 23.752C73.678 23.24 73.334 22.624 73.094 21.904C72.87 21.184 72.758 20.392 72.758 19.528C72.758 17.736 73.23 16.328 74.174 15.304C75.118 14.28 76.462 13.768 78.206 13.768C78.414 13.768 78.622 13.776 78.83 13.792C79.038 13.808 79.23 13.848 79.406 13.912C79.582 13.96 79.726 14.04 79.838 14.152C79.95 14.248 80.006 14.376 80.006 14.536C80.246 14.536 80.486 14.584 80.726 14.68C80.982 14.776 81.214 14.92 81.422 15.112C81.646 15.304 81.822 15.552 81.95 15.856C82.094 16.144 82.166 16.496 82.166 16.912C82.166 17.504 82.022 17.992 81.734 18.376C81.446 18.76 81.078 19.072 80.63 19.312C80.198 19.536 79.718 19.696 79.19 19.792C78.678 19.872 78.19 19.912 77.726 19.912C77.198 19.912 76.702 19.872 76.238 19.792C75.79 19.712 75.406 19.616 75.086 19.504V19.6C75.086 20.272 75.142 20.896 75.254 21.472C75.366 22.048 75.542 22.544 75.782 22.96C76.038 23.36 76.366 23.68 76.766 23.92C77.182 24.144 77.686 24.256 78.278 24.256ZM78.014 14.896C77.15 14.896 76.486 15.208 76.022 15.832C75.558 16.456 75.262 17.32 75.134 18.424C75.406 18.6 75.774 18.72 76.238 18.784C76.718 18.832 77.174 18.856 77.606 18.856C78.47 18.856 79.07 18.72 79.406 18.448C79.758 18.176 79.934 17.704 79.934 17.032C79.934 16.232 79.75 15.68 79.382 15.376C79.014 15.056 78.558 14.896 78.014 14.896ZM93.4361 5.32C93.7081 5.32 94.0521 5.328 94.4681 5.344C94.9001 5.36 95.3081 5.408 95.6921 5.488C96.0921 5.568 96.4361 5.696 96.7241 5.872C97.0121 6.048 97.1561 6.304 97.1561 6.64C97.5081 6.64 97.8441 6.688 98.1641 6.784C98.4841 6.88 98.7641 7.04 99.0041 7.264C99.2601 7.488 99.4601 7.784 99.6041 8.152C99.7641 8.52 99.8441 8.976 99.8441 9.52C99.8441 10.544 99.5801 11.304 99.0521 11.8C98.5401 12.296 97.8841 12.544 97.0841 12.544C96.9081 12.544 96.7081 12.536 96.4841 12.52C96.2601 12.488 96.0601 12.456 95.8841 12.424V12.256C96.2521 12.128 96.5481 11.896 96.7721 11.56C97.0121 11.208 97.1321 10.696 97.1321 10.024C97.1321 8.904 96.7881 8.04 96.1001 7.432C95.4281 6.824 94.5401 6.52 93.4361 6.52C92.5401 6.52 91.7001 6.728 90.9161 7.144C90.1321 7.56 89.4441 8.16 88.8521 8.944C88.2601 9.728 87.7881 10.688 87.4361 11.824C87.1001 12.96 86.9321 14.256 86.9321 15.712C86.9321 17.104 87.0921 18.328 87.4121 19.384C87.7321 20.424 88.1721 21.296 88.7321 22C89.2921 22.704 89.9561 23.24 90.7241 23.608C91.5081 23.96 92.3561 24.136 93.2681 24.136C94.0681 24.136 94.7321 24.008 95.2601 23.752C95.7881 23.48 96.2041 23.12 96.5081 22.672C96.8281 22.208 97.0521 21.672 97.1801 21.064C97.3081 20.44 97.3881 19.776 97.4201 19.072C97.6281 19.072 97.8601 19.104 98.1161 19.168C98.3881 19.232 98.6361 19.344 98.8601 19.504C99.0841 19.664 99.2761 19.88 99.4361 20.152C99.5961 20.408 99.6761 20.736 99.6761 21.136C99.6761 21.36 99.6441 21.592 99.5801 21.832C99.5321 22.072 99.4361 22.288 99.2921 22.48C99.1481 22.672 98.9561 22.832 98.7161 22.96C98.4921 23.072 98.2121 23.128 97.8761 23.128C97.8761 23.544 97.7321 23.896 97.4441 24.184C97.1561 24.456 96.7801 24.68 96.3161 24.856C95.8521 25.016 95.3321 25.136 94.7561 25.216C94.1961 25.296 93.6361 25.336 93.0761 25.336C91.8601 25.336 90.7321 25.16 89.6921 24.808C88.6521 24.44 87.7481 23.872 86.9801 23.104C86.2121 22.336 85.6121 21.344 85.1801 20.128C84.7481 18.896 84.5321 17.416 84.5321 15.688C84.5321 13.912 84.7561 12.376 85.2041 11.08C85.6681 9.768 86.3001 8.688 87.1001 7.84C87.9161 6.992 88.8601 6.36 89.9321 5.944C91.0201 5.528 92.1881 5.32 93.4361 5.32ZM110.801 22.624C110.801 22.944 110.849 23.208 110.945 23.416C111.057 23.624 111.185 23.792 111.329 23.92C111.489 24.048 111.665 24.144 111.857 24.208C112.065 24.256 112.265 24.28 112.457 24.28V25C112.089 25 111.769 24.968 111.497 24.904C111.241 24.84 110.929 24.808 110.561 24.808C110.193 24.808 109.873 24.816 109.601 24.832C109.329 24.848 109.009 24.904 108.641 25V23.728C108.273 24.144 107.833 24.52 107.321 24.856C106.809 25.176 106.185 25.336 105.449 25.336C104.857 25.336 104.313 25.256 103.817 25.096C103.337 24.936 102.921 24.704 102.569 24.4C102.233 24.096 101.969 23.736 101.777 23.32C101.585 22.888 101.489 22.408 101.489 21.88C101.489 21.368 101.585 20.912 101.777 20.512C101.985 20.096 102.273 19.752 102.641 19.48C103.009 19.192 103.441 18.976 103.937 18.832C104.433 18.672 104.985 18.592 105.593 18.592C106.281 18.592 106.865 18.664 107.345 18.808C107.841 18.936 108.273 19.088 108.641 19.264V18.376C108.641 17.96 108.609 17.544 108.545 17.128C108.497 16.712 108.393 16.336 108.233 16C108.073 15.664 107.841 15.392 107.537 15.184C107.233 14.976 106.841 14.872 106.361 14.872C106.153 14.872 105.921 14.896 105.665 14.944C105.425 14.992 105.201 15.08 104.993 15.208C104.785 15.32 104.609 15.48 104.465 15.688C104.321 15.88 104.249 16.128 104.249 16.432C104.249 16.592 104.273 16.776 104.321 16.984C104.081 17.112 103.817 17.176 103.529 17.176C103.081 17.176 102.753 17.056 102.545 16.816C102.337 16.56 102.233 16.272 102.233 15.952C102.233 15.632 102.337 15.352 102.545 15.112C102.769 14.856 103.081 14.728 103.481 14.728C103.481 14.552 103.561 14.4 103.721 14.272C103.881 14.144 104.089 14.048 104.345 13.984C104.617 13.904 104.913 13.848 105.233 13.816C105.553 13.784 105.881 13.768 106.217 13.768C106.937 13.768 107.577 13.856 108.137 14.032C108.713 14.192 109.193 14.48 109.577 14.896C109.977 15.296 110.281 15.84 110.489 16.528C110.697 17.2 110.801 18.056 110.801 19.096V22.624ZM106.121 24.232C106.681 24.232 107.169 24.072 107.585 23.752C108.001 23.416 108.353 23.016 108.641 22.552V20.152C108.273 19.976 107.865 19.832 107.417 19.72C106.969 19.592 106.521 19.528 106.073 19.528C105.433 19.528 104.881 19.72 104.417 20.104C103.969 20.488 103.745 21.032 103.745 21.736C103.745 22.472 103.961 23.072 104.393 23.536C104.825 24 105.401 24.232 106.121 24.232ZM117.326 22.624C117.326 22.944 117.374 23.208 117.47 23.416C117.582 23.624 117.71 23.792 117.854 23.92C118.014 24.048 118.19 24.144 118.382 24.208C118.59 24.256 118.79 24.28 118.982 24.28V25C118.79 25 118.574 24.992 118.334 24.976C118.11 24.944 117.87 24.912 117.614 24.88C117.358 24.848 117.11 24.824 116.87 24.808C116.646 24.776 116.438 24.76 116.246 24.76C116.054 24.76 115.838 24.776 115.598 24.808C115.374 24.824 115.134 24.848 114.878 24.88C114.622 24.912 114.374 24.944 114.134 24.976C113.91 24.992 113.702 25 113.51 25V24.28C113.942 24.28 114.326 24.16 114.662 23.92C114.998 23.68 115.166 23.248 115.166 22.624V18.616C115.166 18.024 115.15 17.536 115.118 17.152C115.102 16.752 115.038 16.448 114.926 16.24C114.814 16.016 114.654 15.864 114.446 15.784C114.238 15.688 113.95 15.64 113.582 15.64V15.04C113.982 15.04 114.326 15.016 114.614 14.968C114.918 14.92 115.19 14.848 115.43 14.752C115.67 14.656 115.886 14.544 116.078 14.416C116.286 14.288 116.502 14.152 116.726 14.008H117.326V16.504C117.71 15.56 118.166 14.872 118.694 14.44C119.238 13.992 119.79 13.768 120.35 13.768C120.702 13.768 121.022 13.824 121.31 13.936C121.598 14.048 121.742 14.24 121.742 14.512C122.062 14.512 122.31 14.616 122.486 14.824C122.678 15.032 122.774 15.32 122.774 15.688C122.774 16.104 122.63 16.472 122.342 16.792C122.054 17.096 121.574 17.312 120.902 17.44C120.966 17.2 120.998 16.96 120.998 16.72C120.998 16.144 120.862 15.72 120.59 15.448C120.334 15.176 120.046 15.04 119.726 15.04C119.47 15.04 119.198 15.176 118.91 15.448C118.638 15.704 118.382 16.064 118.142 16.528C117.902 16.992 117.702 17.536 117.542 18.16C117.398 18.768 117.326 19.432 117.326 20.152V22.624ZM129.348 24.256C129.588 24.256 129.828 24.232 130.068 24.184C130.308 24.12 130.532 24.016 130.74 23.872C130.964 23.712 131.164 23.496 131.34 23.224C131.532 22.936 131.7 22.56 131.844 22.096C132.212 22.096 132.516 22.184 132.756 22.36C132.996 22.536 133.116 22.808 133.116 23.176C133.116 23.512 133.004 23.816 132.78 24.088C132.572 24.36 132.284 24.592 131.916 24.784C131.564 24.96 131.148 25.096 130.668 25.192C130.204 25.288 129.716 25.336 129.204 25.336C128.324 25.336 127.548 25.2 126.876 24.928C126.204 24.64 125.644 24.248 125.196 23.752C124.748 23.24 124.404 22.624 124.164 21.904C123.94 21.184 123.828 20.392 123.828 19.528C123.828 17.736 124.3 16.328 125.244 15.304C126.188 14.28 127.532 13.768 129.276 13.768C129.484 13.768 129.692 13.776 129.9 13.792C130.108 13.808 130.3 13.848 130.476 13.912C130.652 13.96 130.796 14.04 130.908 14.152C131.02 14.248 131.076 14.376 131.076 14.536C131.316 14.536 131.556 14.584 131.796 14.68C132.052 14.776 132.284 14.92 132.492 15.112C132.716 15.304 132.892 15.552 133.02 15.856C133.164 16.144 133.236 16.496 133.236 16.912C133.236 17.504 133.092 17.992 132.804 18.376C132.516 18.76 132.148 19.072 131.7 19.312C131.268 19.536 130.788 19.696 130.26 19.792C129.748 19.872 129.26 19.912 128.796 19.912C128.268 19.912 127.772 19.872 127.308 19.792C126.86 19.712 126.476 19.616 126.156 19.504V19.6C126.156 20.272 126.212 20.896 126.324 21.472C126.436 22.048 126.612 22.544 126.852 22.96C127.108 23.36 127.436 23.68 127.836 23.92C128.252 24.144 128.756 24.256 129.348 24.256ZM129.084 14.896C128.22 14.896 127.556 15.208 127.092 15.832C126.628 16.456 126.332 17.32 126.204 18.424C126.476 18.6 126.844 18.72 127.308 18.784C127.788 18.832 128.244 18.856 128.676 18.856C129.54 18.856 130.14 18.72 130.476 18.448C130.828 18.176 131.004 17.704 131.004 17.032C131.004 16.232 130.82 15.68 130.452 15.376C130.084 15.056 129.628 14.896 129.084 14.896Z" fill="black"/>
</svg>
