<svg width="30" height="30" viewBox="0 0 30 30" fill="none" xmlns="http://www.w3.org/2000/svg">
<rect x="0.833333" y="0.833333" width="28.3333" height="28.3333" rx="14.1667" stroke="#D63134" stroke-opacity="0.4" stroke-width="1.66667"/>
<path d="M10.8333 20C10.5833 20 10.4167 19.9167 10.25 19.75C9.91667 19.4167 9.91667 18.9167 10.25 18.5833L18.5833 10.25C18.9167 9.91667 19.4167 9.91667 19.75 10.25C20.0833 10.5833 20.0833 11.0833 19.75 11.4167L11.4167 19.75C11.25 19.9167 11.0833 20 10.8333 20Z" fill="#D63134"/>
<path d="M19.1666 19.1667C18.6666 19.1667 18.3333 18.8333 18.3333 18.3333V11.6667H11.6666C11.1666 11.6667 10.8333 11.3333 10.8333 10.8333C10.8333 10.3333 11.1666 10 11.6666 10H19.1666C19.6666 10 19.9999 10.3333 19.9999 10.8333V18.3333C19.9999 18.8333 19.6666 19.1667 19.1666 19.1667Z" fill="#D63134"/>
</svg>
