<svg width="30" height="30" viewBox="0 0 30 30" fill="none" xmlns="http://www.w3.org/2000/svg">
<rect x="29.1667" y="29.1667" width="28.3333" height="28.3333" rx="14.1667" transform="rotate(180 29.1667 29.1667)" stroke="#34C759" stroke-opacity="0.4" stroke-width="1.66667"/>
<path d="M19.1667 10C19.4167 10 19.5833 10.0833 19.75 10.25C20.0833 10.5833 20.0833 11.0833 19.75 11.4167L11.4167 19.75C11.0833 20.0833 10.5833 20.0833 10.25 19.75C9.91667 19.4167 9.91667 18.9167 10.25 18.5833L18.5833 10.25C18.75 10.0833 18.9167 10 19.1667 10Z" fill="#34C759"/>
<path d="M10.8334 10.8333C11.3334 10.8333 11.6667 11.1667 11.6667 11.6667V18.3333H18.3334C18.8334 18.3333 19.1667 18.6667 19.1667 19.1667C19.1667 19.6667 18.8334 20 18.3334 20H10.8334C10.3334 20 10.0001 19.6667 10.0001 19.1667V11.6667C10.0001 11.1667 10.3334 10.8333 10.8334 10.8333Z" fill="#34C759"/>
</svg>
