<svg width="20" height="20" viewBox="0 0 20 20" fill="none" xmlns="http://www.w3.org/2000/svg">
<g clip-path="url(#clip0_2354_1921)">
<path d="M19.9823 7.18775C19.9823 3.66604 17.4713 0.652142 14.0116 0.0213624C13.6635 -0.0507468 13.3112 0.243706 13.3206 0.599096L13.3332 6.21631C13.3339 6.5394 13.596 6.80096 13.9191 6.80096H14.2974L13.1722 8.55072C12.6793 7.86967 12.0717 7.2769 11.3779 6.80096H11.5687C11.7244 6.80096 11.8736 6.73904 11.9835 6.62889C12.0934 6.51873 12.155 6.36932 12.1547 6.21373L12.1421 0.584643C12.1417 0.412143 12.0653 0.248549 11.9333 0.137534C11.8013 0.0264796 11.627 -0.0207078 11.4571 0.00843275C9.938 0.269174 8.56343 0.99304 7.48187 2.10175C6.49519 3.11327 5.83531 4.36077 5.55824 5.73018C-2.00003 7.64518 -1.78378 18.4534 5.95308 19.9786C6.1241 20.0098 6.30039 19.9634 6.4339 19.8517C6.56742 19.7401 6.64441 19.5749 6.64402 19.4009L6.63148 13.7837C6.63074 13.4606 6.36863 13.199 6.04554 13.199H5.66726L7.26691 10.7113L8.86718 13.199H8.39593C8.2403 13.199 8.09105 13.2609 7.98116 13.3711C7.87124 13.4812 7.80964 13.6306 7.80999 13.7862L7.82253 19.4153C7.82292 19.5878 7.89929 19.7514 8.03132 19.8624C8.16327 19.9737 8.33905 20.0206 8.50757 19.9915C10.1807 19.7043 11.7112 18.8306 12.8172 17.5312C13.617 16.5916 14.1597 15.4673 14.4044 14.2712C17.6602 13.492 19.9823 10.5766 19.9823 7.18775ZM8.32073 2.91999C9.06312 2.15901 9.96952 1.61405 10.9719 1.3212L10.9815 5.62905H10.0238C9.82706 5.62905 9.64495 5.72787 9.5369 5.88955C8.68851 5.60823 7.73312 5.48061 6.80777 5.54206C7.08046 4.55928 7.59519 3.66378 8.32073 2.91999ZM11.9248 16.7717C11.1495 17.6825 10.1262 18.3441 8.99273 18.6778L8.98312 14.3709H9.94077C10.1551 14.3709 10.3524 14.2538 10.4551 14.0656C10.5578 13.8775 10.5495 13.6482 10.4335 13.4679L7.7596 9.31107C7.53699 8.95494 6.99644 8.95506 6.77398 9.31115L4.10102 13.468C3.98508 13.6483 3.97688 13.8775 4.07957 14.0657C4.18227 14.2538 4.37953 14.3709 4.59387 14.3709H5.46086L5.47043 18.6574C-1.15948 16.5005 0.256493 6.83389 7.26742 6.69901C12.4242 6.66127 15.2933 12.8754 11.9248 16.7717ZM14.5492 13.0159C14.5848 11.8376 14.3247 10.6797 13.8419 9.67595L15.8636 6.5319C15.9795 6.35162 15.9877 6.12244 15.8851 5.93424C15.7824 5.74612 15.5851 5.62909 15.3708 5.62909H14.5038L14.4942 1.34253C20.1822 3.08768 20.2157 11.2214 14.5492 13.0159Z" fill="#191919"/>
</g>
<defs>
<clipPath id="clip0_2354_1921">
<rect width="20" height="20" fill="white"/>
</clipPath>
</defs>
</svg>
