<svg width="20" height="20" viewBox="0 0 20 20" fill="none" xmlns="http://www.w3.org/2000/svg">
<g clip-path="url(#clip0_2354_1903)">
<path d="M15 1.66667C16.8383 1.66667 18.3333 3.16167 18.3333 5V15C18.3333 16.8383 16.8383 18.3333 15 18.3333H5C3.16167 18.3333 1.66667 16.8383 1.66667 15V5C1.66667 3.16167 3.16167 1.66667 5 1.66667H15ZM15 0H5C2.23833 0 0 2.23833 0 5V15C0 17.7617 2.23833 20 5 20H15C17.7617 20 20 17.7617 20 15V5C20 2.23833 17.7617 0 15 0Z" fill="#191919"/>
<path d="M14.1667 10.8334H5.83333C5.37333 10.8334 5 10.4601 5 10.0001C5 9.54008 5.37333 9.16675 5.83333 9.16675H14.1667C14.6275 9.16675 15 9.54008 15 10.0001C15 10.4601 14.6275 10.8334 14.1667 10.8334Z" fill="#191919"/>
<path d="M14.1667 6.66667H5.83333C5.37333 6.66667 5 6.29333 5 5.83333C5 5.37333 5.37333 5 5.83333 5H14.1667C14.6275 5 15 5.37333 15 5.83333C15 6.29333 14.6275 6.66667 14.1667 6.66667Z" fill="#191919"/>
<path d="M14.1667 14.9999H5.83333C5.37333 14.9999 5 14.6274 5 14.1666C5 13.7058 5.37333 13.3333 5.83333 13.3333H14.1667C14.6275 13.3333 15 13.7058 15 14.1666C15 14.6274 14.6275 14.9999 14.1667 14.9999Z" fill="#191919"/>
</g>
<defs>
<clipPath id="clip0_2354_1903">
<rect width="20" height="20" fill="white"/>
</clipPath>
</defs>
</svg>
