<svg width="12" height="13" viewBox="0 0 12 13" fill="none" xmlns="http://www.w3.org/2000/svg">
<g clip-path="url(#clip0_4747_86116)">
<g clip-path="url(#clip1_4747_86116)">
<mask id="path-1-inside-1_4747_86116" fill="white">
<path d="M3.14353 6.88135L2.14353 9.88135C2.09861 10.0161 2.13376 10.1646 2.23337 10.2651C2.30564 10.3364 2.40134 10.375 2.499 10.375C2.53904 10.375 2.57907 10.3687 2.61716 10.356L5.61716 9.35596C5.67282 9.3374 5.72263 9.30615 5.76462 9.26514L11.7646 3.26514C11.9101 3.11865 11.9101 2.88135 11.7646 2.73486L9.76462 0.734863C9.61814 0.588379 9.37986 0.588379 9.23337 0.734863L3.23337 6.73486C3.19236 6.77588 3.16208 6.82617 3.14353 6.88135ZM9.499 1.53027L10.9687 3L9.9993 3.96954L8.52958 2.49982L9.499 1.53027ZM7.99881 3.03058L9.46854 4.50031L5.29685 8.67236L3.09177 9.40723L3.82712 7.20264L7.99881 3.03058Z"/>
</mask>
<path d="M3.14353 6.88135L2.19568 6.5626L2.19484 6.56512L3.14353 6.88135ZM2.14353 9.88135L3.09221 10.1976H3.09221L2.14353 9.88135ZM2.23337 10.2651L1.52278 10.9688L1.53109 10.977L2.23337 10.2651ZM2.61716 10.356L2.93339 11.3046H2.93339L2.61716 10.356ZM5.61716 9.35596L5.93339 10.3046L5.93339 10.3046L5.61716 9.35596ZM5.76462 9.26514L6.46341 9.98056L6.47173 9.97224L5.76462 9.26514ZM11.7646 3.26514L12.4717 3.97225L12.4741 3.96987L11.7646 3.26514ZM11.7646 2.73486L12.4741 2.03012L12.4717 2.02776L11.7646 2.73486ZM9.76462 0.734863L10.4717 0.0277565V0.0277564L9.76462 0.734863ZM9.23337 0.734863L9.94048 1.44197L9.23337 0.734863ZM3.23337 6.73486L2.52626 6.02776L3.23337 6.73486ZM9.499 1.53027L10.2061 0.823167L9.49895 0.116015L8.79185 0.823211L9.499 1.53027ZM10.9687 3L11.6759 3.70706L12.3829 2.99996L11.6758 2.29289L10.9687 3ZM9.9993 3.96954L9.2922 4.67665L9.99935 5.3838L10.7065 4.67661L9.9993 3.96954ZM8.52958 2.49982L7.82242 1.79275L7.11541 2.49986L7.82247 3.20692L8.52958 2.49982ZM7.99881 3.03058L8.70592 2.32347L7.99878 1.61633L7.29168 2.3235L7.99881 3.03058ZM9.46854 4.50031L10.1757 5.20738L10.8827 4.50027L10.1756 3.7932L9.46854 4.50031ZM5.29685 8.67236L5.61301 9.62107L5.83703 9.54641L6.00399 9.37944L5.29685 8.67236ZM3.09177 9.40723L2.14315 9.09081L1.51021 10.9884L3.40793 10.3559L3.09177 9.40723ZM3.82712 7.20264L3.11998 6.49556L2.95316 6.6624L2.8785 6.88622L3.82712 7.20264ZM3.14353 6.88135L2.19484 6.56512L1.19484 9.56512L2.14353 9.88135L3.09221 10.1976L4.09221 7.19758L3.14353 6.88135ZM2.14353 9.88135L1.19484 9.56512C1.03006 10.0595 1.15936 10.6018 1.52282 10.9688L2.23337 10.2651L2.94392 9.56149C3.10817 9.72735 3.16715 9.97275 3.09221 10.1976L2.14353 9.88135ZM2.23337 10.2651L1.53109 10.977C1.78998 11.2324 2.13777 11.375 2.499 11.375V10.375V9.375C2.66491 9.375 2.82129 9.44042 2.93565 9.55324L2.23337 10.2651ZM2.499 10.375V11.375C2.64416 11.375 2.79112 11.3521 2.93339 11.3046L2.61716 10.356L2.30093 9.40727C2.36703 9.38524 2.43391 9.375 2.499 9.375V10.375ZM2.61716 10.356L2.93339 11.3046L5.93339 10.3046L5.61716 9.35596L5.30093 8.40727L2.30093 9.40727L2.61716 10.356ZM5.61716 9.35596L5.93339 10.3046C6.14081 10.2355 6.31955 10.121 6.46336 9.98051L5.76462 9.26514L5.06588 8.54976C5.12571 8.49132 5.20484 8.4393 5.30093 8.40727L5.61716 9.35596ZM5.76462 9.26514L6.47173 9.97224L12.4717 3.97224L11.7646 3.26514L11.0575 2.55803L5.05751 8.55803L5.76462 9.26514ZM11.7646 3.26514L12.4741 3.96987C13.007 3.43341 13.007 2.56659 12.4741 2.03013L11.7646 2.73486L11.0552 3.4396C10.8133 3.19611 10.8133 2.80389 11.0552 2.5604L11.7646 3.26514ZM11.7646 2.73486L12.4717 2.02776L10.4717 0.0277565L9.76462 0.734863L9.05752 1.44197L11.0575 3.44197L11.7646 2.73486ZM9.76462 0.734863L10.4717 0.0277564C9.93472 -0.509252 9.06327 -0.509252 8.52627 0.0277564L9.23337 0.734863L9.94048 1.44197C9.69644 1.68601 9.30156 1.68601 9.05752 1.44197L9.76462 0.734863ZM9.23337 0.734863L8.52627 0.0277564L2.52626 6.02776L3.23337 6.73486L3.94048 7.44197L9.94048 1.44197L9.23337 0.734863ZM3.23337 6.73486L2.52626 6.02776C2.36957 6.18445 2.2604 6.37016 2.19569 6.56261L3.14353 6.88135L4.09137 7.20009C4.06376 7.28219 4.01514 7.36731 3.94048 7.44197L3.23337 6.73486ZM9.499 1.53027L8.79189 2.23738L10.2616 3.70711L10.9687 3L11.6758 2.29289L10.2061 0.823167L9.499 1.53027ZM10.9687 3L10.2616 2.29294L9.29215 3.26248L9.9993 3.96954L10.7065 4.67661L11.6759 3.70706L10.9687 3ZM9.9993 3.96954L10.7064 3.26244L9.23668 1.79271L8.52958 2.49982L7.82247 3.20692L9.2922 4.67665L9.9993 3.96954ZM8.52958 2.49982L9.23673 3.20688L10.2061 2.23734L9.499 1.53027L8.79185 0.823211L7.82242 1.79275L8.52958 2.49982ZM7.99881 3.03058L7.29171 3.73769L8.76143 5.20741L9.46854 4.50031L10.1756 3.7932L8.70592 2.32347L7.99881 3.03058ZM9.46854 4.50031L8.7614 3.79323L4.58971 7.96529L5.29685 8.67236L6.00399 9.37944L10.1757 5.20738L9.46854 4.50031ZM5.29685 8.67236L4.98068 7.72366L2.77561 8.45852L3.09177 9.40723L3.40793 10.3559L5.61301 9.62107L5.29685 8.67236ZM3.09177 9.40723L4.04039 9.72364L4.77574 7.51905L3.82712 7.20264L2.8785 6.88622L2.14315 9.09081L3.09177 9.40723ZM3.82712 7.20264L4.53426 7.90971L8.70595 3.73765L7.99881 3.03058L7.29168 2.3235L3.11998 6.49556L3.82712 7.20264Z" fill="#707C8E" mask="url(#path-1-inside-1_4747_86116)"/>
<path d="M11.4993 5.625C11.2922 5.625 11.1243 5.79297 11.1243 6V11C11.1243 11.3447 10.844 11.625 10.4993 11.625H1.49927C1.15454 11.625 0.874268 11.3447 0.874268 11V2C0.874268 1.65527 1.15454 1.375 1.49927 1.375H6.49927C6.7063 1.375 6.87427 1.20703 6.87427 1C6.87427 0.792969 6.7063 0.625 6.49927 0.625H1.49927C0.741455 0.625 0.124268 1.2417 0.124268 2V11C0.124268 11.7583 0.741455 12.375 1.49927 12.375H10.4993C11.2571 12.375 11.8743 11.7583 11.8743 11V6C11.8743 5.79297 11.7063 5.625 11.4993 5.625Z" fill="#707C8E"/>
</g>
</g>
<defs>
<clipPath id="clip0_4747_86116">
<rect width="12" height="12" fill="white" transform="translate(0 0.5)"/>
</clipPath>
<clipPath id="clip1_4747_86116">
<rect width="12" height="12" fill="white" transform="translate(0 0.5)"/>
</clipPath>
</defs>
</svg>
