<svg width="46" height="46" viewBox="0 0 46 46" fill="none" xmlns="http://www.w3.org/2000/svg">
<g filter="url(#filter0_dd_1_6433)">
<g clip-path="url(#clip0_1_6433)">
<path d="M23 42C34.0457 42 43 33.0457 43 22C43 10.9543 34.0457 2 23 2C11.9543 2 3 10.9543 3 22C3 33.0457 11.9543 42 23 42Z" fill="white"/>
<path d="M35.8325 6.66739C38.7425 10.1411 40.5 14.6136 40.5 19.4999C40.5 30.5449 31.545 39.4999 20.5 39.4999C15.6137 39.4999 11.1412 37.7424 7.66748 34.8324C11.3362 39.2124 16.84 41.9999 23 41.9999C34.045 41.9999 43 33.0449 43 21.9999C43 15.8399 40.2125 10.3361 35.8325 6.66739Z" fill="#F9F9F9"/>
<path d="M29.8188 25.7499H16.1813C15.805 25.7499 15.5 26.0299 15.5 26.3749C15.5 30.1662 18.8637 33.2499 23 33.2499C27.1362 33.2499 30.5 30.1662 30.5 26.3749C30.5 26.0299 30.195 25.7499 29.8188 25.7499Z" fill="#C98E3F"/>
<path d="M30.45 26.9999C30.4725 26.7924 30.5 26.5874 30.5 26.3749C30.5 26.0299 30.195 25.7499 29.8188 25.7499H16.1813C15.805 25.7499 15.5 26.0299 15.5 26.3749C15.5 26.5874 15.5275 26.7924 15.55 26.9999H30.45Z" fill="#AB7934"/>
<path d="M34.875 25.7499C35.9105 25.7499 36.75 24.9104 36.75 23.8749C36.75 22.8394 35.9105 21.9999 34.875 21.9999C33.8395 21.9999 33 22.8394 33 23.8749C33 24.9104 33.8395 25.7499 34.875 25.7499Z" fill="#F9F9F9"/>
<path d="M11.125 25.7499C12.1605 25.7499 13 24.9104 13 23.8749C13 22.8394 12.1605 21.9999 11.125 21.9999C10.0895 21.9999 9.25 22.8394 9.25 23.8749C9.25 24.9104 10.0895 25.7499 11.125 25.7499Z" fill="#F9F9F9"/>
<path d="M15.5 21.9999C15.3 21.9999 15.1013 21.9249 14.9488 21.7762L11.3763 18.2662C10.8113 17.7112 10.5 16.9737 10.5 16.1887C10.5 15.4037 10.8113 14.6649 11.3763 14.1087C11.9413 13.5562 12.6925 13.2499 13.4925 13.2499C14.2413 13.2499 14.9488 13.9062 15.5 14.3987C16.0512 13.9062 16.76 13.2499 17.51 13.2499C18.31 13.2499 19.06 13.5562 19.625 14.1099C20.1912 14.6662 20.5 15.4037 20.5 16.1899C20.5 16.9749 20.19 17.7124 19.625 18.2674L16.0525 21.7774C15.9043 21.9207 15.7061 22.0005 15.5 21.9999Z" fill="#F15642"/>
<path d="M11.3763 15.3599C11.9413 14.8062 12.6925 14.4999 13.4925 14.4999C14.2413 14.4999 14.95 15.1562 15.5013 15.6487C16.0513 15.1562 16.76 14.4999 17.51 14.4999C18.31 14.4999 19.06 14.8062 19.625 15.3599C20.0375 15.7649 20.3088 16.2687 20.4288 16.8137C20.4738 16.6099 20.5013 16.4024 20.5013 16.1887C20.5013 15.4037 20.1912 14.6649 19.6262 14.1087C19.06 13.5562 18.31 13.2499 17.51 13.2499C16.76 13.2499 16.0513 13.9062 15.5013 14.3987C14.9488 13.9062 14.2413 13.2499 13.4925 13.2499C12.6925 13.2499 11.9413 13.5562 11.3763 14.1099C10.8113 14.6649 10.5 15.4037 10.5 16.1887C10.5 16.4012 10.5275 16.6099 10.5725 16.8137C10.6913 16.2674 10.965 15.7649 11.3763 15.3599Z" fill="#DA4E3C"/>
<path d="M30.5 21.9999C30.3 21.9999 30.1025 21.9249 29.9488 21.7762L26.3775 18.2662C25.8112 17.7112 25.5 16.9737 25.5 16.1887C25.5 15.4037 25.8113 14.6649 26.3763 14.1087C26.94 13.5562 27.6925 13.2499 28.4925 13.2499C29.24 13.2499 29.9488 13.9062 30.5 14.3987C31.0513 13.9062 31.76 13.2499 32.5088 13.2499C33.31 13.2499 34.0588 13.5562 34.6238 14.1099C35.1888 14.6662 35.4988 15.4037 35.4988 16.1899C35.4988 16.9749 35.1888 17.7124 34.6238 18.2674L31.0513 21.7774C30.9 21.9249 30.7 21.9999 30.5 21.9999Z" fill="#F15642"/>
<path d="M26.3763 15.3599C26.94 14.8062 27.6925 14.4999 28.4925 14.4999C29.2412 14.4999 29.9488 15.1562 30.5 15.6487C31.0512 15.1562 31.76 14.4999 32.5088 14.4999C33.31 14.4999 34.0588 14.8062 34.6237 15.3599C35.035 15.7649 35.3087 16.2687 35.4275 16.8137C35.4725 16.6099 35.5 16.4024 35.5 16.1887C35.5 15.4037 35.19 14.6649 34.625 14.1087C34.06 13.5562 33.31 13.2499 32.5088 13.2499C31.7588 13.2499 31.0512 13.9062 30.5 14.3987C29.9488 13.9062 29.24 13.2499 28.4925 13.2499C27.6925 13.2499 26.9412 13.5562 26.3775 14.1099C25.8112 14.6649 25.5 15.4037 25.5 16.1887C25.5 16.4012 25.5263 16.6099 25.5725 16.8137C25.6913 16.2674 25.9638 15.7649 26.3763 15.3599Z" fill="#DA4E3C"/>
</g>
</g>
<defs>
<filter id="filter0_dd_1_6433" x="0" y="0" width="46" height="46" filterUnits="userSpaceOnUse" color-interpolation-filters="sRGB">
<feFlood flood-opacity="0" result="BackgroundImageFix"/>
<feColorMatrix in="SourceAlpha" type="matrix" values="0 0 0 0 0 0 0 0 0 0 0 0 0 0 0 0 0 0 127 0" result="hardAlpha"/>
<feOffset dy="1"/>
<feGaussianBlur stdDeviation="1"/>
<feColorMatrix type="matrix" values="0 0 0 0 0.0627451 0 0 0 0 0.0941176 0 0 0 0 0.156863 0 0 0 0.06 0"/>
<feBlend mode="normal" in2="BackgroundImageFix" result="effect1_dropShadow_1_6433"/>
<feColorMatrix in="SourceAlpha" type="matrix" values="0 0 0 0 0 0 0 0 0 0 0 0 0 0 0 0 0 0 127 0" result="hardAlpha"/>
<feOffset dy="1"/>
<feGaussianBlur stdDeviation="1.5"/>
<feColorMatrix type="matrix" values="0 0 0 0 0.0627451 0 0 0 0 0.0941176 0 0 0 0 0.156863 0 0 0 0.1 0"/>
<feBlend mode="normal" in2="effect1_dropShadow_1_6433" result="effect2_dropShadow_1_6433"/>
<feBlend mode="normal" in="SourceGraphic" in2="effect2_dropShadow_1_6433" result="shape"/>
</filter>
<clipPath id="clip0_1_6433">
<rect width="40" height="40" fill="white" transform="translate(3 2)"/>
</clipPath>
</defs>
</svg>
