<svg width="20" height="20" viewBox="0 0 20 20" fill="none" xmlns="http://www.w3.org/2000/svg">
<g clip-path="url(#clip0_2195_273)">
<g clip-path="url(#clip1_2195_273)">
<path d="M16.715 11.54C16.4827 11.5444 16.2609 11.6374 16.095 11.8C16.012 11.8825 15.9462 11.9807 15.9015 12.0888C15.8569 12.197 15.8343 12.313 15.835 12.43V16.59C15.8165 16.7989 15.7588 17.0025 15.665 17.19L15.605 17.31C15.5096 17.4868 15.3844 17.6458 15.235 17.78L15.105 17.87C15.0558 17.9123 15.0021 17.9492 14.945 17.98C14.9015 18.0093 14.8545 18.0328 14.805 18.05L14.655 18.12L14.355 18.21H5.70501L5.36501 18.13L5.18501 18.05L5.06501 18L4.78501 17.8C4.60678 17.6469 4.46063 17.46 4.35501 17.25C4.25712 17.0457 4.19618 16.8256 4.17501 16.6V12.43C4.17574 12.313 4.15312 12.197 4.10847 12.0888C4.06383 11.9807 3.99806 11.8825 3.91501 11.8C3.74911 11.6374 3.52729 11.5444 3.29501 11.54C3.0607 11.5427 2.83689 11.6376 2.67214 11.8042C2.50739 11.9708 2.41499 12.1957 2.41501 12.43V16.62C2.43425 17.0858 2.54582 17.5431 2.74324 17.9654C2.94065 18.3877 3.21998 18.7666 3.56501 19.08C3.73422 19.2419 3.92223 19.3829 4.12501 19.5L4.21501 19.55C4.38162 19.6439 4.55551 19.7241 4.73501 19.79L4.93501 19.86C5.07627 19.9017 5.21984 19.9351 5.36501 19.96H5.60501L6.00501 20H14.005H14.335H14.605L15.055 19.89L15.255 19.83C15.424 19.7622 15.5878 19.682 15.745 19.59L15.855 19.53C16.055 19.4172 16.2398 19.2795 16.405 19.12C16.7516 18.8058 17.032 18.4254 17.2294 18.0012C17.4269 17.577 17.5376 17.1176 17.555 16.65V12.43C17.5557 12.313 17.5331 12.197 17.4885 12.0888C17.4438 11.9807 17.3781 11.8825 17.295 11.8C17.1377 11.6487 16.9327 11.5567 16.715 11.54Z" fill="#3D74FF"/>
<path d="M19.545 9.24003C19.493 9.15171 19.429 9.07096 19.355 9.00003L10.615 0.220031C10.5323 0.149905 10.4374 0.0956614 10.335 0.0600312C10.2297 0.0195295 10.1178 -0.000823865 10.005 3.12025e-05C9.89122 -0.000986568 9.77858 0.0229055 9.675 0.0700312C9.56801 0.115997 9.46987 0.180296 9.385 0.260031L0.655005 9.00003C0.572464 9.08185 0.506946 9.1792 0.462233 9.28647C0.417521 9.39375 0.394501 9.50881 0.394501 9.62503C0.394501 9.74125 0.417521 9.85632 0.462233 9.96359C0.506946 10.0709 0.572464 10.1682 0.655005 10.25C0.737453 10.3331 0.835637 10.3989 0.943813 10.4435C1.05199 10.4881 1.16798 10.5108 1.285 10.51C1.40043 10.51 1.51469 10.487 1.62113 10.4423C1.72758 10.3977 1.82408 10.3323 1.905 10.25L10.005 2.10003L18.095 10.19C18.1783 10.2769 18.2765 10.348 18.385 10.4C18.4965 10.4442 18.6151 10.4679 18.735 10.47C18.8484 10.467 18.9602 10.4433 19.065 10.4C19.1685 10.3531 19.2631 10.2888 19.345 10.21C19.437 10.1274 19.5088 10.0248 19.555 9.91003C19.5951 9.80464 19.6154 9.69278 19.615 9.58003C19.615 9.46312 19.5912 9.34743 19.545 9.24003Z" fill="#3D74FF"/>
</g>
</g>
<defs>
<clipPath id="clip0_2195_273">
<rect width="20" height="20" fill="white"/>
</clipPath>
<clipPath id="clip1_2195_273">
<rect width="19.21" height="20" fill="white" transform="translate(0.395004)"/>
</clipPath>
</defs>
</svg>
