<svg width="20" height="20" viewBox="0 0 20 20" fill="none" xmlns="http://www.w3.org/2000/svg">
<g clip-path="url(#clip0_2195_279)">
<path d="M0.510007 20C0.460399 19.9975 0.413468 19.9767 0.378348 19.9416C0.343227 19.9065 0.322431 19.8596 0.320007 19.81V11.9C0.322431 11.8504 0.343227 11.8034 0.378348 11.7683C0.413468 11.7332 0.460399 11.7124 0.510007 11.71H4.45001C4.49962 11.7124 4.54655 11.7332 4.58167 11.7683C4.61679 11.8034 4.63758 11.8504 4.64001 11.9V19.81C4.63758 19.8596 4.61679 19.9065 4.58167 19.9416C4.54655 19.9767 4.49962 19.9975 4.45001 20H0.510007ZM3.40001 18.76V13H1.56001V18.81L3.40001 18.76Z" fill="#191919"/>
<path d="M5.52 20C5.47039 19.9975 5.42346 19.9767 5.38834 19.9416C5.35322 19.9065 5.33243 19.8596 5.33 19.81V9.08995C5.33 9.03956 5.35002 8.99123 5.38565 8.9556C5.42128 8.91997 5.46961 8.89995 5.52 8.89995H9.46C9.48533 8.8985 9.51068 8.90242 9.53439 8.91146C9.5581 8.92049 9.57964 8.93444 9.59758 8.95238C9.61552 8.97032 9.62946 8.99185 9.6385 9.01556C9.64753 9.03927 9.65145 9.06462 9.65 9.08995V19.81C9.65 19.8603 9.62998 19.9087 9.59435 19.9443C9.55872 19.9799 9.51039 20 9.46 20H5.52ZM8.41 18.76V10.14H6.57V18.76H8.41Z" fill="#191919"/>
<path d="M10.54 20C10.4896 20 10.4413 19.9799 10.4057 19.9443C10.37 19.9087 10.35 19.8604 10.35 19.81V11.9C10.35 11.8496 10.37 11.8012 10.4057 11.7656C10.4413 11.73 10.4896 11.71 10.54 11.71H14.48C14.5296 11.7124 14.5765 11.7332 14.6117 11.7683C14.6468 11.8034 14.6676 11.8504 14.67 11.9V19.81C14.6676 19.8596 14.6468 19.9065 14.6117 19.9416C14.5765 19.9767 14.5296 19.9975 14.48 20H10.54ZM13.43 18.76V13H11.59V18.81L13.43 18.76Z" fill="#191919"/>
<path d="M15.55 20.0001C15.5004 19.9977 15.4535 19.9769 15.4183 19.9418C15.3832 19.9066 15.3624 19.8597 15.36 19.8101V6.2901C15.36 6.23971 15.38 6.19138 15.4157 6.15575C15.4513 6.12012 15.4996 6.1001 15.55 6.1001H19.49C19.5404 6.1001 19.5887 6.12012 19.6244 6.15575C19.66 6.19138 19.68 6.23971 19.68 6.2901V19.8101C19.6776 19.8597 19.6568 19.9066 19.6217 19.9418C19.5865 19.9769 19.5396 19.9977 19.49 20.0001H15.55ZM18.44 18.7601V7.3401H16.6V18.7601H18.44Z" fill="#191919"/>
<path d="M12.51 9.36C12.0131 9.36001 11.5365 9.16331 11.1842 8.8129C10.8319 8.46249 10.6327 7.98687 10.63 7.49C10.6206 7.38688 10.6206 7.28312 10.63 7.18L8.75001 6.07C8.40331 6.37947 7.95474 6.55035 7.49001 6.55C7.02784 6.55267 6.5816 6.38131 6.24001 6.07L4.33001 7.18C4.33986 7.2831 4.33986 7.3869 4.33001 7.49C4.32996 7.8631 4.2189 8.22774 4.01097 8.53752C3.80303 8.8473 3.50763 9.08821 3.16235 9.22958C2.81708 9.37095 2.43754 9.40638 2.07206 9.33138C1.70659 9.25637 1.37169 9.07432 1.11 8.80839C0.84831 8.54245 0.671666 8.20467 0.602549 7.83803C0.533432 7.4714 0.574969 7.09248 0.721873 6.74952C0.868777 6.40657 1.1144 6.11507 1.42749 5.91215C1.74057 5.70923 2.10696 5.60405 2.48001 5.61C2.94428 5.60601 3.39213 5.78157 3.73001 6.1L5.64001 5C5.62972 4.89692 5.62972 4.79308 5.64001 4.69C5.67462 4.21638 5.88719 3.7734 6.23501 3.45007C6.58283 3.12674 7.04012 2.94702 7.51501 2.94702C7.9899 2.94702 8.44719 3.12674 8.79501 3.45007C9.14283 3.7734 9.3554 4.21638 9.39001 4.69C9.40037 4.79307 9.40037 4.89693 9.39001 5L11.25 6.1C11.5932 5.78356 12.0432 5.60853 12.51 5.61C12.7683 5.6118 13.0235 5.66624 13.26 5.77L15.86 2.77C15.7171 2.50216 15.6416 2.20356 15.64 1.9C15.6374 1.65144 15.684 1.40482 15.7773 1.17441C15.8706 0.944006 16.0087 0.734389 16.1835 0.557691C16.3584 0.380993 16.5665 0.240722 16.7959 0.144995C17.0253 0.0492683 17.2714 -1.40635e-05 17.52 3.01039e-09C18.0183 0.00183251 18.496 0.199353 18.85 0.55C19.1147 0.811568 19.2953 1.14615 19.3687 1.51094C19.4422 1.87573 19.4051 2.25415 19.2623 2.59776C19.1195 2.94138 18.8774 3.23457 18.5671 3.43983C18.2567 3.6451 17.8921 3.75309 17.52 3.75C17.2581 3.75197 16.9989 3.69739 16.76 3.59L14.17 6.59C14.317 6.8757 14.3883 7.19431 14.3771 7.51541C14.366 7.83651 14.2727 8.14939 14.1062 8.42418C13.9397 8.69898 13.7056 8.92653 13.4261 9.0851C13.1467 9.24368 12.8313 9.32799 12.51 9.33V9.36ZM12.51 6.85C12.3403 6.85 12.1775 6.91743 12.0575 7.03745C11.9374 7.15747 11.87 7.32026 11.87 7.49C11.8726 7.658 11.9412 7.81823 12.061 7.9361C12.1807 8.05397 12.342 8.12002 12.51 8.12C12.6771 8.12 12.8373 8.05363 12.9555 7.93548C13.0736 7.81733 13.14 7.65709 13.14 7.49C13.14 7.32198 13.074 7.16069 12.9561 7.04095C12.8382 6.92121 12.678 6.85263 12.51 6.85ZM2.51001 6.85C2.38302 6.84802 2.25831 6.88386 2.15176 6.95296C2.04521 7.02207 1.96162 7.12132 1.91164 7.23807C1.86167 7.35483 1.84756 7.48382 1.87111 7.60861C1.89466 7.73341 1.95482 7.84838 2.04391 7.93889C2.13301 8.0294 2.24701 8.09136 2.37143 8.11687C2.49584 8.14239 2.62503 8.13031 2.74256 8.08218C2.86009 8.03405 2.96064 7.95204 3.03142 7.84658C3.10219 7.74113 3.13999 7.617 3.14001 7.49C3.14147 7.40384 3.12525 7.3183 3.09234 7.23867C3.05943 7.15903 3.01053 7.08699 2.94867 7.027C2.88681 6.96702 2.8133 6.92036 2.73269 6.88991C2.65208 6.85947 2.56608 6.84588 2.48001 6.85H2.51001ZM7.49001 4C7.36301 4.00002 7.23888 4.03782 7.13343 4.10859C7.02797 4.17937 6.94596 4.27992 6.89783 4.39745C6.8497 4.51498 6.83762 4.64417 6.86314 4.76858C6.88865 4.89299 6.95061 5.007 7.04112 5.0961C7.13162 5.18519 7.24659 5.24534 7.37139 5.2689C7.49619 5.29245 7.62518 5.27834 7.74193 5.22836C7.85869 5.17839 7.95794 5.0948 8.02704 4.98825C8.09615 4.88169 8.13199 4.75699 8.13001 4.63C8.13002 4.54642 8.1134 4.46367 8.08111 4.38658C8.04883 4.30948 8.00153 4.23958 7.94196 4.18095C7.8824 4.12232 7.81176 4.07612 7.73417 4.04505C7.65658 4.01399 7.57358 3.99867 7.49001 4ZM17.49 1.2C17.3229 1.2 17.1627 1.26637 17.0445 1.38452C16.9264 1.50267 16.86 1.66291 16.86 1.83C16.8573 1.91394 16.8716 1.99755 16.9022 2.07577C16.9328 2.15399 16.9789 2.22518 17.0378 2.28503C17.0968 2.34488 17.1672 2.39213 17.2449 2.42393C17.3227 2.45572 17.406 2.4714 17.49 2.47C17.5801 2.48133 17.6715 2.47336 17.7583 2.44663C17.8451 2.41989 17.9251 2.37501 17.9932 2.31495C18.0613 2.25489 18.1158 2.18103 18.1532 2.09828C18.1905 2.01554 18.2099 1.92579 18.2099 1.835C18.2099 1.74421 18.1905 1.65446 18.1532 1.57172C18.1158 1.48897 18.0613 1.41511 17.9932 1.35505C17.9251 1.29499 17.8451 1.25011 17.7583 1.22337C17.6715 1.19664 17.5801 1.18867 17.49 1.2Z" fill="#191919"/>
</g>
<defs>
<clipPath id="clip0_2195_279">
<rect width="19.36" height="20" fill="white" transform="translate(0.320007)"/>
</clipPath>
</defs>
</svg>
