<svg width="17" height="19" viewBox="0 0 17 19" fill="none" xmlns="http://www.w3.org/2000/svg">
<path d="M8.16544 0.0501709C8.27979 0.0501709 8.39489 0.0967005 8.47598 0.182007L12.2953 4.19177L12.2963 4.19373C12.3655 4.27127 12.4174 4.3727 12.4174 4.48572V7.85193C14.7464 8.35582 16.5296 10.4442 16.5258 12.9418C16.5257 15.8167 14.1809 18.1496 11.31 18.1498C9.42985 18.1498 7.77842 17.1453 6.8627 15.6439H2.11075C0.965204 15.6439 0.0502598 14.7249 0.0502014 13.5795V2.12927C0.0503543 0.98441 0.964783 0.0501858 2.11075 0.0501709H8.16544ZM11.3139 8.58728C8.90667 8.58728 6.95547 10.5423 6.95547 12.9457C6.95567 15.3489 8.91061 17.3031 11.3139 17.3031C13.7169 17.3029 15.6711 15.3488 15.6713 12.9457C15.6713 10.5424 13.7207 8.5875 11.3139 8.58728ZM2.11075 0.900757C1.43786 0.900772 0.900939 1.45084 0.900787 2.12927V13.5795C0.900846 14.2535 1.43713 14.7933 2.11075 14.7933H2.16055V14.7972H6.44571C6.22449 14.2428 6.101 13.5957 6.10098 12.9418C6.10098 12.5443 6.14675 12.1467 6.23184 11.7836H3.13126C2.89733 11.7836 2.70661 11.5925 2.70645 11.3588C2.70645 11.1247 2.89724 10.933 3.13126 10.933H6.50626C6.66632 10.5572 6.86679 10.2126 7.10391 9.87048H3.13126C2.89724 9.87048 2.70645 9.67872 2.70645 9.4447C2.70665 9.21098 2.89738 9.0199 3.13126 9.0199H7.87833C8.79279 8.23222 10.0019 7.72995 11.3168 7.72986C11.3674 7.72986 11.4164 7.73243 11.4652 7.73572C11.4983 7.73794 11.5317 7.73873 11.5668 7.7406V4.91443H9.4418C8.50254 4.91443 7.74077 4.14926 7.74063 3.21033V0.900757H2.11075ZM8.59122 3.21033C8.59136 3.67807 8.97456 4.06384 9.4418 4.06384H10.9857L8.59122 1.54138V3.21033Z" fill="#191919" stroke="#191919" stroke-width="0.1"/>
<path d="M6.93187 7.14062C7.16569 7.14079 7.35657 7.33159 7.35667 7.56543C7.35667 7.7992 7.16577 7.99105 6.93187 7.99121H3.13109C2.89714 7.99111 2.70628 7.79924 2.70628 7.56543C2.70638 7.33155 2.89721 7.14072 3.13109 7.14062H6.93187Z" fill="#191919" stroke="#191919" stroke-width="0.1"/>
<path d="M11.3168 10.0068C11.5506 10.0068 11.7424 10.1977 11.7425 10.4316V14.4004L13.1976 12.833V12.832C13.3586 12.6628 13.6228 12.6499 13.7972 12.8115C13.9463 12.9496 13.9715 13.1747 13.8675 13.3428L13.8148 13.4111L11.6166 15.7705L11.6156 15.7715C11.5356 15.8554 11.4254 15.9062 11.306 15.9062C11.1864 15.9062 11.0755 15.8557 10.9955 15.7715V15.7705L8.80113 13.4111C8.63865 13.2401 8.65248 12.9722 8.82164 12.8115C8.97127 12.6694 9.19774 12.6627 9.35973 12.7764L9.42516 12.832L10.892 14.4004V10.4316C10.8921 10.1978 11.083 10.0071 11.3168 10.0068Z" fill="#191919" stroke="#191919" stroke-width="0.1"/>
</svg>
