<svg width="14" height="17" viewBox="0 0 14 17" fill="none" xmlns="http://www.w3.org/2000/svg">
<path d="M6.45801 0.202148C6.62203 0.0996149 6.83011 0.099636 6.99414 0.202148L8.61621 1.21582C9.49264 1.76358 10.4784 2.11393 11.5039 2.24219L12.8838 2.41504C13.137 2.44669 13.3271 2.66182 13.3271 2.91699V7.83691C13.3271 10.6382 11.8842 13.2419 9.50879 14.7266L6.99414 16.2979C6.83011 16.4003 6.62203 16.4004 6.45801 16.2979L3.94336 14.7266C1.56803 13.2419 0.125082 10.6381 0.125 7.83691V2.91699C0.125 2.66183 0.315171 2.44669 0.568359 2.41504L1.94824 2.24219C2.97387 2.11396 3.95944 1.76363 4.83594 1.21582L6.45801 0.202148ZM5.37207 2.07422C4.37083 2.69997 3.24481 3.09965 2.07324 3.24609L1.13672 3.3623V7.83691C1.1368 10.2893 2.4008 12.5684 4.48047 13.8682L6.72559 15.2715L8.97266 13.8682C11.0521 12.5683 12.3153 10.2892 12.3154 7.83691V3.3623L11.3789 3.24609C10.2074 3.09964 9.08131 2.7 8.08008 2.07422L6.72559 1.22754L5.37207 2.07422ZM9.83887 6.2334L9.75098 6.32227L6.70312 9.37012C6.50555 9.56744 6.18482 9.56753 5.9873 9.37012L4.46387 7.8457L4.375 7.75781L4.46387 7.66895L5.00293 7.13086L5.09082 7.04199L6.34473 8.2959L9.03516 5.60645L9.12402 5.51855L9.83887 6.2334Z" fill="#191919" stroke="#191919" stroke-width="0.25"/>
</svg>
