<svg width="15" height="17" viewBox="0 0 15 17" fill="none" xmlns="http://www.w3.org/2000/svg">
<path d="M12.5143 12.665C11.1364 11.7888 9.3157 11.306 7.38718 11.306C5.45866 11.306 3.63794 11.7888 2.26126 12.665C1.41651 13.2014 0 14.3768 0 16.2139C0 16.3622 0.057892 16.5044 0.160943 16.6092C0.263994 16.7141 0.403763 16.773 0.549499 16.773C0.695235 16.773 0.835004 16.7141 0.938055 16.6092C1.04111 16.5044 1.099 16.3622 1.099 16.2139C1.099 15.253 1.7188 14.3291 2.84357 13.6139C4.04919 12.8474 5.66253 12.4218 7.38718 12.4218C9.11183 12.4218 10.7263 12.8438 11.932 13.6139C13.0567 14.3291 13.6754 15.253 13.6754 16.2139C13.6719 16.2895 13.6836 16.3651 13.7097 16.4361C13.7358 16.507 13.7758 16.5719 13.8272 16.6267C13.8786 16.6814 13.9404 16.725 14.0089 16.7548C14.0773 16.7846 14.151 16.8 14.2254 16.8C14.2999 16.8 14.3736 16.7846 14.442 16.7548C14.5105 16.725 14.5723 16.6814 14.6237 16.6267C14.6751 16.5719 14.7151 16.507 14.7412 16.4361C14.7673 16.3651 14.779 16.2895 14.7755 16.2139C14.7755 14.3756 13.359 13.2014 12.5143 12.665Z" fill="#191919"/>
<path d="M7.38718 9.81582C8.34121 9.81582 9.27381 9.52798 10.0671 8.98869C10.8603 8.4494 11.4786 7.68289 11.8436 6.78609C12.2087 5.88929 12.3043 4.90247 12.1181 3.95043C11.932 2.99838 11.4726 2.12388 10.798 1.4375C10.1234 0.751112 9.26392 0.283679 8.32823 0.0943063C7.39253 -0.0950666 6.42266 0.00212671 5.54126 0.373595C4.65985 0.745063 3.90651 1.37412 3.37648 2.18122C2.84645 2.98833 2.56355 3.93722 2.56355 4.90791C2.5651 6.20909 3.07379 7.45652 3.97807 8.37659C4.88234 9.29666 6.10835 9.81425 7.38718 9.81582ZM7.38718 1.11939C8.12361 1.11939 8.84351 1.34159 9.45583 1.75787C10.0681 2.17416 10.5454 2.76585 10.8272 3.45811C11.109 4.15037 11.1828 4.91212 11.0391 5.64702C10.8954 6.38192 10.5408 7.05697 10.0201 7.5868C9.49934 8.11664 8.83587 8.47746 8.11359 8.62364C7.39131 8.76982 6.64265 8.69479 5.96227 8.40805C5.2819 8.12131 4.70037 7.63572 4.29123 7.0127C3.88209 6.38968 3.66372 5.65721 3.66372 4.90791C3.66496 3.90352 4.05765 2.94063 4.75566 2.23042C5.45368 1.52021 6.40004 1.12065 7.38718 1.11939Z" fill="#191919"/>
</svg>
