<svg width="14" height="19" viewBox="0 0 14 19" fill="none" xmlns="http://www.w3.org/2000/svg">
<path d="M11.39 6.7H3.35V4.4957C3.35 3.65876 3.68247 2.85609 4.27428 2.26428C4.86609 1.67247 5.66876 1.34 6.5057 1.34H6.8943C7.73124 1.34 8.53391 1.67247 9.12572 2.26428C9.71753 2.85609 10.05 3.65876 10.05 4.4957C10.05 4.6734 10.1206 4.84381 10.2462 4.96946C10.3719 5.09511 10.5423 5.1657 10.72 5.1657C10.8977 5.1657 11.0681 5.09511 11.1938 4.96946C11.3194 4.84381 11.39 4.6734 11.39 4.4957C11.3882 3.30391 10.914 2.16144 10.0713 1.31872C9.22856 0.475994 8.08609 0.00177218 6.8943 0H6.5057C5.31391 0.00177218 4.17144 0.475994 3.32872 1.31872C2.48599 2.16144 2.01177 3.30391 2.01 4.4957V6.7C1.47691 6.7 0.965663 6.91177 0.588715 7.28872C0.211767 7.66566 0 8.17692 0 8.71V14.941C0.00177134 15.9533 0.404698 16.9237 1.12052 17.6395C1.83633 18.3553 2.80668 18.7582 3.819 18.76H9.581C10.5933 18.7582 11.5637 18.3553 12.2795 17.6395C12.9953 16.9237 13.3982 15.9533 13.4 14.941V8.71C13.4 8.17692 13.1882 7.66566 12.8113 7.28872C12.4343 6.91177 11.9231 6.7 11.39 6.7ZM12.06 14.941C12.06 15.5985 11.7988 16.229 11.3339 16.6939C10.869 17.1588 10.2385 17.42 9.581 17.42H3.819C3.16153 17.42 2.53098 17.1588 2.06608 16.6939C1.60118 16.229 1.34 15.5985 1.34 14.941V8.71C1.34 8.5323 1.41059 8.36189 1.53624 8.23624C1.66189 8.11059 1.8323 8.04 2.01 8.04H11.39C11.5677 8.04 11.7381 8.11059 11.8638 8.23624C11.9894 8.36189 12.06 8.5323 12.06 8.71V14.941ZM7.37 12.5424V14.74C7.37 14.9177 7.29941 15.0881 7.17376 15.2138C7.04811 15.3394 6.87769 15.41 6.7 15.41C6.5223 15.41 6.35189 15.3394 6.22624 15.2138C6.10059 15.0881 6.03 14.9177 6.03 14.74V12.5424C5.77454 12.3949 5.57488 12.1672 5.462 11.8947C5.34912 11.6222 5.32931 11.32 5.40566 11.0351C5.48201 10.7502 5.65024 10.4984 5.88426 10.3188C6.11828 10.1393 6.40502 10.0419 6.7 10.0419C6.99498 10.0419 7.28172 10.1393 7.51574 10.3188C7.74976 10.4984 7.91799 10.7502 7.99434 11.0351C8.07069 11.32 8.05088 11.6222 7.938 11.8947C7.82511 12.1672 7.62546 12.3949 7.37 12.5424Z" fill="#191919"/>
</svg>
