<svg width="20" height="20" viewBox="0 0 20 20" fill="none" xmlns="http://www.w3.org/2000/svg">
<g clip-path="url(#clip0_2195_299)">
<path d="M7.53 0.14502H1.66C1.22055 0.147643 0.799845 0.323378 0.489102 0.634121C0.178358 0.944865 0.00262365 1.36557 0 1.80502L0 7.68502C0.00262365 8.12447 0.178358 8.54517 0.489102 8.85592C0.799845 9.16666 1.22055 9.3424 1.66 9.34502H7.53C7.74799 9.34502 7.96385 9.30208 8.16525 9.21866C8.36666 9.13524 8.54965 9.01296 8.7038 8.85882C8.85794 8.70467 8.98022 8.52167 9.06364 8.32027C9.14706 8.11887 9.19 7.90301 9.19 7.68502V1.80502C9.19 1.58703 9.14706 1.37117 9.06364 1.16976C8.98022 0.968365 8.85794 0.785368 8.7038 0.631222C8.54965 0.477077 8.36666 0.354802 8.16525 0.27138C7.96385 0.187957 7.74799 0.14502 7.53 0.14502ZM7.73 1.80502V7.68502C7.72743 7.73631 7.70523 7.78465 7.668 7.82002C7.63077 7.85539 7.58136 7.87508 7.53 7.87502H1.66C1.60961 7.87502 1.56128 7.855 1.52565 7.81937C1.49002 7.78374 1.47 7.73541 1.47 7.68502V1.80502C1.47 1.75463 1.49002 1.7063 1.52565 1.67067C1.56128 1.63504 1.60961 1.61502 1.66 1.61502H7.53C7.58136 1.61496 7.63077 1.63465 7.668 1.67002C7.70523 1.70539 7.72743 1.75373 7.73 1.80502Z" fill="#191919"/>
<path d="M18.34 0.14502H12.47C12.0297 0.14502 11.6075 0.319912 11.2962 0.631222C10.9849 0.942533 10.81 1.36476 10.81 1.80502V7.68502C10.81 7.90301 10.8529 8.11887 10.9364 8.32027C11.0198 8.52167 11.1421 8.70467 11.2962 8.85882C11.4503 9.01296 11.6333 9.13524 11.8347 9.21866C12.0361 9.30208 12.252 9.34502 12.47 9.34502H18.34C18.7794 9.3424 19.2002 9.16666 19.5109 8.85592C19.8216 8.54517 19.9974 8.12447 20 7.68502V1.80502C19.9974 1.36557 19.8216 0.944865 19.5109 0.634121C19.2002 0.323378 18.7794 0.147643 18.34 0.14502ZM18.53 1.80502V7.68502C18.53 7.70997 18.5251 7.73468 18.5155 7.75773C18.506 7.78078 18.492 7.80173 18.4743 7.81937C18.4567 7.83701 18.4358 7.85101 18.4127 7.86056C18.3897 7.8701 18.3649 7.87502 18.34 7.87502H12.47C12.4186 7.87508 12.3692 7.85539 12.332 7.82002C12.2948 7.78465 12.2726 7.73631 12.27 7.68502V1.80502C12.2726 1.75373 12.2948 1.70539 12.332 1.67002C12.3692 1.63465 12.4186 1.61496 12.47 1.61502H18.34C18.3649 1.61502 18.3897 1.61993 18.4127 1.62948C18.4358 1.63903 18.4567 1.65303 18.4743 1.67067C18.492 1.68831 18.506 1.70926 18.5155 1.73231C18.5251 1.75536 18.53 1.78007 18.53 1.80502Z" fill="#191919"/>
<path d="M7.53 10.665H1.66C1.22055 10.6677 0.799845 10.8434 0.489102 11.1541C0.178358 11.4649 0.00262365 11.8856 0 12.325L0 18.205C0.00262365 18.6445 0.178358 19.0652 0.489102 19.3759C0.799845 19.6867 1.22055 19.8624 1.66 19.865H7.53C7.97026 19.865 8.39249 19.6901 8.7038 19.3788C9.01511 19.0675 9.19 18.6453 9.19 18.205V12.325C9.19 11.8848 9.01511 11.4626 8.7038 11.1512C8.39249 10.8399 7.97026 10.665 7.53 10.665ZM7.73 12.325V18.195C7.73 18.2213 7.72483 18.2473 7.71478 18.2716C7.70473 18.2958 7.68999 18.3179 7.67142 18.3365C7.65285 18.355 7.6308 18.3698 7.60654 18.3798C7.58227 18.3899 7.55626 18.395 7.53 18.395H1.66C1.60961 18.395 1.56128 18.375 1.52565 18.3394C1.49002 18.3038 1.47 18.2554 1.47 18.205V12.325C1.47 12.2746 1.49002 12.2263 1.52565 12.1907C1.56128 12.1551 1.60961 12.135 1.66 12.135H7.53C7.58136 12.135 7.63077 12.1547 7.668 12.19C7.70523 12.2254 7.72743 12.2737 7.73 12.325Z" fill="#191919"/>
<path d="M15.4 10.6651C14.3328 10.6653 13.2988 11.0356 12.4742 11.713C11.6496 12.3904 11.0856 13.3329 10.8783 14.3797C10.671 15.4265 10.8333 16.5128 11.3376 17.4533C11.8418 18.3939 12.6567 19.1303 13.6433 19.5371C14.6298 19.9439 15.727 19.9958 16.7476 19.6839C17.7681 19.3721 18.6489 18.7159 19.2397 17.8272C19.8304 16.9384 20.0946 15.8723 19.987 14.8106C19.8795 13.7489 19.407 12.7573 18.65 12.0051C18.2246 11.5769 17.718 11.2379 17.16 11.0078C16.6019 10.7777 16.0036 10.6612 15.4 10.6651ZM18.53 15.2651C18.53 15.8842 18.3464 16.4893 18.0025 17.0041C17.6586 17.5188 17.1697 17.92 16.5978 18.1569C16.0259 18.3938 15.3965 18.4558 14.7894 18.335C14.1822 18.2142 13.6245 17.9161 13.1868 17.4784C12.749 17.0406 12.4509 16.4829 12.3301 15.8758C12.2094 15.2686 12.2714 14.6393 12.5083 14.0673C12.7452 13.4954 13.1463 13.0066 13.6611 12.6626C14.1758 12.3187 14.7809 12.1351 15.4 12.1351C16.2301 12.1351 17.0263 12.4649 17.6132 13.0519C18.2002 13.6389 18.53 14.435 18.53 15.2651Z" fill="#191919"/>
</g>
<defs>
<clipPath id="clip0_2195_299">
<rect width="20" height="19.71" fill="white" transform="translate(0 0.14502)"/>
</clipPath>
</defs>
</svg>
