<svg width="18" height="17" viewBox="0 0 18 17" fill="none" xmlns="http://www.w3.org/2000/svg">
<path d="M14.375 0H3.125C1.375 0 0 1.375 0 3.125V9.375C0 11.125 1.375 12.5 3.125 12.5C3.5 12.5 3.75 12.75 3.75 13.125V15.625C3.75 15.875 3.875 16.0625 4.125 16.1875C4.1875 16.25 4.25 16.25 4.375 16.25C4.5 16.25 4.625 16.1875 4.75 16.125L9.0625 12.875C9.375 12.625 9.8125 12.5 10.1875 12.5H14.375C16.125 12.5 17.5 11.125 17.5 9.375V3.125C17.5 1.375 16.125 0 14.375 0ZM16.25 9.375C16.25 10.4375 15.4375 11.25 14.375 11.25H10.1875C9.5 11.25 8.875 11.5 8.3125 11.875L5 14.375V13.125C5 12.0625 4.1875 11.25 3.125 11.25C2.0625 11.25 1.25 10.4375 1.25 9.375V3.125C1.25 2.0625 2.0625 1.25 3.125 1.25H14.375C15.4375 1.25 16.25 2.0625 16.25 3.125V9.375ZM13.75 4.375C13.75 4.75 13.5 5 13.125 5H4.375C4 5 3.75 4.75 3.75 4.375C3.75 4 4 3.75 4.375 3.75H13.125C13.5 3.75 13.75 4 13.75 4.375ZM13.75 8.125C13.75 8.5 13.5 8.75 13.125 8.75H4.375C4 8.75 3.75 8.5 3.75 8.125C3.75 7.75 4 7.5 4.375 7.5H13.125C13.5 7.5 13.75 7.75 13.75 8.125Z" fill="#191919"/>
</svg>
