<svg width="19" height="18" viewBox="0 0 19 18" fill="none" xmlns="http://www.w3.org/2000/svg">
<path d="M13.7428 17.0149H5.01721C1.16923 17.0149 0 15.8457 0 11.9977V5.01721C0 1.16923 1.16923 0 5.01721 0H13.7428C17.5908 0 18.76 1.16923 18.76 5.01721V11.9977C18.76 15.8457 17.5908 17.0149 13.7428 17.0149ZM5.01721 1.30884C1.89345 1.30884 1.30884 1.90218 1.30884 5.01721V11.9977C1.30884 15.1127 1.89345 15.706 5.01721 15.706H13.7428C16.8665 15.706 17.4512 15.1127 17.4512 11.9977V5.01721C17.4512 1.90218 16.8665 1.30884 13.7428 1.30884H5.01721Z" fill="#191919"/>
<path d="M15.4879 5.67212H11.1251C10.7674 5.67212 10.4707 5.37545 10.4707 5.0177C10.4707 4.65995 10.7674 4.36328 11.1251 4.36328H15.4879C15.8457 4.36328 16.1423 4.65995 16.1423 5.0177C16.1423 5.37545 15.8457 5.67212 15.4879 5.67212Z" fill="#191919"/>
<path d="M15.4879 9.16235H11.9977C11.6399 9.16235 11.3433 8.86568 11.3433 8.50793C11.3433 8.15019 11.6399 7.85352 11.9977 7.85352H15.4879C15.8457 7.85352 16.1423 8.15019 16.1423 8.50793C16.1423 8.86568 15.8457 9.16235 15.4879 9.16235Z" fill="#191919"/>
<path d="M15.4879 12.6526H13.7428C13.385 12.6526 13.0884 12.3559 13.0884 11.9982C13.0884 11.6404 13.385 11.3438 13.7428 11.3438H15.4879C15.8457 11.3438 16.1423 11.6404 16.1423 11.9982C16.1423 12.3559 15.8457 12.6526 15.4879 12.6526Z" fill="#191919"/>
<path d="M6.32652 8.5417C5.09622 8.5417 4.09277 7.53826 4.09277 6.30797C4.09277 5.07766 5.09622 4.07422 6.32652 4.07422C7.55683 4.07422 8.56024 5.07766 8.56024 6.30797C8.56024 7.53826 7.55683 8.5417 6.32652 8.5417ZM6.32652 5.38306C5.82044 5.38306 5.40161 5.80188 5.40161 6.30797C5.40161 6.81403 5.82044 7.23286 6.32652 7.23286C6.83261 7.23286 7.25143 6.81403 7.25143 6.30797C7.25143 5.80188 6.83261 5.38306 6.32652 5.38306Z" fill="#191919"/>
<path d="M9.37963 12.9395C9.04806 12.9395 8.76012 12.6865 8.72521 12.3462C8.62923 11.4038 7.87011 10.6447 6.91903 10.5574C6.51765 10.5225 6.11627 10.5225 5.7149 10.5574C4.76381 10.6447 4.00468 11.3951 3.9087 12.3462C3.8738 12.7039 3.55095 12.9744 3.1932 12.9308C2.83546 12.8959 2.57369 12.5731 2.60859 12.2153C2.76565 10.6447 4.01341 9.39694 5.59274 9.25733C6.07265 9.2137 6.56128 9.2137 7.04119 9.25733C8.61178 9.40567 9.86826 10.6534 10.0253 12.2153C10.0602 12.5731 9.79846 12.8959 9.44071 12.9308C9.42326 12.9395 9.39708 12.9395 9.37963 12.9395Z" fill="#191919"/>
</svg>
