<svg width="21" height="21" viewBox="0 0 21 21" fill="none" xmlns="http://www.w3.org/2000/svg">
<g clip-path="url(#clip0_2264_1284)">
<path d="M19.6875 0.326172H1.3125C0.771094 0.326172 0.328125 0.769141 0.328125 1.31055V15.748C0.328125 16.2895 0.771094 16.7324 1.3125 16.7324H4.04578C4.22625 16.7324 4.37391 16.5848 4.37391 16.4043C4.37391 16.2238 4.22625 16.0762 4.04578 16.0762H1.3125C1.13203 16.0762 0.984375 15.9285 0.984375 15.748V4.26367H20.0156V15.748C20.0156 15.9285 19.868 16.0762 19.6875 16.0762H16.9542C16.7738 16.0762 16.6261 16.2238 16.6261 16.4043C16.6261 16.5848 16.7738 16.7324 16.9542 16.7324H19.6875C20.2289 16.7324 20.6719 16.2895 20.6719 15.748V1.31055C20.6719 0.769141 20.2289 0.326172 19.6875 0.326172ZM0.984375 3.60742V1.31055C0.984375 1.13008 1.13203 0.982422 1.3125 0.982422H19.6875C19.868 0.982422 20.0156 1.13008 20.0156 1.31055V3.60742H0.984375ZM3.60938 2.29492C3.60938 2.47539 3.46172 2.62305 3.28125 2.62305H2.29688C2.11641 2.62305 1.96875 2.47539 1.96875 2.29492C1.96875 2.11445 2.11641 1.9668 2.29688 1.9668H3.28125C3.46172 1.9668 3.60938 2.11445 3.60938 2.29492ZM6.23438 2.29492C6.23438 2.47539 6.08672 2.62305 5.90625 2.62305H4.92188C4.74141 2.62305 4.59375 2.47539 4.59375 2.29492C4.59375 2.11445 4.74141 1.9668 4.92188 1.9668H5.90625C6.08672 1.9668 6.23438 2.11445 6.23438 2.29492ZM8.85938 2.29492C8.85938 2.47539 8.71172 2.62305 8.53125 2.62305H7.54688C7.36641 2.62305 7.21875 2.47539 7.21875 2.29492C7.21875 2.11445 7.36641 1.9668 7.54688 1.9668H8.53125C8.71172 1.9668 8.85938 2.11445 8.85938 2.29492ZM14.6573 5.57617H6.34266C5.80125 5.57617 5.35828 6.01914 5.35828 6.56055V19.6855C5.35828 20.227 5.80125 20.6699 6.34266 20.6699H14.6541C15.1955 20.6699 15.6384 20.227 15.6384 19.6855V6.56055C15.6384 6.01914 15.1955 5.57617 14.6541 5.57617H14.6573ZM6.34594 6.23242H14.6573C14.8378 6.23242 14.9855 6.38008 14.9855 6.56055V17.0605H6.01453V6.56055C6.01453 6.38008 6.16219 6.23242 6.34266 6.23242H6.34594ZM8.42297 17.7168H12.5803V18.2648C12.5803 18.4452 12.4327 18.5929 12.2522 18.5929H8.75109C8.57063 18.5929 8.42297 18.4452 8.42297 18.2648V17.7168ZM14.6573 20.0137H6.34266C6.16219 20.0137 6.01453 19.866 6.01453 19.6855V17.7168H7.76344V18.2648C7.76344 18.8062 8.20641 19.2491 8.74781 19.2491H12.2489C12.7903 19.2491 13.2333 18.8062 13.2333 18.2648V17.7168H14.9822V19.6855C14.9822 19.866 14.8345 20.0137 14.6541 20.0137H14.6573ZM8.67563 14.872L10.3556 15.712C10.4016 15.7349 10.4508 15.748 10.5033 15.748C10.5558 15.748 10.605 15.7349 10.6509 15.712L12.3309 14.872C12.9905 14.5438 13.3973 13.881 13.3973 13.1427V8.19789C13.3973 8.01742 13.2497 7.86977 13.0692 7.86977H12.2686C12.1603 7.86977 12.0586 7.92555 11.9963 8.01414C11.9963 8.01414 11.7567 8.35211 11.4647 8.35211C11.1727 8.35211 10.8347 8.06664 10.733 7.9682C10.605 7.84024 10.3983 7.84024 10.2703 7.9682C10.1686 8.06664 9.8175 8.35539 9.53859 8.35539C9.25969 8.35539 9.01031 8.0207 9.01031 8.0207C8.94797 7.92883 8.84625 7.87305 8.73797 7.87305H7.93734C7.75688 7.87305 7.60922 8.0207 7.60922 8.20117V13.146C7.60922 13.8843 8.01938 14.5438 8.67563 14.8752V14.872ZM8.26547 8.5293H8.58375C8.75109 8.71633 9.08578 9.01164 9.54188 9.01164C9.92578 9.01164 10.2802 8.80164 10.5033 8.63102C10.7264 8.79836 11.0841 9.01164 11.4647 9.01164C11.9208 9.01164 12.2555 8.71633 12.4228 8.5293H12.7411V13.146C12.7411 13.6316 12.472 14.0713 12.0356 14.2879L10.5033 15.0557L8.97094 14.2879C8.53453 14.0713 8.26547 13.6316 8.26547 13.146V8.5293ZM8.96109 12.0435C8.83313 11.9155 8.83313 11.7088 8.96109 11.5809C9.08906 11.4529 9.29578 11.4529 9.42375 11.5809L10.1752 12.3323L11.5828 10.9246C11.7108 10.7966 11.9175 10.7966 12.0455 10.9246C12.1734 11.0526 12.1734 11.2593 12.0455 11.3873L10.4048 13.0279C10.3392 13.0935 10.2572 13.123 10.1719 13.123C10.0866 13.123 10.0045 13.0902 9.93891 13.0279L8.95453 12.0435H8.96109Z" fill="#191919"/>
</g>
<defs>
<clipPath id="clip0_2264_1284">
<rect width="21" height="21" fill="white"/>
</clipPath>
</defs>
</svg>
