<svg width="20" height="20" viewBox="0 0 20 20" fill="none" xmlns="http://www.w3.org/2000/svg">
<g clip-path="url(#clip0_2195_293)">
<path d="M18.4 5.2101V3.6801C18.399 3.4628 18.3128 3.25456 18.16 3.1001C18.0049 2.94816 17.7971 2.86214 17.58 2.8601H17.12C15.983 2.86163 14.855 2.65839 13.79 2.2601C12.5791 1.80975 11.4755 1.11152 10.55 0.210098C10.3982 0.0758293 10.2026 0.00170898 10 0.00170898C9.79738 0.00170898 9.60175 0.0758293 9.45 0.210098C8.52541 1.11511 7.42179 1.8168 6.21 2.2701C5.14502 2.66839 4.01702 2.87163 2.88 2.8701H2.42C2.20292 2.87214 1.99506 2.95816 1.84 3.1101C1.68716 3.26456 1.60099 3.4728 1.6 3.6901V5.2201C1.51 10.2201 1.38 17.0601 9.73 19.9501C9.81616 19.9832 9.90769 20.0002 10 20.0001C10.0889 19.999 10.177 19.9821 10.26 19.9501C18.64 17.0501 18.5 10.2001 18.4 5.2101ZM10 18.3701C3 15.8101 3.1 10.1801 3.2 5.2101V4.4301C5.69507 4.38247 8.09713 3.47463 10 1.8601C11.9011 3.47105 14.2987 4.37855 16.79 4.4301V5.2101C16.93 10.1701 17.1 15.7801 10 18.3701Z" fill="#191919"/>
<path d="M12.87 7.30009C12.7669 7.30125 12.6651 7.32308 12.5707 7.36431C12.4762 7.40553 12.3909 7.46531 12.32 7.54009L9.05 10.8201L7.68 9.46009C7.53148 9.31157 7.33004 9.22813 7.12 9.22813C6.90996 9.22813 6.70852 9.31157 6.56 9.46009C6.41148 9.60861 6.32804 9.81005 6.32804 10.0201C6.32804 10.2301 6.41148 10.4316 6.56 10.5801L8.49 12.4701C8.56364 12.5434 8.651 12.6014 8.74709 12.6409C8.84319 12.6803 8.94612 12.7005 9.05 12.7001C9.15388 12.7005 9.25681 12.6803 9.35291 12.6409C9.449 12.6014 9.53636 12.5434 9.61 12.4701L13.44 8.63009C13.5793 8.48058 13.6578 8.28443 13.66 8.08009C13.658 7.86974 13.5798 7.66725 13.44 7.51009C13.2839 7.3697 13.0799 7.29454 12.87 7.30009Z" fill="#191919"/>
</g>
<defs>
<clipPath id="clip0_2195_293">
<rect width="16.84" height="20" fill="white" transform="translate(1.58)"/>
</clipPath>
</defs>
</svg>
