<svg width="14" height="15" viewBox="0 0 14 15" fill="none" xmlns="http://www.w3.org/2000/svg">
<path opacity="0.9" d="M8.1818 0.5C8.69977 0.500108 9.15021 0.879197 9.21989 1.40137L9.3859 2.55664C9.52383 2.62839 9.659 2.70691 9.79118 2.79199L10.882 2.35547L10.8957 2.34961C11.4069 2.16133 11.9361 2.37665 12.1818 2.81348H12.1828L13.3605 4.85156L13.3664 4.8623V4.86328C13.6113 5.3131 13.5139 5.87797 13.1037 6.20215L13.1017 6.20312L12.1789 6.92383C12.1829 6.99967 12.1867 7.07923 12.1867 7.16113C12.1867 7.24292 12.183 7.32211 12.1789 7.39746L13.1007 8.11816L13.1037 8.12012C13.5103 8.443 13.6138 9.00641 13.3683 9.45508L13.3634 9.46582L12.1847 11.5029L12.1857 11.5039C12.0041 11.8365 11.6505 12.042 11.2716 12.042C11.1394 12.0419 11.0109 12.0178 10.8898 11.9707L10.8849 11.9688L9.7902 11.5293C9.65679 11.6152 9.52235 11.6926 9.38688 11.7637L9.22086 12.9258L9.21989 12.9248C9.15081 13.4458 8.69774 13.8232 8.1818 13.8232H5.82047C5.29797 13.8232 4.84472 13.4387 4.77946 12.9111V12.9102L4.61442 11.7646C4.47677 11.6929 4.34201 11.6142 4.21012 11.5293L3.12028 11.9678L3.11344 11.9697L3.10661 11.9727C2.59095 12.162 2.0641 11.9438 1.8195 11.5078L0.641762 9.4707L0.635902 9.45996C0.390656 9.01068 0.487837 8.44594 0.897621 8.12109L0.900551 8.11914L1.82145 7.39746C1.81702 7.31661 1.81559 7.23799 1.81559 7.16113C1.8156 7.08416 1.817 7.00579 1.82145 6.9248L0.901527 6.20508L0.898598 6.20312C0.490489 5.87969 0.379145 5.30122 0.643715 4.84961H0.642738L1.82243 2.80957C2.0578 2.39006 2.56671 2.19439 3.02067 2.32227L3.11735 2.35449L4.2111 2.79297C4.34431 2.70719 4.47884 2.62964 4.61442 2.55859L4.78141 1.39746C4.85069 0.877447 5.3032 0.500088 5.8195 0.5H8.1818ZM7.00016 5.60742C6.14395 5.60767 5.44665 6.30491 5.44645 7.16113C5.44645 8.01752 6.14383 8.7146 7.00016 8.71484C7.8567 8.71484 8.55485 8.01767 8.55485 7.16113C8.55465 6.30476 7.85658 5.60742 7.00016 5.60742Z" stroke="#191919"/>
</svg>
