<svg id="Outline" height="512" viewBox="0 0 512 512" width="512" xmlns="http://www.w3.org/2000/svg"><path d="m64 96h384v232h16v-280a32.036 32.036 0 0 0 -32-32h-352a32.036 32.036 0 0 0 -32 32v336h16zm16-64h352a16.019 16.019 0 0 1 16 16v32h-384v-32a16.019 16.019 0 0 1 16-16z"/><path d="m64 448v-16h-16v16a32.036 32.036 0 0 0 32 32h280.145v-16h-280.145a16.019 16.019 0 0 1 -16-16z"/><path d="m80 48h16v16h-16z"/><path d="m112 48h16v16h-16z"/><path d="m144 48h16v16h-16z"/><path d="m442.343 378.343-18.343 18.343-18.343-18.343-11.314 11.314 18.343 18.343-18.343 18.343 11.314 11.314 18.343-18.343 18.343 18.343 11.314-11.314-18.343-18.343 18.343-18.343z"/><path d="m424 336a72.1 72.1 0 0 0 -71.545 64h-48.455v16h48.455a72 72 0 1 0 71.545-80zm0 128a56 56 0 1 1 56-56 56.063 56.063 0 0 1 -56 56z"/><path d="m16 400h56v16h-56z"/><path d="m88 400h56v16h-56z"/><path d="m160 400h56v16h-56z"/><path d="m232 400h56v16h-56z"/><path d="m104 128v16h-8a8 8 0 0 0 -8 8v32a8 8 0 0 0 8 8h8v16h16v-16h8a8 8 0 0 0 8-8v-32a8 8 0 0 0 -8-8h-8v-16zm16 48h-16v-16h16z"/><path d="m168 120v24h-8a8 8 0 0 0 -8 8v64a8 8 0 0 0 8 8h8v16h16v-16h8a8 8 0 0 0 8-8v-64a8 8 0 0 0 -8-8h-8v-24zm16 88h-16v-48h16z"/><path d="m232 152v16h-8a8 8 0 0 0 -8 8v40a8 8 0 0 0 8 8h8v16h16v-16h8a8 8 0 0 0 8-8v-40a8 8 0 0 0 -8-8h-8v-16zm16 56h-16v-24h16z"/><path d="m320 376a8 8 0 0 0 8-8v-192a8 8 0 0 0 -8-8h-8v-24h-16v24h-8a8 8 0 0 0 -8 8v192a8 8 0 0 0 8 8zm-24-192h16v176h-16z"/><path d="m432 320v-200h-16v16h-16v16h16v16h-16v16h16v16h-32v16h32v16h-16v16h16v16h-16v16h16v40z"/></svg>