<svg width="20" height="20" viewBox="0 0 20 20" fill="none" xmlns="http://www.w3.org/2000/svg">
<g clip-path="url(#clip0_2195_288)">
<path d="M16.255 8.3891e-05L8.645 1.00008C8.49795 1.01984 8.36119 1.08647 8.255 1.19008C8.19136 1.25273 8.14088 1.32746 8.10653 1.40989C8.07219 1.49232 8.05467 1.58078 8.055 1.67008C8.0541 1.75947 8.07136 1.8481 8.10574 1.93061C8.14012 2.01312 8.1909 2.08779 8.255 2.15008L9.575 3.48008L5.275 7.78008C5.20723 7.84454 5.15326 7.9221 5.11639 8.00805C5.07951 8.094 5.0605 8.18655 5.0605 8.28008C5.0605 8.37361 5.07951 8.46617 5.11639 8.55212C5.15326 8.63807 5.20723 8.71563 5.275 8.78008L6.925 10.4301C6.99066 10.4957 7.06861 10.5478 7.1544 10.5834C7.24019 10.6189 7.33214 10.6372 7.425 10.6372C7.51786 10.6372 7.60981 10.6189 7.6956 10.5834C7.78139 10.5478 7.85934 10.4957 7.925 10.4301C7.99066 10.3644 8.04275 10.2865 8.07828 10.2007C8.11382 10.1149 8.13211 10.0229 8.13211 9.93008C8.13211 9.83723 8.11382 9.74528 8.07828 9.65949C8.04275 9.5737 7.99066 9.49574 7.925 9.43008L6.715 8.26008L10.995 4.00008C11.0641 3.9364 11.1192 3.8591 11.1569 3.77304C11.1947 3.68698 11.2141 3.59404 11.2141 3.50008C11.2141 3.40613 11.1947 3.31319 11.1569 3.22713C11.1192 3.14107 11.0641 3.06376 10.995 3.00008L10.165 2.17008L15.525 1.46008L14.815 6.82008L13.995 6.00008C13.9313 5.931 13.854 5.87586 13.768 5.83814C13.6819 5.80042 13.589 5.78095 13.495 5.78095C13.401 5.78095 13.3081 5.80042 13.222 5.83814C13.136 5.87586 13.0587 5.931 12.995 6.00008L6.465 12.5701L5.135 11.2401C5.00303 11.1198 4.83335 11.0491 4.655 11.0401C4.4921 11.0451 4.33605 11.1067 4.21374 11.2144C4.09143 11.3221 4.01053 11.4691 3.985 11.6301L2.985 19.2301C2.97493 19.2897 2.97493 19.3505 2.985 19.4101C3.00867 19.5719 3.08902 19.72 3.21173 19.828C3.33443 19.9361 3.49153 19.9971 3.655 20.0001H3.745L11.345 19.0001C11.492 18.9803 11.6288 18.9137 11.735 18.8101C11.8041 18.7464 11.8592 18.6691 11.8969 18.583C11.9347 18.497 11.9541 18.404 11.9541 18.3101C11.9541 18.2161 11.9347 18.1232 11.8969 18.0371C11.8592 17.9511 11.8041 17.8738 11.735 17.8101L10.415 16.4901L14.715 12.1901C14.7828 12.1256 14.8367 12.0481 14.8736 11.9621C14.9105 11.8762 14.9295 11.7836 14.9295 11.6901C14.9295 11.5966 14.9105 11.504 14.8736 11.418C14.8367 11.3321 14.7828 11.2545 14.715 11.1901L13.055 9.60008C12.9278 9.47246 12.7552 9.40053 12.575 9.40008C12.4853 9.40004 12.3965 9.41801 12.3139 9.45293C12.2313 9.48784 12.1565 9.53899 12.094 9.60334C12.0315 9.66769 11.9826 9.74393 11.9501 9.82754C11.9177 9.91115 11.9023 10.0004 11.905 10.0901C11.9047 10.1794 11.9222 10.2678 11.9565 10.3503C11.9909 10.4327 12.0414 10.5074 12.105 10.5701L13.275 11.7401L8.995 16.0001C8.92993 16.0616 8.87851 16.1362 8.84405 16.2189C8.8096 16.3015 8.79289 16.3905 8.795 16.4801C8.78908 16.576 8.80388 16.6721 8.83839 16.7619C8.8729 16.8516 8.92631 16.9328 8.995 17.0001L9.825 17.8301L4.465 18.5301L5.175 13.1801L5.995 14.0001C6.05868 14.0692 6.13599 14.1243 6.22204 14.162C6.3081 14.1997 6.40104 14.2192 6.495 14.2192C6.58896 14.2192 6.6819 14.1997 6.76796 14.162C6.85401 14.1243 6.93132 14.0692 6.995 14.0001L13.575 7.42008L14.895 8.74008C15.027 8.86654 15.2022 8.93804 15.385 8.94008C15.537 8.92593 15.6799 8.86102 15.7905 8.75581C15.9012 8.6506 15.9732 8.51121 15.995 8.36008L16.995 0.760084C17.0051 0.700506 17.0051 0.639661 16.995 0.580084C16.9657 0.4088 16.8736 0.254555 16.7369 0.147353C16.6001 0.0401512 16.4283 -0.0123421 16.255 8.3891e-05Z" fill="#191919"/>
</g>
<defs>
<clipPath id="clip0_2195_288">
<rect width="14.03" height="20" fill="white" transform="translate(2.985)"/>
</clipPath>
</defs>
</svg>
