<svg width="103" height="91" viewBox="0 0 103 91" fill="none" xmlns="http://www.w3.org/2000/svg">
<path fill-rule="evenodd" clip-rule="evenodd" d="M55.3883 3.66069C55.5952 3.72847 55.8024 3.79625 56.0674 3.88279C55.6677 3.92281 55.6677 3.92281 55.3883 3.66069ZM68.179 5.38159C68.5529 5.20745 68.9367 5.10361 69.3526 5.23287C68.9614 5.28244 68.5702 5.33202 68.179 5.38159ZM56.8566 3.57271C57.2657 2.81988 57.6864 2.08093 58.2626 1.44997C58.8479 0.809273 59.5377 0.327578 60.4075 0.157759C61.0354 0.0351714 61.7736 0.354799 62.0686 0.877598C61.9426 0.794671 61.8371 0.72184 61.7284 0.654056C61.0181 0.212202 59.9748 0.120802 59.2231 0.982878C59.0435 1.18893 58.8728 1.4031 58.7075 1.62051C58.4723 1.92986 58.2575 2.25526 58.0129 2.55686C57.6879 2.95743 57.345 3.34412 56.8566 3.57271ZM62.6107 14.4123C62.7477 14.373 62.8261 14.3415 62.9072 14.3287C63.6638 14.2095 64.3016 13.8455 64.8147 13.3011C65.227 12.8634 65.5771 12.3651 65.9376 11.8812C66.1179 11.6395 66.2481 11.3611 66.4213 11.1136C66.9383 10.375 67.9362 9.98114 68.8372 10.1347C68.5644 10.3909 68.2592 10.6355 68.0072 10.9263C67.7442 11.2294 67.5314 11.5762 67.2985 11.9052C67.1237 12.1524 66.958 12.406 66.777 12.6483C66.3503 13.22 65.8324 13.6953 65.2333 14.0835C64.7904 14.3705 64.311 14.5601 63.7848 14.6092C63.4019 14.645 63.0192 14.6427 62.6107 14.4123ZM53.6045 12.0521C54.3658 12.119 54.9931 11.8519 55.5689 11.4423C55.8417 11.2485 55.9057 11.0942 55.7847 11.0071C55.5808 10.8603 55.4887 11.0869 55.3465 11.1564C54.9731 11.3386 54.6057 11.543 54.2143 11.675C53.7986 11.8153 53.5479 11.6667 53.3429 11.269C52.8444 10.302 52.6959 9.24579 52.5562 8.18758C52.53 7.98801 52.5248 7.78556 52.5041 7.58492C52.4213 6.78341 52.9126 6.07529 53.6908 5.93053C54.3111 5.81516 54.9271 5.87843 55.5148 6.11946C56.1806 6.3924 56.5091 6.92187 56.6084 7.6116C56.6576 7.95358 56.6902 8.29827 56.7382 8.64043C56.7573 8.77564 56.7348 8.97358 56.9251 8.97592C57.0165 8.977 57.1196 8.84162 57.1995 8.75202C57.29 8.65052 57.3607 8.531 57.4386 8.42121C57.7737 8.63736 57.8548 8.87803 57.6753 9.15602C57.5866 9.29284 57.4422 9.43941 57.2942 9.48232C56.9635 9.57822 56.9107 9.79311 56.9469 10.0765C57.0614 10.9757 57.1696 11.876 57.2988 12.7732C57.3747 13.2998 57.4849 13.8215 57.5828 14.3451C57.6012 14.4433 57.6199 14.5466 57.6664 14.6324C57.6936 14.6827 57.7811 14.7354 57.8328 14.7274C57.8853 14.7195 57.9632 14.6409 57.966 14.5897C57.9733 14.4637 57.9489 14.3346 57.9276 14.2084C57.8707 13.8677 57.8123 13.5272 57.7474 13.1882C57.707 12.9777 57.7883 12.8363 57.9513 12.7064C58.5316 12.2427 59.1166 12.254 59.6572 12.764C59.8456 12.9416 60.0185 13.1363 60.1919 13.3288C60.6889 13.8799 61.2635 14.2885 62.0291 14.3652C62.1261 14.375 62.2252 14.4134 62.313 14.4585C63.2106 14.9187 64.0986 14.8325 64.9669 14.3916C65.7922 13.9724 66.452 13.3541 66.9872 12.6034C67.2298 12.2636 67.4327 11.8933 67.6932 11.5685C68.0067 11.1776 68.3358 10.7904 68.7099 10.4599C68.9376 10.2586 69.2487 10.1017 69.5464 10.0381C70.5621 9.82123 71.0966 9.16575 71.3446 8.21228C71.4998 7.61538 71.5217 7.01705 71.327 6.42485C71.1561 5.90529 70.8114 5.5671 70.31 5.31886C69.4934 4.91432 68.7005 4.97165 67.8857 5.27072C67.2733 5.49553 66.6503 5.64912 65.987 5.61343C65.4303 5.5835 64.9771 5.35329 64.6494 4.92387C64.3892 4.58297 64.1709 4.2053 63.9723 3.82384C63.7266 3.35169 63.5486 2.84314 63.2898 2.37893C62.9896 1.84009 62.6772 1.29764 62.2921 0.819188C61.6168 -0.0198125 60.7275 -0.202792 59.73 0.217249C58.9384 0.550759 58.3082 1.09375 57.8096 1.78168C57.4633 2.25923 57.1535 2.76346 56.8348 3.26066C56.5009 3.78165 56.3648 3.82924 55.7651 3.63905C55.2448 3.4741 54.7144 3.33944 54.199 3.16042C52.9484 2.72578 51.4909 3.99383 51.591 5.27253C51.6306 5.78162 51.7518 6.2635 51.9683 6.72681C52.0449 6.8905 52.104 7.0769 52.112 7.25555C52.1482 8.09311 52.2636 8.91769 52.4325 9.73812C52.5672 10.3929 52.7651 11.0242 53.1062 11.5973C53.2333 11.8111 53.2309 11.9867 53.1673 12.2048C52.9526 12.9369 52.7491 13.6725 52.5464 14.408C52.5071 14.5511 52.395 14.7561 52.6167 14.8103C52.8259 14.8615 52.8399 14.6268 52.8816 14.4869C53.0898 13.7828 53.287 13.0756 53.4903 12.37C53.5177 12.2741 53.5576 12.1818 53.6045 12.0521Z" fill="black"/>
<path fill-rule="evenodd" clip-rule="evenodd" d="M53.8679 8.01324L53.5924 9.103L53.9942 9.1432L53.8679 8.01324Z" fill="black"/>
<path fill-rule="evenodd" clip-rule="evenodd" d="M53.8671 8.0237L53.9919 9.14087L53.5947 9.10121L53.8671 8.0237ZM53.9942 9.14501C53.9946 9.14501 53.9951 9.14483 53.9955 9.14447C53.9958 9.14393 53.996 9.14339 53.996 9.14285L53.8698 8.01288C53.8696 8.01198 53.8689 8.01126 53.868 8.01126C53.8671 8.01126 53.8662 8.0118 53.866 8.01252L53.5906 9.10229C53.5904 9.10283 53.5906 9.10355 53.5908 9.10391C53.5911 9.10445 53.5917 9.10463 53.5922 9.10481L53.9938 9.14501H53.9942Z" fill="black"/>
<path fill-rule="evenodd" clip-rule="evenodd" d="M54.1853 7.21334C54.1853 7.21334 54.1688 7.54703 54.2427 7.61698C54.5527 7.58273 55.2508 7.69792 55.6009 7.85242C55.4631 7.53279 54.1853 7.21334 54.1853 7.21334Z" fill="black"/>
<path fill-rule="evenodd" clip-rule="evenodd" d="M54.1873 7.21541C54.2166 7.22298 54.5229 7.3014 54.8409 7.41443C55.2759 7.56947 55.537 7.71928 55.5972 7.84836C55.2558 7.69945 54.5628 7.57975 54.2435 7.6149C54.1748 7.54802 54.186 7.24516 54.1873 7.21541ZM55.601 7.85413C55.6015 7.85413 55.6019 7.85376 55.6022 7.8534C55.603 7.85286 55.603 7.85214 55.6028 7.85124C55.5455 7.71838 55.2895 7.57019 54.8422 7.41101C54.5092 7.29257 54.1891 7.21198 54.186 7.21126C54.1853 7.21108 54.1847 7.21126 54.1844 7.21162C54.1838 7.2118 54.1835 7.21235 54.1835 7.21289C54.1829 7.22659 54.1676 7.54838 54.2415 7.61815C54.2419 7.61851 54.2426 7.61887 54.2431 7.61869C54.563 7.58317 55.2604 7.70414 55.6001 7.85395C55.6004 7.85395 55.6006 7.85413 55.601 7.85413Z" fill="black"/>
<path fill-rule="evenodd" clip-rule="evenodd" d="M54.7196 8.70635C54.8195 8.71248 54.919 8.69391 55.0118 8.66326C54.9776 8.67336 54.941 8.67895 54.9029 8.67895C54.7131 8.67895 54.5586 8.54338 54.5586 8.37698C54.5586 8.30992 54.6107 8.2297 54.6599 8.17417C54.4165 8.19653 54.2029 8.32326 54.1241 8.37536C54.1946 8.45901 54.4142 8.6876 54.7196 8.70635ZM55.2381 8.29406C55.2436 8.32272 55.2471 8.35409 55.2471 8.37698C55.2471 8.49777 55.1658 8.60215 55.0488 8.65028C55.2278 8.58394 55.376 8.47722 55.4392 8.42746C55.4025 8.39609 55.3338 8.34345 55.2381 8.29406ZM54.0457 8.3366C54.0585 8.32705 54.3639 8.09882 54.7225 8.09413C55.2153 8.08854 55.5126 8.3896 55.5252 8.4024C55.5324 8.40979 55.5362 8.42007 55.5359 8.43053C55.5355 8.4408 55.5308 8.45072 55.5231 8.45757C55.5074 8.47145 55.1492 8.78405 54.7589 8.78405C54.7443 8.78405 54.7295 8.7835 54.7149 8.7826C54.3055 8.75718 54.0484 8.40439 54.0376 8.38942C54.0255 8.37248 54.0291 8.34922 54.0457 8.3366Z" fill="black"/>
<path fill-rule="evenodd" clip-rule="evenodd" d="M53.0393 8.62965C53.1269 8.63578 53.2147 8.61433 53.2951 8.5808C53.2812 8.5835 53.2672 8.58531 53.2531 8.58531C53.1 8.58531 52.9758 8.46092 52.9758 8.30804C52.9758 8.24116 52.9993 8.17843 53.0415 8.12885C53.0245 8.12777 53.0072 8.12723 52.9899 8.12723H52.9897C52.7968 8.12723 52.6202 8.26334 52.5583 8.31688C52.6133 8.39313 52.7916 8.61181 53.0393 8.62965ZM53.6167 8.36988C53.5967 8.35275 53.5666 8.32878 53.5278 8.30246C53.5203 8.36663 53.4927 8.43117 53.4491 8.48363C53.4373 8.49805 53.4247 8.51049 53.4116 8.52185C53.5044 8.46705 53.5783 8.40467 53.6167 8.36988ZM52.481 8.28371C52.4907 8.27415 52.7191 8.05079 52.9897 8.05079H52.9899C53.4087 8.05079 53.6885 8.33058 53.7002 8.34248C53.7148 8.35726 53.7148 8.38106 53.7004 8.39602C53.6969 8.39944 53.6176 8.48039 53.4967 8.55917C53.3461 8.65742 53.203 8.70717 53.0708 8.70717C53.0584 8.70717 53.0461 8.70681 53.0339 8.70591C52.6953 8.68157 52.4842 8.34518 52.4754 8.33094C52.466 8.3158 52.4684 8.29615 52.481 8.28371Z" fill="black"/>
<path fill-rule="evenodd" clip-rule="evenodd" d="M53.654 7.21276C53.654 7.21276 53.6708 7.54645 53.5967 7.6164C53.2868 7.58215 52.7876 7.66435 52.4375 7.81867C52.5752 7.49922 53.654 7.21276 53.654 7.21276Z" fill="black"/>
<path fill-rule="evenodd" clip-rule="evenodd" d="M53.4418 7.60696C53.1328 7.60696 52.7315 7.68809 52.4411 7.81518C52.5006 7.6861 52.7273 7.54206 53.098 7.39784C53.3675 7.2931 53.6251 7.22261 53.6521 7.2154C53.6532 7.24533 53.6644 7.54783 53.5957 7.61471C53.5481 7.60949 53.4964 7.60696 53.4418 7.60696ZM52.4375 7.82095L52.4382 7.82077C52.7798 7.67024 53.2775 7.58317 53.5963 7.6185C53.5968 7.61868 53.5973 7.61832 53.5977 7.61814C53.6289 7.58857 53.648 7.5116 53.6549 7.38865C53.6599 7.29743 53.6558 7.2136 53.6558 7.2127C53.6558 7.21234 53.6554 7.2118 53.655 7.21144C53.6545 7.21108 53.654 7.2109 53.6532 7.21108C53.6507 7.2118 53.3803 7.28391 53.0965 7.39424C52.8344 7.49627 52.507 7.65257 52.4357 7.81824C52.4353 7.81897 52.4355 7.81987 52.436 7.82041C52.4364 7.82077 52.4369 7.82095 52.4375 7.82095Z" fill="black"/>
<path fill-rule="evenodd" clip-rule="evenodd" d="M54.5259 9.54809C54.3354 9.72836 54.1805 9.8286 53.9224 9.84572C53.6642 9.86303 53.4834 9.76856 53.4834 9.76856C53.4834 9.76856 53.69 10.1192 53.9397 10.1843C54.456 10.3193 54.4316 9.91423 54.5259 9.54809Z" fill="black"/>
<path fill-rule="evenodd" clip-rule="evenodd" d="M54.5223 9.55436C54.5076 9.61205 54.4958 9.67082 54.4845 9.7276C54.447 9.91365 54.4117 10.0896 54.2878 10.1668C54.2067 10.2176 54.0929 10.2228 53.9401 10.1828C53.7111 10.1229 53.516 9.81846 53.4883 9.77339C53.5216 9.78926 53.6924 9.86317 53.9224 9.84803C54.182 9.83054 54.3345 9.73139 54.5223 9.55436ZM54.1202 10.2131C54.1878 10.2131 54.244 10.1987 54.2898 10.17C54.4151 10.0918 54.4506 9.91527 54.4883 9.72832C54.5 9.66956 54.5122 9.60862 54.5276 9.54895C54.5279 9.54805 54.5274 9.54733 54.5267 9.54679C54.5261 9.54643 54.525 9.54643 54.5245 9.54715C54.3349 9.72634 54.1829 9.82676 53.922 9.84406C53.6673 9.86119 53.4859 9.76817 53.4841 9.76726C53.4832 9.76672 53.4823 9.7669 53.482 9.76762C53.4813 9.76817 53.4813 9.76907 53.4816 9.76979C53.4836 9.77339 53.6915 10.1217 53.939 10.1866C54.0068 10.2041 54.067 10.2131 54.1202 10.2131Z" fill="black"/>
<path fill-rule="evenodd" clip-rule="evenodd" d="M60.4699 89.5776C60.3731 89.5937 60.2637 89.6227 60.153 89.6281C59.766 89.647 59.3787 89.6623 58.9915 89.6694C58.8202 89.6723 58.645 89.6685 58.4782 89.6348C58.4081 89.6205 58.3551 89.5214 58.225 89.3916C58.7054 89.3544 59.086 89.3202 59.4672 89.2971C59.7393 89.2807 60.0122 89.2762 60.2848 89.2717C60.4789 89.2683 60.5413 89.3661 60.4699 89.5776ZM38.3182 45.3305C38.3633 44.8739 39.0518 43.7037 39.4385 43.4262C39.5447 43.957 38.8883 45.0725 38.3182 45.3305ZM100.037 64.9583C100.277 64.1218 100.692 63.3852 101.253 62.7316C101.373 62.5909 101.498 62.6142 101.62 62.7757C101.093 63.5022 100.565 64.2302 100.037 64.9583ZM35.9298 43.7661C35.5642 43.551 35.5173 43.4877 35.6853 43.2177C35.9574 42.7801 36.271 42.3686 36.5716 41.9491C36.5863 41.9285 36.6431 41.9377 36.7482 41.9247C36.5699 42.613 36.328 43.2211 35.9298 43.7661ZM36.3383 44.0136C36.7244 43.4093 37.1245 42.8364 37.6543 42.2974C37.7929 42.5808 37.7221 42.7828 37.6188 42.9696C37.4729 43.2328 37.3152 43.4902 37.1465 43.739C37.0592 43.8674 36.9422 43.9777 36.8294 44.0861C36.6794 44.2305 36.5267 44.2312 36.3383 44.0136ZM87.4643 31.3301C87.4404 31.3514 87.4166 31.3725 87.3926 31.3934C86.2457 30.7985 85.2026 30.0408 84.1476 29.2937C84.2637 29.3004 84.3667 29.3348 84.4653 29.379C84.9243 29.5843 85.373 29.8176 85.8431 29.993C86.4463 30.2182 86.875 30.6573 87.3131 31.0913C87.3785 31.156 87.4146 31.2499 87.4643 31.3301ZM38.5851 42.7965C38.7606 42.9029 38.794 43.0579 38.7266 43.2391C38.4772 43.9087 38.1185 44.5009 37.513 44.9112C37.4376 44.9624 37.344 44.9869 37.2499 45.028C37.2041 44.6027 38.0107 43.2777 38.5851 42.7965ZM82.8844 28.8317C83.4568 29.4232 84.2363 29.6795 84.534 30.4508C84.5612 30.5212 84.6598 30.562 84.7182 30.6233C85.0144 30.933 85.2066 31.2932 85.2922 31.803C85.1752 31.697 85.1206 31.6534 85.0726 31.6034C84.3778 30.8789 83.6883 30.149 82.9865 29.4309C82.8332 29.2741 82.8163 29.116 82.8844 28.8317ZM80.6133 25.3034C80.1684 26.1553 79.7477 26.961 79.3054 27.8074C79.0929 27.6377 78.9308 27.5085 78.7648 27.3758C79.0988 26.5173 79.5119 25.7526 79.9982 24.992C80.2157 25.1022 80.3916 25.1912 80.6133 25.3034ZM99.7155 66.8725L99.8648 66.8867C99.8523 67.1113 99.8536 67.3378 99.8246 67.5602C99.7688 67.9878 99.7032 68.4144 99.6286 68.8391C99.3708 70.3017 99.2625 71.7763 99.2583 73.26C99.2547 74.5255 99.2495 75.7911 99.2423 77.0568C99.2417 77.1644 99.2215 77.2717 99.2105 77.3793C99.1327 77.0865 99.0917 76.802 99.0872 76.5172C99.0468 73.9281 99.027 71.3386 99.3575 68.7636C99.4389 68.1285 99.5942 67.5025 99.7155 66.8725ZM39.4134 36.0997C40.306 36.8965 41.2899 37.3996 42.3427 37.864C42.2374 38.1056 42.144 38.3203 42.0398 38.5599C41.8459 38.4854 41.6914 38.4452 41.556 38.3706C41.002 38.0647 40.4469 37.7593 39.9056 37.4314C39.5791 37.234 39.2371 37.0358 39.1069 36.5935C39.1816 36.4732 39.2778 36.318 39.4134 36.0997ZM57.254 89.3243C53.5346 89.7043 49.8095 89.5289 46.0845 89.3651C46.4386 89.2396 56.9596 89.187 57.254 89.3243ZM63.8724 28.3945C64.7051 29.4838 65.7365 30.3956 66.5791 31.5245C65.3496 31.5375 62.7931 30.2555 62.1146 29.3114C62.6853 29.014 63.2541 28.717 63.8724 28.3945ZM54.9151 80.7097C56.53 80.6201 58.0966 80.8141 59.7178 80.8024C59.6753 81.3347 59.6362 81.8245 59.5952 82.3352C58.0306 82.3655 56.5423 82.1519 55.018 81.9808C54.9823 81.54 54.9504 81.146 54.9151 80.7097ZM63.3752 27.4591C63.6354 27.9893 63.6273 28.085 63.1362 28.3219C62.3859 28.6839 61.6275 29.0338 60.853 29.3392C58.49 30.2708 56.0171 30.8185 53.5492 31.3795C53.4657 31.3985 53.3783 31.4055 53.2923 31.4082C52.9274 31.4201 52.8084 31.2755 52.8544 30.8416C56.5592 30.3552 60.0302 29.0962 63.3752 27.4591ZM82.38 31.6847C82.3505 31.686 82.3209 31.6873 82.2912 31.6885C82.2373 31.5944 82.1688 31.5057 82.1318 31.4053C81.9281 30.8515 81.7136 30.3008 81.5385 29.7378C81.3375 29.0918 80.9953 28.5681 80.408 28.2148C80.2009 28.0902 80.004 27.9484 79.7796 27.7991C80.1041 27.0545 80.4718 26.3668 80.8967 25.6886C81.0959 25.7849 81.2531 25.8543 81.4044 25.9349C83.6596 27.1355 85.791 28.5324 87.864 30.021C87.9951 30.1149 88.0951 30.2523 88.2096 30.3693C88.1918 30.3999 88.1739 30.4304 88.1561 30.4608C87.9673 30.4127 87.7708 30.3842 87.5914 30.3127C87.0566 30.0994 86.5238 29.8793 85.9985 29.6438C85.013 29.2022 84.0332 28.7477 83.0508 28.2988C82.5115 28.0524 82.3948 28.1371 82.4348 28.7455C82.4359 28.76 82.4381 28.7742 82.4384 28.7886C82.4536 29.566 82.4759 30.3433 82.4785 31.1207C82.4792 31.3085 82.4146 31.4967 82.38 31.6847ZM59.7641 80.3594C59.3978 80.3776 59.0704 80.4158 58.7445 80.4059C57.5807 80.3708 56.4172 80.3201 55.2537 80.2722C55.1446 80.2675 55.0368 80.2394 54.9384 80.2237C54.8798 79.0461 54.8228 77.9039 54.7662 76.7667C55.3164 76.6313 59.6228 76.7323 60.007 76.8848C59.9273 78.0263 59.8474 79.1687 59.7641 80.3594ZM90.3523 62.1118C91.5836 60.649 92.3869 58.9768 93.5944 57.5699C94.4186 58.2088 95.145 58.883 95.8342 59.5978C95.9394 59.7071 96.0074 59.852 96.0874 59.9724C95.2205 61.377 94.4796 62.8251 93.5275 64.1956C92.4764 63.5057 91.4582 62.8374 90.3523 62.1118ZM42.0097 39.038C41.4759 40.4759 41.0808 42.023 39.8991 43.2348C39.7276 42.919 39.4819 42.8643 39.2065 42.9692C38.8133 42.3186 38.6534 42.2539 38.1609 42.5272C37.9507 41.829 37.792 41.7683 37.1744 42.1247C37.0779 41.8717 36.9797 41.6139 36.8712 41.3295C36.9772 41.198 37.1174 41.0347 37.2447 40.862C37.3195 40.7605 37.3395 40.6435 37.207 40.5651C37.092 40.4971 36.9847 40.5202 36.904 40.6305C36.8701 40.6769 36.8472 40.7315 36.8119 40.7764C36.5925 41.0533 36.3269 41.2752 35.9857 41.3772C35.5315 41.5132 35.2034 41.783 34.9817 42.2015C34.8813 42.3909 34.7477 42.5645 34.6165 42.7354C34.5269 42.8521 34.4155 42.9516 34.3138 43.0588C34.2851 43.0388 34.2568 43.0186 34.2283 42.9986C34.3066 42.8357 34.3754 42.6675 34.4643 42.5104C34.8034 41.9107 35.0897 41.2682 35.5088 40.7297C35.9469 40.1663 36.4935 39.6798 37.0323 39.2044C37.6318 38.6758 38.1619 38.0968 38.6 37.4301C38.6604 37.3385 38.7325 37.2545 38.7889 37.1806C39.3265 37.5197 39.8275 37.8581 40.3498 38.1591C40.883 38.4663 41.4372 38.7369 42.0097 39.038ZM98.6899 77.1125C98.4141 76.8718 98.2473 76.6207 98.1283 76.3501C97.9259 75.89 97.7321 75.4233 97.5776 74.9456C97.0726 73.3849 96.5778 71.8209 96.0981 70.2525C95.8626 69.482 95.6804 68.6954 95.4531 67.9224C95.2137 67.1079 94.8073 66.3865 94.1893 65.7916C93.9429 65.5541 93.7109 65.3021 93.457 65.0409C93.6568 64.7368 93.8555 64.4555 94.0327 64.1613C94.7386 62.9901 95.439 61.8154 96.1386 60.6404C96.305 60.3615 96.4743 60.0866 96.7242 59.8398C97.9302 61.0543 99.3367 61.8753 100.858 62.4397C100.375 63.3027 99.9134 64.126 99.4343 64.9814C99.4233 64.9803 99.3686 64.9738 99.314 64.9704C98.9412 64.9473 98.8579 65.0632 99.0254 65.3881C99.1242 65.5797 99.2302 65.7699 99.3537 65.9461C99.4721 66.1155 99.4775 66.2738 99.431 66.4728C99.267 67.173 99.0977 67.8739 98.9839 68.5833C98.6843 70.4517 98.7049 72.3422 98.6558 74.2263C98.6317 75.1596 98.6757 76.0948 98.6899 77.1125ZM46.1649 88.8385C46.2563 88.6079 46.4259 88.4772 46.5909 88.3492C47.2323 87.8502 47.9291 87.4514 48.7071 87.205C49.1737 87.0574 49.6408 86.911 50.1082 86.7666C51.088 86.4643 52.0341 86.0853 52.9232 85.5694C53.5053 85.2317 53.8962 84.7545 53.9982 84.0834C54.0649 83.6451 54.0831 83.1993 54.1179 82.7565C54.1277 82.6329 54.1195 82.5078 54.1195 82.3347C56.194 82.4811 58.2089 82.8252 60.3021 82.7565C60.2334 82.9588 60.1885 83.092 60.1427 83.2251C59.9572 83.7619 59.8482 84.3116 59.9242 84.8802C60.0346 85.7073 60.1613 86.5322 60.2787 87.3584C60.3472 87.839 60.4113 88.3204 60.4845 88.8524C59.6646 88.8992 58.8958 88.9434 58.0973 88.9892C58.0088 88.7655 57.9372 88.5477 57.8354 88.3453C57.7909 88.2567 57.6843 88.1992 57.6059 88.1278C57.5417 88.212 57.4509 88.2876 57.42 88.3824C57.3778 88.5118 57.3813 88.6562 57.3602 88.8385H46.1649ZM42.6679 37.5457C41.57 37.1132 40.572 36.5853 39.7044 35.83C39.6525 35.7847 39.624 35.7132 39.582 35.6558C39.3067 35.2774 39.3676 34.8495 39.4538 34.446C39.7518 33.0523 40.0296 31.6516 40.406 30.2784C41.0137 28.0612 41.9317 25.9624 43.0681 23.9648C43.6753 22.8976 44.1864 21.7923 44.6373 20.6503C44.985 19.7694 45.4261 18.9243 45.8474 18.074C45.9462 17.8744 46.0982 17.6509 46.2855 17.5553C46.7607 17.3136 47.2049 17.0318 47.6387 16.7259C47.754 16.6444 47.8966 16.5988 48.0306 16.5461C48.3251 16.4298 48.621 16.3165 48.9184 16.2077C49.9729 15.822 51.0307 15.4457 52.0805 15.048C52.266 14.9779 52.3772 15.0471 52.5146 15.1279C54.09 16.0556 55.6997 16.1073 57.3429 15.3148C57.4305 15.2723 57.5318 15.2377 57.6275 15.2361C58.1144 15.2276 58.6017 15.2366 59.0887 15.2278C59.2731 15.2247 59.462 15.2101 59.6401 15.1659C60.0814 15.0571 60.5213 15.0369 60.9682 15.1174C61.3507 15.1867 61.7324 15.2683 62.1184 15.3105C63.1863 15.427 64.1499 15.8153 65.0605 16.3696C65.5272 16.6537 66.0137 16.9061 66.4949 17.1665C67.9896 17.9752 69.5073 18.7444 70.9751 19.5993C72.2998 20.3707 73.6562 21.0568 75.0987 21.5736C75.451 21.7 75.7957 21.8477 76.1431 21.9877C76.9745 22.3234 77.7592 22.7443 78.4929 23.2619C78.9164 23.5605 79.2458 23.9289 79.4334 24.4162C79.5421 24.6982 79.5429 24.9542 79.3804 25.2377C79.0731 25.7741 78.7877 26.3264 78.5402 26.8925C78.4075 27.1957 78.2105 27.3569 77.9089 27.4077C77.0515 27.5517 76.1901 27.6203 75.3338 27.4113C74.3244 27.1649 73.3464 26.8222 72.3951 26.4038C71.4923 26.0066 70.7009 25.4268 69.8871 24.8817C68.5654 23.9967 67.1747 23.2552 65.6372 22.7975C64.6031 22.4898 63.577 22.1446 62.6183 21.6342C62.3509 21.492 62.0679 21.3669 62.0248 21.0085C62.0187 20.9562 61.981 20.8947 61.9388 20.8632C61.886 20.8237 61.7899 20.7732 61.7544 20.795C61.6936 20.8325 61.6511 20.9183 61.6287 20.9923C61.6145 21.0397 61.6414 21.1062 61.6641 21.1577C61.8258 21.526 62.0041 21.8875 62.151 22.2614C62.2543 22.525 62.3565 22.8004 62.3868 23.0782C62.4191 23.375 62.3875 23.6836 62.3457 23.9819C62.2804 24.4481 62.376 24.8716 62.6221 25.2624C62.7443 25.4568 62.8926 25.6347 63.0286 25.8206C63.1135 25.9367 63.2426 26.0432 63.2712 26.1721C63.3262 26.4189 63.3697 26.6866 63.326 26.9291C63.3044 27.0488 63.0888 27.1521 62.9429 27.2278C62.5211 27.4465 62.0976 27.6646 61.6617 27.8524C59.0485 28.9784 56.3789 29.9206 53.5479 30.3417C52.5704 30.487 51.7403 30.2526 51.0516 29.5214C50.1432 28.557 49.4894 27.4216 48.8422 26.2817C48.7448 26.1103 48.7059 25.9046 48.6493 25.7119C48.5362 25.3255 48.4591 24.9257 48.3122 24.5529C48.1656 24.1799 47.9617 23.8276 47.7587 23.4804C47.7212 23.4164 47.5509 23.3731 47.4732 23.4027C47.3526 23.4481 47.3439 23.5752 47.4209 23.6935C47.4912 23.8018 47.5655 23.9102 47.6174 24.0277C47.791 24.4216 47.9808 24.811 48.1171 25.2181C48.2803 25.7059 48.3946 26.21 48.535 26.7254C48.3111 27.0445 48.3012 27.0439 48.2846 27.4501C48.2318 28.7565 47.8611 29.9808 47.248 31.119C46.8262 31.902 46.3171 32.6402 45.8181 33.3791C45.3358 34.0932 44.8343 34.7956 44.3092 35.4784C43.777 36.1707 43.0815 36.7305 42.6679 37.5457ZM88.5018 63.9899C88.3625 63.8758 88.2529 63.788 88.1456 63.6978C87.1745 62.8828 86.2159 62.0519 85.2302 61.2551C83.2693 59.6696 81.2829 58.1156 79.3273 56.5236C77.6732 55.1777 76.0448 53.8002 74.4108 52.4297C72.17 50.55 69.9025 48.7002 67.7056 46.77C65.4551 44.7924 63.2927 42.7147 61.0607 40.7153C59.0295 38.8957 57.0598 37.0196 55.2937 34.9378C55.2474 34.883 55.2019 34.8138 55.1408 34.7893C55.0718 34.7619 54.9602 34.7456 54.9137 34.7829C54.8652 34.8215 54.8388 34.943 54.863 35.0047C54.9036 35.1082 54.9865 35.1974 55.0609 35.2845C56.4862 36.9515 58.0126 38.5197 59.6464 39.9837C60.3439 40.6087 61.0317 41.2447 61.7308 41.8681C61.893 42.0127 61.9702 42.1668 61.9741 42.3893C61.9835 42.8932 62.0309 43.3963 62.0468 43.9002C62.0924 45.3547 62.1194 46.81 62.173 48.2641C62.2658 50.784 62.4064 53.3023 62.4652 55.8227C62.5364 58.8764 62.5344 61.9317 62.5811 64.9861C62.6168 67.3199 62.6716 69.6534 62.7327 71.9867C62.7628 73.1385 62.8274 74.2894 62.8739 75.4408C62.8825 75.6562 62.8946 75.8734 62.8775 76.088C62.8537 76.3849 62.7993 76.4327 62.5051 76.4505C62.2896 76.4633 62.0728 76.462 61.8568 76.4581C59.8545 76.4208 57.8523 76.3845 55.8504 76.3396C55.4649 76.3312 55.0802 76.2861 54.6696 76.2562C54.6245 76.0234 54.572 75.8158 54.5448 75.6047C54.4056 74.519 54.2686 73.4329 54.1387 72.3462C53.9029 70.3736 53.6516 68.4023 53.4459 66.4263C53.2324 64.378 53.0375 62.3268 52.8852 60.2731C52.7172 58.0038 52.5302 55.7318 52.4884 53.4586C52.425 50.0012 52.4621 46.5418 52.4891 43.0835C52.5064 40.8937 52.5706 38.7043 52.6377 36.5152C52.675 35.292 52.7556 34.0698 52.8291 32.8477C52.8488 32.5205 52.9139 32.1958 52.9552 31.8924C55.9369 31.2865 58.8595 30.5937 61.6502 29.4731C62.4795 30.3177 63.4318 30.9068 64.4632 31.3693C65.2012 31.7002 65.957 31.9771 66.7915 31.9512C66.9236 31.947 67.0882 32.0521 67.1899 32.1545C67.677 32.6452 68.1466 33.1536 68.6243 33.6539C70.3559 35.4676 72.1164 37.2547 73.8123 39.1011C75.4997 40.9377 77.1892 42.7706 79.0046 44.4816C80.4513 45.8452 81.9178 47.1882 83.3932 48.5212C84.7615 49.7572 86.1611 50.958 87.5316 52.1918C88.8916 53.416 90.2258 54.6689 91.5843 55.895C92.0857 56.3473 92.624 56.7581 93.1875 57.2227C93.0476 57.4677 92.9245 57.7048 92.7808 57.9287C92.6489 58.1345 92.489 58.3222 92.3511 58.5243C91.531 59.7262 90.7232 60.9366 89.8916 62.1303C89.4564 62.7548 88.981 63.3513 88.5018 63.9899ZM62.5034 42.5813C62.9393 42.9732 63.387 43.3532 63.8095 43.7592C67.5342 47.3373 71.5249 50.6066 75.5238 53.8671C77.5676 55.5334 79.5865 57.2303 81.6297 58.8973C83.2711 60.2364 84.9353 61.5475 86.5832 62.8787C87.0537 63.2589 87.498 63.6712 87.9632 64.0586C88.1364 64.2028 88.3338 64.3182 88.5629 64.4759C89.1135 63.7835 89.6381 63.1238 90.1762 62.4473C91.2251 63.1413 92.2519 63.821 93.2966 64.5125C93.1632 64.7492 93.0531 64.9443 92.9409 65.1435C93.244 65.437 93.5236 65.7229 93.8192 65.9913C94.5053 66.6145 94.889 67.4104 95.1469 68.2792C95.2495 68.6244 95.3489 68.9707 95.4329 69.3208C95.9656 71.5373 96.7395 73.6791 97.4516 75.8399C97.6713 76.5071 98.0418 77.0907 98.5523 77.5749C98.6715 77.6879 98.8327 77.7808 98.9906 77.8238C99.3611 77.9243 99.5776 77.7781 99.6212 77.3948C99.6618 77.0378 99.674 76.6766 99.6767 76.3169C99.6874 74.9191 99.6809 73.5214 99.6966 72.1237C99.7101 70.9251 99.8824 69.7417 100.075 68.5609C100.142 68.1488 100.191 67.7337 100.259 67.3219C100.314 66.9942 100.26 66.6924 100.094 66.4068C99.9369 66.1353 99.7818 65.8626 99.5888 65.526C100.053 65.6574 100.236 65.4009 100.434 65.1108C100.88 64.4566 101.356 63.8228 101.818 63.1794C101.902 63.0625 101.982 62.9427 102.059 62.8204C102.165 62.6501 102.112 62.5053 101.946 62.424C101.741 62.3231 101.523 62.2419 101.306 62.1677C99.8577 61.6723 98.5379 60.9542 97.3957 59.9261C97.2782 59.8203 97.1648 59.7089 97.0571 59.5932C96.7633 59.2766 96.7592 59.2744 96.3898 59.5209C95.5522 58.7747 94.7265 58.0184 93.878 57.2891C93.0696 56.5937 92.2113 55.9552 91.4212 55.2408C89.6148 53.6075 87.8472 51.9315 86.043 50.2958C85.1042 49.4446 84.1094 48.6551 83.1597 47.8154C80.0588 45.0734 77.1036 42.1847 74.3268 39.1112C72.9363 37.572 71.4557 36.1145 70.0384 34.5987C68.2569 32.6939 66.4963 30.7695 64.7324 28.8485C64.4697 28.5625 64.2123 28.2653 63.9999 27.9422C63.8553 27.7225 63.7497 27.4593 63.8353 27.169C63.8577 27.0933 63.8405 27.005 63.8378 26.9224C63.816 26.286 63.5308 25.778 63.1119 25.3111C62.8148 24.9798 62.6913 24.564 62.7502 24.1049C62.7814 23.8626 62.8119 23.6147 62.7944 23.3726C62.7645 22.9625 62.6963 22.5552 62.6419 22.1283C62.6118 22.142 62.6403 22.1168 62.657 22.1229C63.6716 22.4912 64.6759 22.8904 65.7011 23.2264C67.2373 23.7297 68.6488 24.4708 69.9488 25.4148C71.5871 26.6044 73.4113 27.3493 75.3664 27.807C76.2985 28.0251 77.228 27.9422 78.1472 27.7228C78.3455 27.6754 78.4859 27.6779 78.6583 27.8088C78.9617 28.0394 79.2627 28.3105 79.6966 28.2424C80.2248 28.5442 80.7595 28.8445 80.9948 29.4538C81.1554 29.8699 81.2858 30.2977 81.4381 30.7172C81.5558 31.0419 81.6822 31.3637 81.814 31.6829C81.8572 31.7879 81.9165 31.8926 81.9914 31.9768C82.2237 32.2389 82.5538 32.2176 82.6946 31.8996C82.8084 31.6424 82.8661 31.35 82.8935 31.0678C82.9266 30.7273 82.9014 30.3812 82.9014 29.962C83.037 30.0585 83.1213 30.1007 83.1826 30.1652C83.6589 30.6665 84.1273 31.1755 84.6059 31.6746C84.7847 31.861 84.9773 32.0361 85.1768 32.2001C85.3 32.3013 85.4528 32.3775 85.6136 32.2742C85.7896 32.1612 85.791 31.9784 85.7382 31.8093C85.6234 31.4401 85.4883 31.0772 85.3512 30.6813C85.4393 30.7248 85.5334 30.7643 85.6207 30.8153C86.1427 31.1207 86.661 31.4322 87.1855 31.7332C87.2958 31.7965 87.4229 31.8434 87.548 31.8656C87.8849 31.9249 88.049 31.7444 87.9433 31.4199C87.8736 31.2052 87.7622 31.0042 87.663 30.783C87.8718 30.7938 88.0702 30.8212 88.2666 30.8106C88.6204 30.7913 88.7607 30.5649 88.5923 30.2497C88.4941 30.0662 88.3452 29.889 88.177 29.7666C86.0203 28.1957 83.792 26.7367 81.4212 25.5044C81.2713 25.4265 81.1282 25.3632 81.0476 25.1752C80.9955 25.0539 80.8156 24.9707 80.6764 24.9066C80.2063 24.6892 79.7844 24.4658 79.6054 23.8999C79.4702 23.4719 79.0835 23.1887 78.7167 22.9235C77.7262 22.2077 76.6271 21.7022 75.4865 21.2906C73.908 20.7209 72.4202 19.9805 70.9719 19.1327C69.506 18.2746 67.9818 17.516 66.4848 16.7105C66.0666 16.4854 65.6464 16.262 65.2411 16.0145C64.3321 15.46 63.3688 15.0659 62.3044 14.9319C61.7616 14.8636 61.2244 14.7466 60.6805 14.6929C60.3693 14.6621 60.0414 14.6731 59.7367 14.7389C59.3924 14.8133 59.0587 14.8267 58.7106 14.8081C58.2808 14.7854 57.8484 14.8077 57.4173 14.8167C57.3641 14.8178 57.3088 14.8501 57.2594 14.8773C55.6748 15.7511 54.1138 15.677 52.5986 14.7217C52.3341 14.555 52.1753 14.5777 51.9076 14.7001C51.3204 14.9689 50.7006 15.167 50.0929 15.3906C49.3902 15.6491 48.6765 15.8807 47.9857 16.1681C47.4571 16.3882 46.9556 16.6732 46.445 16.9353C45.9502 17.1895 45.6129 17.6034 45.3721 18.0873C45.0193 18.7958 44.6508 19.5019 44.3719 20.2405C43.9019 21.4842 43.3389 22.6753 42.6903 23.8365C41.3132 26.3008 40.2775 28.9002 39.6557 31.6658C39.3359 33.0869 39.0318 34.5059 38.8766 35.9551C38.8589 36.122 38.807 36.2973 38.7255 36.4435C38.189 37.4067 37.5391 38.2749 36.6797 38.9877C36.1825 39.4 35.7434 39.8835 35.288 40.3446C34.7605 40.8788 34.5148 41.5878 34.1528 42.2242C34.0253 42.4484 33.9266 42.69 33.8256 42.9283C33.7465 43.1145 33.7488 43.2955 33.924 43.4369C34.0823 43.5649 34.2922 43.5849 34.4793 43.4208C34.7153 43.2141 34.9235 42.9725 35.1232 42.7291C35.25 42.5746 35.3365 42.3871 35.4472 42.2188C35.6026 41.9824 35.8101 41.8223 36.1899 41.7589C35.9949 42.0401 35.8405 42.2543 35.6954 42.4748C35.553 42.6907 35.399 42.9029 35.2869 43.1346C35.0884 43.5456 35.2316 43.8941 35.6374 44.099C35.7989 44.1805 35.9384 44.3045 36.0987 44.3891C36.312 44.5012 36.5355 44.5937 36.7614 44.6977C36.8569 45.4616 37.0127 45.5472 37.8086 45.2604C37.8201 45.286 37.8393 45.3107 37.8414 45.337C37.8786 45.8008 38.1016 45.9348 38.5182 45.7199C38.6682 45.6422 38.8099 45.5279 38.9214 45.4008C39.2935 44.9768 39.6169 44.5191 39.8216 43.9862C39.8612 43.8827 39.9146 43.7718 39.9935 43.6986C40.627 43.1104 41.0939 42.4055 41.4453 41.6237C41.6459 41.1775 41.8152 40.7173 41.9937 40.2613C42.2091 39.7117 42.4141 39.1577 42.6333 38.6095C42.7503 38.3174 42.8642 38.0275 43.1505 37.8339C43.2855 37.7427 43.3696 37.5695 43.4628 37.4243C44.3503 36.0415 45.2882 34.6959 46.2994 33.3981C47.3645 32.0316 48.1387 30.5084 48.5197 28.8052C48.5918 28.483 48.6147 28.1499 48.6722 27.824C48.7086 27.6184 48.7672 27.4165 48.8413 27.1075C48.9895 27.3457 49.0801 27.4878 49.1674 27.632C49.6309 28.398 50.1427 29.1272 50.7556 29.7841C51.1061 30.16 51.4864 30.4767 51.9964 30.6099C52.1059 30.6388 52.2074 30.6972 52.2562 30.7179C52.6161 31.3528 52.5364 31.9743 52.4699 32.6126C52.286 34.3761 52.2205 36.146 52.2405 37.9208C52.2532 39.0295 52.1933 40.1389 52.1756 41.2482C52.1475 42.9912 52.1284 44.7343 52.1037 46.4772C52.0846 47.8316 52.0247 49.1866 52.0509 50.5399C52.0949 52.8011 52.1461 55.0641 52.282 57.3208C52.4178 59.5771 52.6581 61.8271 52.8587 64.0795C53.0004 65.672 53.1329 67.2657 53.3045 68.8552C53.4747 70.4297 53.6791 72.001 53.8868 73.5712C54.019 74.5693 54.2234 75.5592 54.3252 76.5601C54.4312 77.605 54.4567 78.6582 54.5102 79.7081C54.5446 80.3834 54.5666 81.0592 54.5924 81.7347C54.5944 81.7895 54.5814 81.8445 54.5702 81.9489C54.4042 81.9336 54.2528 81.9163 54.1012 81.906C53.8068 81.8864 53.6737 82.0097 53.6741 82.3049C53.6743 82.3906 53.6865 82.4776 53.7042 82.5618C53.83 83.1598 53.7202 83.7385 53.5519 84.3091C53.4158 84.7706 53.059 85.043 52.6627 85.2661C51.8816 85.7058 51.0572 86.0449 50.2025 86.3146C49.5436 86.5229 48.8845 86.732 48.2321 86.9597C47.5025 87.214 46.8622 87.6301 46.2675 88.1156C45.9486 88.3761 45.7036 88.695 45.632 89.1152C45.5626 89.5232 45.7723 89.7916 46.1873 89.8002C48.7661 89.8554 51.3446 89.9248 53.9238 89.9448C54.9739 89.9531 56.0249 89.8491 57.0757 89.7977C57.3636 89.7837 57.6252 89.7263 57.7355 89.388C57.7937 89.4413 57.8377 89.4619 57.8462 89.4923C57.9726 89.9459 58.2817 90.0849 58.7288 90.057C59.2029 90.0274 59.6798 90.0411 60.1552 90.0319C60.27 90.0294 60.387 90.0216 60.4982 89.996C60.8588 89.9138 60.9772 89.7916 60.9349 89.4291C60.8265 88.4999 60.6881 87.5748 60.5631 86.6476C60.4842 86.0626 60.409 85.4771 60.3306 84.8921C60.2287 84.1342 60.4476 83.4373 60.7356 82.7535C60.7634 82.6873 60.8065 82.6271 60.8298 82.5597C60.906 82.3396 60.8115 82.2276 60.5788 82.2604C60.4023 82.2853 60.2264 82.3152 59.992 82.352C60.1319 80.4761 60.2662 78.6735 60.4027 76.8424C60.7023 76.8424 60.9431 76.8403 61.1838 76.843C61.6017 76.8478 62.0201 76.8743 62.4371 76.8579C63.0955 76.832 63.2633 76.6722 63.2627 76.0211C63.2622 75.4312 63.206 74.8417 63.1757 74.2521C63.1535 73.8207 63.1229 73.3893 63.114 72.9577C63.0572 70.1917 62.9952 67.4259 62.9552 64.66C62.9227 62.4121 62.9383 60.1635 62.8961 57.9159C62.8609 56.0578 62.7722 54.2008 62.7079 52.3432C62.677 51.4505 62.6455 50.5578 62.6183 49.6649C62.5728 48.1814 62.5323 46.6979 62.4859 45.2146C62.4634 44.4946 62.4313 43.7749 62.4055 43.0551C62.4005 42.9141 62.4048 42.7727 62.4048 42.6316C62.4378 42.6148 62.4706 42.5981 62.5034 42.5813Z" fill="black"/>
<path fill-rule="evenodd" clip-rule="evenodd" d="M88.5018 63.9894C88.9812 63.3508 89.4564 62.7543 89.8916 62.13C90.7232 60.9361 91.531 59.7259 92.3511 58.524C92.4892 58.3219 92.6489 58.1342 92.781 57.9284C92.9247 57.7044 93.0478 57.4672 93.1877 57.2224C92.6242 56.7578 92.0857 56.3468 91.5845 55.8947C90.2258 54.6686 88.8916 53.4157 87.5316 52.1915C86.1613 50.9576 84.7615 49.7568 83.3934 48.5207C81.918 47.1879 80.4513 45.8449 79.0046 44.4811C77.1894 42.7703 75.4997 40.9374 73.8125 39.1006C72.1164 37.2542 70.356 35.4671 68.6243 33.6536C68.1466 33.1531 67.677 32.6449 67.1899 32.154C67.0884 32.0518 66.9238 31.9467 66.7915 31.9507C65.957 31.9768 65.2013 31.6999 64.4634 31.3689C63.4319 30.9064 62.4795 30.3174 61.6504 29.4726C58.8597 30.5932 55.9369 31.2862 52.9552 31.8919C52.9141 32.1955 52.8488 32.5202 52.8291 32.8474C52.7558 34.0693 52.6752 35.2917 52.6379 36.5149C52.5708 38.7038 52.5065 40.8934 52.4891 43.083C52.4621 46.5414 52.425 50.0007 52.4884 53.4581C52.5304 55.7313 52.7172 58.0035 52.8854 60.2728C53.0375 62.3263 53.2324 64.3775 53.4459 66.426C53.6517 68.402 53.9029 70.3731 54.1388 72.3459C54.2686 73.4326 54.4056 74.5185 54.545 75.6043C54.572 75.8154 54.6245 76.0231 54.6696 76.2559C55.0802 76.2858 55.4649 76.3307 55.8506 76.3393C57.8525 76.3842 59.8546 76.4203 61.8568 76.4576C62.0728 76.4617 62.2896 76.4628 62.5051 76.45C62.7994 76.4322 62.8539 76.3846 62.8775 76.0875C62.8948 75.8731 62.8827 75.6559 62.8739 75.4405C62.8276 74.2891 62.763 73.138 62.7329 71.9862C62.6718 69.6531 62.617 67.3196 62.5813 64.9856C62.5344 61.9314 62.5364 58.8761 62.4652 55.8222C62.4066 53.3019 62.2658 50.7835 62.1732 48.2638C62.1196 46.8095 62.0924 45.3543 62.0468 43.8999C62.0309 43.396 61.9835 42.8929 61.9743 42.389C61.9702 42.1663 61.893 42.0124 61.7308 41.8676C61.0318 41.2442 60.3441 40.6084 59.6466 39.9834C58.0128 38.5194 56.4862 36.9512 55.0609 35.2842C54.9865 35.1969 54.9036 35.1077 54.8632 35.0044C54.839 34.9427 54.8654 34.821 54.9137 34.7824C54.9602 34.7451 55.0719 34.7614 55.141 34.7888C55.2021 34.8133 55.2475 34.8827 55.2937 34.9375C57.0598 37.0193 59.0297 38.8954 61.0609 40.7149C63.2929 42.7142 65.4551 44.7921 67.7058 46.7695C69.9025 48.6997 72.17 50.5495 74.4108 52.4292C76.0448 53.7999 77.6734 55.1772 79.3273 56.5233C81.2829 58.1151 83.2695 59.6691 85.2304 61.2546C86.2161 62.0516 87.1745 62.8823 88.1456 63.6975C88.253 63.7877 88.3625 63.8753 88.5018 63.9894Z" fill="white"/>
<path fill-rule="evenodd" clip-rule="evenodd" d="M42.6679 37.5454C43.0814 36.7302 43.7768 36.1705 44.3091 35.4782C44.8343 34.7953 45.3358 34.093 45.818 33.3789C46.3168 32.6399 46.8259 31.9017 47.2478 31.1188C47.8611 29.9805 48.2315 28.7563 48.2844 27.4498C48.301 27.0437 48.311 27.0442 48.5349 26.7251C48.3945 26.2097 48.2802 25.7057 48.1171 25.2178C47.9808 24.8108 47.791 24.4214 47.6172 24.0275C47.5654 23.9099 47.4912 23.8016 47.4207 23.6932C47.3437 23.575 47.3523 23.4479 47.4729 23.4025C47.5508 23.3729 47.721 23.4162 47.7585 23.4802C47.9615 23.8274 48.1654 24.1796 48.3121 24.5526C48.4589 24.9254 48.5362 25.3253 48.6492 25.7116C48.7057 25.9043 48.7448 26.11 48.842 26.2815C49.4893 27.4213 50.1432 28.5567 51.0516 29.5212C51.7401 30.2524 52.5704 30.4867 53.5479 30.3414C56.3787 29.9203 59.0484 28.9782 61.6615 27.8522C62.0976 27.6643 62.5211 27.4462 62.9429 27.2275C63.0887 27.1518 63.3044 27.0485 63.3258 26.9288C63.3694 26.6863 63.3262 26.4186 63.2712 26.1718C63.2423 26.0429 63.1134 25.9364 63.0285 25.8203C62.8926 25.6344 62.7441 25.4565 62.6218 25.2622C62.3758 24.8713 62.2804 24.4479 62.3457 23.9817C62.3873 23.6833 62.419 23.3747 62.3866 23.078C62.3563 22.8002 62.2543 22.5247 62.1508 22.2611C62.0038 21.8872 61.8256 21.5258 61.6638 21.1575C61.6411 21.1059 61.6143 21.0394 61.6287 20.992C61.6511 20.9181 61.6936 20.8323 61.7543 20.7948C61.7899 20.773 61.8859 20.8234 61.9386 20.8629C61.981 20.8945 62.0186 20.9559 62.0248 21.0082C62.0677 21.3666 62.3509 21.4917 62.618 21.634C63.5769 22.1443 64.6031 22.4895 65.6371 22.7973C67.1745 23.255 68.5653 23.9965 69.8869 24.8814C70.7009 25.4266 71.4923 26.0064 72.3951 26.4035C73.3462 26.8219 74.3242 27.1646 75.3336 27.4111C76.1899 27.62 77.0512 27.5513 77.9086 27.4075C78.2104 27.3566 78.4075 27.1954 78.54 26.8922C78.7875 26.3262 79.0728 25.7738 79.3802 25.2375C79.5426 24.9539 79.5419 24.6979 79.4332 24.416C79.2456 23.9287 78.9164 23.5602 78.4929 23.2617C77.759 22.7441 76.9744 22.3231 76.1428 21.9875C75.7956 21.8474 75.4509 21.6998 75.0987 21.5734C73.6559 21.0565 72.2997 20.3704 70.9751 19.599C69.5073 18.7441 67.9895 17.9749 66.4949 17.1662C66.0137 16.9059 65.5271 16.6535 65.0602 16.3694C64.1498 15.815 63.1863 15.4267 62.1181 15.3103C61.7324 15.2681 61.3505 15.1864 60.968 15.1172C60.5213 15.0366 60.0812 15.0568 59.6401 15.1657C59.4618 15.2098 59.273 15.2244 59.0886 15.2275C58.6017 15.2363 58.1144 15.2273 57.6273 15.2358C57.5318 15.2374 57.4304 15.272 57.3427 15.3146C55.6996 16.1071 54.0898 16.0553 52.5143 15.1276C52.377 15.0469 52.2657 14.9777 52.0804 15.0478C51.0307 15.4455 49.9728 15.8217 48.9184 16.2075C48.6208 16.3162 48.3251 16.4296 48.0304 16.5459C47.8966 16.5985 47.754 16.6441 47.6384 16.7256C47.2049 17.0315 46.7605 17.3133 46.2853 17.555C46.098 17.6506 45.9462 17.8741 45.8474 18.0737C45.4261 18.9241 44.985 19.7692 44.6372 20.65C44.1863 21.7921 43.6753 22.8973 43.0681 23.9646C41.9315 25.9622 41.0135 28.0609 40.4058 30.278C40.0294 31.6513 39.7516 33.052 39.4538 34.4458C39.3674 34.8492 39.3065 35.2772 39.5819 35.6556C39.6238 35.7129 39.6522 35.7845 39.7043 35.8297C40.5718 36.5851 41.5698 37.1129 42.6679 37.5454Z" fill="#027A48"/>
<path fill-rule="evenodd" clip-rule="evenodd" d="M46.1647 88.8384H57.36C57.3811 88.6559 57.3777 88.5117 57.4199 88.3823C57.4507 88.2873 57.5415 88.2117 57.6057 88.1277C57.6841 88.1991 57.7907 88.2564 57.8352 88.3451C57.9371 88.5476 58.0086 88.7654 58.0971 88.9891C58.8956 88.9433 59.6645 88.8991 60.4844 88.8521C60.4112 88.3203 60.347 87.8389 60.2787 87.3583C60.1611 86.5321 60.0346 85.7072 59.9241 84.8801C59.848 84.3115 59.957 83.7618 60.1425 83.2248C60.1885 83.0919 60.2332 82.9587 60.3019 82.7564C58.2087 82.8251 56.1938 82.4808 54.1194 82.3346C54.1194 82.5076 54.1275 82.6326 54.1178 82.7564C54.083 83.1992 54.0648 83.6448 53.998 84.0832C53.896 84.7544 53.5052 85.2314 52.9231 85.5691C52.0339 86.0852 51.0879 86.4641 50.1081 86.7665C49.6406 86.9109 49.1735 87.0571 48.7072 87.2047C47.9289 87.4513 47.2321 87.8501 46.5907 88.3489C46.4258 88.4771 46.2561 88.6078 46.1647 88.8384Z" fill="#F6FEF9"/>
<path fill-rule="evenodd" clip-rule="evenodd" d="M98.6899 77.1125C98.6757 76.0946 98.6317 75.1596 98.656 74.2261C98.7049 72.342 98.6843 70.4517 98.9839 68.5831C99.0977 67.8739 99.267 67.1728 99.431 66.4726C99.4775 66.2738 99.4721 66.1153 99.3537 65.946C99.2304 65.7697 99.1244 65.5795 99.0254 65.3881C98.8579 65.0631 98.9414 64.9473 99.314 64.9702C99.3688 64.9736 99.4233 64.9801 99.4343 64.9812C99.9134 64.126 100.375 63.3027 100.858 62.4395C99.3367 61.8752 97.9302 61.0543 96.7244 59.8398C96.4743 60.0866 96.305 60.3613 96.1388 60.6404C95.439 61.8154 94.7386 62.9899 94.0329 64.1611C93.8555 64.4554 93.657 64.7368 93.4571 65.0407C93.7109 65.3019 93.9429 65.5541 94.1893 65.7914C94.8073 66.3865 95.2137 67.1079 95.4531 67.9222C95.6804 68.6954 95.8626 69.482 96.0983 70.2523C96.578 71.8207 97.0727 73.3847 97.5776 74.9454C97.7321 75.4233 97.9259 75.89 98.1283 76.3501C98.2473 76.6205 98.4141 76.8716 98.6899 77.1125Z" fill="#F6FEF9"/>
<path fill-rule="evenodd" clip-rule="evenodd" d="M42.01 39.0376C41.4374 38.7365 40.8832 38.4659 40.35 38.1587C39.8277 37.8577 39.3267 37.5193 38.7892 37.18C38.7327 37.2539 38.6606 37.338 38.6002 37.4297C38.1622 38.0962 37.632 38.6752 37.0326 39.204C36.4937 39.6794 35.9471 40.1659 35.5089 40.7293C35.0899 41.2678 34.8036 41.9103 34.4645 42.51C34.3757 42.6671 34.3068 42.8351 34.2286 42.9982C34.257 43.0182 34.2853 43.0383 34.314 43.0584C34.4157 42.9512 34.5271 42.8515 34.6167 42.735C34.7479 42.5641 34.8815 42.3905 34.9819 42.2011C35.2037 41.7826 35.5316 41.5126 35.9859 41.3768C36.3271 41.2748 36.5927 41.0529 36.8121 40.776C36.8474 40.7311 36.8703 40.6765 36.9042 40.6301C36.985 40.5198 37.0922 40.4967 37.2072 40.5647C37.3397 40.6429 37.3196 40.7601 37.2449 40.8614C37.1177 41.0343 36.9774 41.1975 36.8714 41.3291C36.9799 41.6135 37.0782 41.8713 37.1746 42.1243C37.7922 41.7679 37.9509 41.8284 38.1611 42.5266C38.6536 42.2535 38.8135 42.3181 39.2067 42.9688C39.4821 42.8639 39.7279 42.9184 39.8993 43.2342C41.081 42.0226 41.4762 40.4755 42.01 39.0376Z" fill="white"/>
<path fill-rule="evenodd" clip-rule="evenodd" d="M90.3524 62.1116C91.4581 62.8372 92.4764 63.5054 93.5274 64.1955C94.4797 62.8249 95.2204 61.3769 96.0875 59.9724C96.0075 59.852 95.9395 59.7069 95.8342 59.5978C95.1451 58.883 94.4187 58.2088 93.5945 57.5699C92.387 58.9766 91.5837 60.649 90.3524 62.1116Z" fill="white"/>
<path fill-rule="evenodd" clip-rule="evenodd" d="M59.7643 80.3592C59.8474 79.1684 59.9273 78.026 60.0071 76.8845C59.6228 76.732 55.3164 76.6309 54.7662 76.7664C54.823 77.9036 54.8798 79.0459 54.9384 80.2234C55.0368 80.2391 55.1448 80.2672 55.2537 80.2719C56.4173 80.3199 57.5806 80.3703 58.7447 80.4057C59.0706 80.4154 59.398 80.3774 59.7643 80.3592Z" fill="white"/>
<path fill-rule="evenodd" clip-rule="evenodd" d="M82.3799 31.6846C82.4146 31.4966 82.4791 31.3084 82.4784 31.1205C82.4759 30.3432 82.4535 29.5659 82.4384 28.7885C82.438 28.7739 82.4358 28.7597 82.4348 28.7452C82.3947 28.1368 82.5114 28.0523 83.0508 28.2987C84.0331 28.7476 85.0129 29.2021 85.9984 29.6437C86.5238 29.879 87.0563 30.0993 87.5913 30.3126C87.7707 30.3841 87.9672 30.4124 88.156 30.4607C88.1738 30.4303 88.1917 30.3998 88.2095 30.3692C88.095 30.2522 87.9948 30.1148 87.8637 30.0209C85.7909 28.5323 83.6595 27.1354 81.4043 25.9346C81.253 25.8542 81.0958 25.7846 80.8966 25.6883C80.4717 26.3667 80.104 27.0543 79.7795 27.7988C80.0039 27.9481 80.2008 28.0901 80.4079 28.2147C80.9953 28.568 81.3374 29.0917 81.5384 29.7377C81.7135 30.3005 81.928 30.8514 82.1317 31.4052C82.1687 31.5056 82.2372 31.5943 82.2911 31.6884C82.3208 31.6872 82.3504 31.6859 82.3799 31.6846Z" fill="white"/>
<path fill-rule="evenodd" clip-rule="evenodd" d="M63.3753 27.4588C60.0303 29.0959 56.5592 30.3549 52.8544 30.8413C52.8084 31.2752 52.9272 31.4198 53.2923 31.4079C53.3781 31.4054 53.4657 31.3984 53.5492 31.3792C56.0172 30.8182 58.49 30.2706 60.853 29.3389C61.6275 29.0335 62.3859 28.6836 63.136 28.3216C63.6271 28.0849 63.6352 27.989 63.3753 27.4588Z" fill="white"/>
<path fill-rule="evenodd" clip-rule="evenodd" d="M54.9152 80.7095C54.9506 81.1457 54.9825 81.5398 55.0182 81.9808C56.5424 82.1517 58.0307 82.3655 59.5953 82.3352C59.6361 81.8245 59.6754 81.3347 59.7179 80.8023C58.0967 80.8138 56.5301 80.6199 54.9152 80.7095Z" fill="white"/>
<path fill-rule="evenodd" clip-rule="evenodd" d="M63.8723 28.3943C63.2542 28.7169 62.6852 29.0138 62.1147 29.3112C62.793 30.2551 65.3497 31.5373 66.5792 31.5241C65.7364 30.3954 64.7052 29.4836 63.8723 28.3943Z" fill="white"/>
<path fill-rule="evenodd" clip-rule="evenodd" d="M57.2539 89.3243C56.9595 89.1869 46.4385 89.2395 46.0844 89.3652C49.8094 89.529 53.5345 89.7043 57.2539 89.3243Z" fill="white"/>
<path fill-rule="evenodd" clip-rule="evenodd" d="M39.4136 36.0993C39.278 36.3178 39.1817 36.4729 39.1071 36.5931C39.2373 37.0355 39.5793 37.2336 39.9057 37.4312C40.4471 37.7589 41.0023 38.0643 41.5563 38.3704C41.6917 38.4451 41.846 38.4851 42.04 38.5595C42.1442 38.32 42.2376 38.1054 42.3429 37.8637C41.2901 37.3995 40.3061 36.8963 39.4136 36.0993Z" fill="#027A48"/>
<path fill-rule="evenodd" clip-rule="evenodd" d="M99.7155 66.8721C99.5941 67.5022 99.4389 68.1281 99.3574 68.7632C99.027 71.3382 99.0468 73.9279 99.0872 76.5168C99.0917 76.8017 99.1326 77.0861 99.2105 77.3789C99.2215 77.2715 99.2417 77.164 99.2422 77.0564C99.2494 75.7909 99.2547 74.5251 99.2581 73.2598C99.2624 71.7759 99.3708 70.3013 99.6286 68.8387C99.7032 68.4142 99.7686 67.9875 99.8245 67.5598C99.8535 67.3374 99.8523 67.111 99.8647 66.8863L99.7155 66.8721Z" fill="white"/>
<path fill-rule="evenodd" clip-rule="evenodd" d="M80.6134 25.303C80.3917 25.1909 80.2156 25.1019 79.9982 24.9917C79.512 25.7523 79.0989 26.517 78.7649 27.3755C78.9309 27.5082 79.093 27.6374 79.3055 27.8073C79.7478 26.9607 80.1685 26.1552 80.6134 25.303Z" fill="#027A48"/>
<path fill-rule="evenodd" clip-rule="evenodd" d="M82.8843 28.8316C82.8162 29.1159 82.8331 29.274 82.9864 29.4308C83.6882 30.1489 84.3777 30.8786 85.0725 31.6033C85.1205 31.6532 85.1751 31.6969 85.2921 31.8027C85.2065 31.2931 85.0143 30.9329 84.7181 30.6232C84.6597 30.5619 84.5611 30.5211 84.5339 30.4505C84.2364 29.6794 83.4567 29.4231 82.8843 28.8316Z" fill="white"/>
<path fill-rule="evenodd" clip-rule="evenodd" d="M38.5851 42.7963C38.0108 43.2775 37.2042 44.6025 37.25 45.0278C37.3441 44.9867 37.4377 44.9621 37.513 44.9109C38.1186 44.5006 38.4773 43.9084 38.7266 43.2389C38.7941 43.0577 38.7607 42.9027 38.5851 42.7963Z" fill="white"/>
<path fill-rule="evenodd" clip-rule="evenodd" d="M87.4642 31.33C87.4147 31.2498 87.3784 31.1557 87.3132 31.0911C86.8749 30.6572 86.4462 30.2179 85.843 29.9929C85.3729 29.8173 84.9243 29.584 84.4652 29.3789C84.3666 29.3347 84.2638 29.3001 84.1475 29.2934C85.2027 30.0407 86.2458 30.7984 87.3925 31.3933C87.4165 31.3722 87.4404 31.3511 87.4642 31.33Z" fill="white"/>
<path fill-rule="evenodd" clip-rule="evenodd" d="M36.3381 44.0134C36.5265 44.231 36.6792 44.2302 36.8292 44.0858C36.9421 43.9775 37.0591 43.8672 37.1461 43.739C37.3151 43.49 37.4728 43.2326 37.6186 42.9694C37.7219 42.7826 37.7928 42.5805 37.6542 42.2971C37.1243 42.8362 36.7243 43.4091 36.3381 44.0134Z" fill="white"/>
<path fill-rule="evenodd" clip-rule="evenodd" d="M35.9297 43.7658C36.3279 43.221 36.57 42.6128 36.7481 41.9245C36.643 41.9375 36.5864 41.9283 36.5716 41.9488C36.2711 42.3683 35.9573 42.7799 35.6854 43.2174C35.5174 43.4875 35.5643 43.5507 35.9297 43.7658Z" fill="white"/>
<path fill-rule="evenodd" clip-rule="evenodd" d="M100.037 64.9581C100.565 64.2301 101.093 63.5022 101.62 62.7756C101.498 62.6139 101.373 62.5907 101.253 62.7313C100.692 63.385 100.277 64.1216 100.037 64.9581Z" fill="white"/>
<path fill-rule="evenodd" clip-rule="evenodd" d="M38.3182 45.3302C38.8882 45.0722 39.5448 43.9569 39.4386 43.4259C39.0517 43.7036 38.3632 44.8737 38.3182 45.3302Z" fill="white"/>
<path fill-rule="evenodd" clip-rule="evenodd" d="M60.4698 89.5774C60.5412 89.3659 60.4788 89.268 60.2847 89.2715C60.0121 89.276 59.7392 89.2805 59.4671 89.2969C59.0858 89.3199 58.7053 89.3542 58.2248 89.3913C58.355 89.5211 58.408 89.6203 58.4781 89.6345C58.6449 89.6682 58.8201 89.672 58.9914 89.6691C59.3786 89.6621 59.7658 89.6468 60.1529 89.6279C60.2636 89.6225 60.373 89.5934 60.4698 89.5774Z" fill="white"/>
<path fill-rule="evenodd" clip-rule="evenodd" d="M39.1968 82.9181C36.5228 81.8562 35.038 81.1854 34.7423 80.9056C34.4467 80.6257 34.0248 80.0879 33.4766 79.2922C33.7294 77.748 33.7294 76.7946 33.4766 76.432C33.2237 76.0694 33.0321 75.6658 32.9017 75.2211C33.9067 73.7044 34.5203 72.4542 34.7423 71.4707C35.0754 69.9953 35.4086 68.6491 35.0754 67.6229C34.8534 66.9387 34.5124 66.0608 34.0525 64.9891C34.1865 67.8074 34.1865 69.568 34.0525 70.2709C33.9186 70.9738 33.2608 72.2692 32.0794 74.157L30.0634 73.446L28.57 73.2825L21.2257 73.708L16.7527 73.2825L14.2859 71.997V71.1812C15.2039 71.3742 15.8446 71.4707 16.2078 71.4707C16.7527 71.4707 19.156 71.2401 19.4693 70.7077C19.7827 70.1753 20.4217 68.7564 19.2564 68.3405C18.4796 68.0631 17.1198 67.9888 15.1769 68.1175L12.6765 66.328L12.3229 65.3975L9.80543 64.1965C8.88663 64.1876 8.30121 64.2686 8.04919 64.4392C7.67115 64.6953 6.14941 65.8136 5.52317 65.8136C5.10569 65.8136 3.34266 65.8136 0.234097 65.8136C0.244968 66.3649 0.344231 66.7778 0.531895 67.0522C0.719559 67.3266 1.61046 67.8229 3.20461 68.5411L1.87395 68.9189C1.67334 69.1977 1.67334 69.4071 1.87395 69.5471C2.07455 69.6871 3.13805 69.9687 5.06443 70.3918C5.76984 71.1087 6.24729 71.5248 6.49677 71.6399C6.74625 71.7551 7.04728 71.8741 7.39985 71.9971L8.81229 74.3873L8.89733 75.2211L10.4667 77.6423C9.58475 78.0512 9.03329 78.2557 8.81229 78.2557C8.5913 78.2557 7.89561 78.1779 6.72523 78.0223V78.752L9.52287 79.0679L7.03378 79.8689L6.49677 80.1973L6.72523 80.6451L13.4906 81.1376L14.7872 80.9056L15.3588 81.3964L20.8371 82.6512L24.2771 82.9181L28.2328 82.4839L29.2554 82.1218L30.3453 82.6512C31.2353 82.8291 31.8133 82.9181 32.0794 82.9181C32.3454 82.9181 32.7379 82.9181 33.2568 82.9181L35.3935 83.7033L37.1815 84.5001L37.758 84.289L37.1815 83.3872L38.355 83.3874L39.1968 82.9181Z" fill="#D8D8D8"/>
<path fill-rule="evenodd" clip-rule="evenodd" d="M6.87088 78.3438C7.228 78.3438 7.56025 78.2994 7.87627 78.3526C8.62586 78.4785 9.33217 78.34 10.034 78.1028C10.4728 77.9546 10.5196 77.9796 10.7535 78.4523C10.6785 78.4868 10.6065 78.5331 10.5276 78.5545C9.45404 78.8475 8.35977 78.7345 7.27091 78.7119C7.09352 78.7081 6.93307 78.6331 6.87088 78.3438ZM1.87383 69.131C2.55184 68.9163 3.22337 68.9057 3.89687 68.9264C3.95564 68.9282 4.042 68.9844 4.06525 69.0373C4.22299 69.3982 4.36757 69.7649 4.53505 70.1753C4.2686 70.1413 4.05534 70.1285 3.84856 70.0848C3.34361 69.9785 2.83812 69.8707 2.33966 69.7376C2.07988 69.668 1.8814 69.5056 1.87383 69.131ZM4.55308 68.987C4.59436 68.9612 4.63601 68.9354 4.67747 68.9094C4.74183 68.9902 4.81177 69.0676 4.87 69.1526C5.1213 69.5193 5.34701 69.9058 5.62337 70.2523C6.04323 70.7789 6.58316 71.1602 7.21899 71.3918C7.36267 71.4445 7.55737 71.5049 7.63759 71.3168C7.72448 71.113 7.53303 71.0535 7.38755 70.9905C7.34806 70.9734 7.30588 70.963 7.26604 70.9462C6.33239 70.5521 5.69728 69.8539 5.25525 68.9625C5.23091 68.9134 5.24497 68.8456 5.24137 68.7867C5.46112 68.9805 5.603 69.2109 5.78273 69.407C6.41045 70.0921 7.12723 70.6587 7.98858 71.0336C8.26278 71.153 8.52815 71.3064 8.76935 71.4829C8.96261 71.6242 8.93052 71.8209 8.71563 71.9249C8.6053 71.9781 8.46144 72.0114 8.34354 71.9913C8.00571 71.933 7.66084 71.8766 7.34103 71.7589C6.45606 71.4333 5.76182 70.8227 5.1195 70.1584C4.8078 69.8359 4.67693 69.4061 4.55308 68.987ZM33.5311 79.7629C33.6277 79.874 33.6906 79.9327 33.7375 80.0023C34.2689 80.7894 34.996 81.3389 35.8447 81.7391C36.2091 81.9111 36.5774 82.0751 36.9469 82.2359C37.5393 82.4935 38.1342 82.7454 38.6557 82.9686C38.5642 83.0962 38.4737 83.2222 38.3549 83.3875C36.3614 82.8321 34.5905 81.9037 33.2565 80.2136C33.3371 80.0815 33.4175 79.9491 33.5311 79.7629ZM34.2116 65.6594C34.2722 65.7085 34.3034 65.7213 34.3129 65.7435C34.7888 66.837 35.1173 67.9626 35.071 69.1723C35.0023 70.9612 34.3836 72.575 33.4901 74.0963C33.3338 74.3626 33.0982 74.5825 32.8505 74.8829C32.6176 74.6339 32.4274 74.4306 32.2369 74.2268C32.4483 73.9853 32.6641 73.7884 32.8197 73.5521C33.2736 72.8631 33.6273 72.1205 33.8514 71.3253C34.3349 69.6107 34.3758 67.8597 34.2466 66.097C34.2368 65.962 34.2251 65.8271 34.2116 65.6594ZM7.87447 72.4473C8.26008 72.4086 8.58836 72.4338 8.87355 72.3349C9.43169 72.1414 9.52741 71.549 9.06573 71.1863C8.78666 70.9671 8.46361 70.7906 8.13713 70.648C7.32625 70.2936 6.66626 69.7499 6.08434 69.0993C6.00628 69.0118 5.95562 68.9003 5.87467 68.7721C6.17051 68.6919 6.40883 68.6371 6.63958 68.5606C6.77407 68.5163 6.91756 68.4589 7.01816 68.3654C7.0845 68.3039 7.12597 68.1543 7.09946 68.0683C7.05548 67.9257 6.92027 67.9538 6.81175 68.0173C6.29219 68.3198 5.71766 68.3612 5.13915 68.3531C4.09698 68.3383 3.06815 68.1975 2.07844 67.8721C1.66074 67.735 1.27026 67.502 0.885738 67.2808C0.637859 67.1382 0.50211 66.899 0.537266 66.5734C0.594231 66.5702 0.650841 66.5572 0.703659 66.5661C1.17093 66.6438 1.54987 66.508 1.85724 66.1381C1.92701 66.0539 2.07573 65.9973 2.18931 65.9951C2.50533 65.9895 2.82207 66.0166 3.13828 66.0355C4.03406 66.0889 4.91976 66.0131 5.80725 65.8857C6.22062 65.826 6.54782 65.6616 6.88818 65.4334C7.36303 65.1147 7.87717 64.8433 8.40213 64.6151C8.69508 64.4877 9.04896 64.4202 9.36643 64.444C10.3008 64.5149 11.1607 64.8421 11.9447 65.3575C12.0778 65.4449 12.1913 65.5619 12.3137 65.6652C12.1506 65.6735 12.0386 65.6081 11.9179 65.5753C11.5584 65.4776 11.1995 65.3645 10.8324 65.3113C10.5281 65.2673 10.4291 65.3827 10.4135 65.6867C10.4805 65.6973 10.5496 65.7146 10.6193 65.718C11.3832 65.7546 12.0435 66.0508 12.6263 66.5293C12.96 66.8033 13.289 67.0851 13.6043 67.38C14.1852 67.923 14.8778 68.2363 15.6573 68.2947C16.2573 68.3398 16.865 68.2835 17.4693 68.2693C17.7853 68.2617 18.1013 68.2394 18.4173 68.2379C18.8334 68.2363 19.1566 68.4229 19.4234 68.7391C19.9374 69.3488 19.9015 69.9579 19.3034 70.4811C18.8457 70.8811 18.3086 71.1288 17.7112 71.2006C16.7446 71.3168 15.7691 71.3035 14.8618 70.9229C13.6242 70.4036 12.5256 69.6726 11.7536 68.5334C11.6893 68.4384 11.653 68.3187 11.5741 68.2403C11.5038 68.1707 11.3788 68.0881 11.3019 68.1076C11.1441 68.1469 11.1479 68.3023 11.204 68.4287C11.2678 68.5723 11.3482 68.7101 11.4338 68.8424C11.9213 69.5974 12.5944 70.1634 13.353 70.617C13.7383 70.8472 13.8495 71.1714 13.9146 71.5478C12.8758 72.427 9.77421 73.9243 8.82344 74.0035C8.45405 73.5254 8.10342 73.0248 7.87447 72.4473ZM9.15244 75.0801C9.9945 74.5632 10.9593 74.288 11.8342 73.8283C12.7259 73.3599 13.6006 72.8616 14.4116 72.2225C14.5885 72.341 14.7603 72.4439 14.9189 72.5642C15.6238 73.0983 16.4175 73.436 17.2874 73.5519C18.2286 73.6772 19.1766 73.809 20.1231 73.8221C21.7643 73.8448 23.4075 73.798 25.0488 73.7412C25.9106 73.7114 26.7693 73.5925 27.6301 73.525C28.147 73.4845 28.671 73.4028 29.1819 73.4486C30.9881 73.6099 32.3111 74.534 33.1373 76.1396C33.8123 77.4514 33.643 78.729 32.874 79.9499C32.6827 80.2538 32.6766 80.3169 32.9293 80.5798C33.802 81.4871 34.7479 82.3023 35.8307 82.9552C36.2866 83.2302 36.7205 83.5424 37.1577 83.8471C37.2779 83.9309 37.374 84.0495 37.4957 84.1661C37.2345 84.3718 37.0482 84.2786 36.8479 84.1816C35.9922 83.7674 35.1312 83.3641 34.2734 82.9536C33.7564 82.7063 33.2176 82.5851 32.641 82.6199C32.2962 82.6407 31.9491 82.6389 31.6036 82.6298C30.929 82.6124 30.2767 82.4705 29.7191 82.0841C29.2479 81.7577 28.8221 81.3652 28.3775 81.0002C28.222 80.8723 28.077 80.7305 27.9148 80.612C27.8001 80.528 27.6463 80.5145 27.5838 80.6605C27.5524 80.733 27.6049 80.8853 27.6703 80.9484C27.9817 81.2478 28.3125 81.5269 28.6315 81.8186C28.7107 81.8911 28.7722 81.9828 28.8625 82.0901C28.7256 82.1364 28.6333 82.1737 28.5378 82.1993C27.7415 82.4117 26.9283 82.5047 26.1082 82.5747C24.6091 82.7027 23.1074 82.7054 21.6205 82.5184C19.5612 82.2597 17.5459 81.7557 15.5372 81.2367C15.4475 81.2134 15.3635 81.1673 15.2683 81.1285C15.3058 81.0827 15.3189 81.051 15.3409 81.0429C15.4489 81.0027 15.5585 80.967 15.6687 80.9331C16.3669 80.7182 16.9987 80.3832 17.5455 79.8954C17.6311 79.8192 17.7265 79.7447 17.7847 79.6495C17.8201 79.5917 17.8242 79.4676 17.7853 79.424C17.7438 79.3775 17.6174 79.3555 17.5596 79.3849C17.4204 79.4557 17.2922 79.554 17.1727 79.6566C16.7844 79.9895 16.3406 80.2165 15.867 80.4038C14.6458 80.8869 13.3741 81.0167 12.0861 80.8848C10.6765 80.7402 9.26727 80.7301 7.85464 80.7333C7.51572 80.7341 7.17662 80.6836 6.86168 80.6589C6.90495 80.4537 6.93884 80.2946 6.97615 80.1179C7.06485 80.0975 7.16184 80.0759 7.25847 80.0526C8.05583 79.8601 8.85444 79.6722 9.65 79.4732C10.4048 79.2845 11.0644 78.907 11.6644 78.4202C11.8993 78.2295 12.1252 78.0278 12.3576 77.834C12.9234 77.362 13.4955 76.8991 14.2362 76.7215C14.2643 76.7148 14.3029 76.7134 14.317 76.6948C14.3723 76.6218 14.4199 76.543 14.4702 76.4662C14.3912 76.4159 14.3132 76.3256 14.2331 76.3236C14.0934 76.3204 13.9485 76.3588 13.8133 76.4026C13.2696 76.5789 12.8075 76.8973 12.3716 77.2566C11.9956 77.5666 11.6229 77.8812 11.2554 78.1884C10.6756 77.7316 9.41113 75.8618 9.15244 75.0801ZM37.6271 83.6352C37.8494 83.698 37.9712 83.7447 38.0974 83.7658C38.368 83.8108 38.6339 83.8445 38.8872 83.6673C38.999 83.5891 39.1582 83.5813 39.2896 83.5271C39.5905 83.4027 39.6512 83.1287 39.4075 82.9192C39.2573 82.7901 39.074 82.6913 38.8917 82.6102C38.1151 82.2651 37.3318 81.9351 36.5543 81.592C36.2646 81.4642 35.9826 81.3183 35.6994 81.1763C34.9161 80.7836 34.3459 80.1631 33.8511 79.4584C33.7449 79.3072 33.771 79.1648 33.8009 79.007C33.8572 78.7103 33.9176 78.4137 33.9525 78.1143C34.0508 77.2695 33.8711 76.4821 33.4402 75.7495C33.3389 75.5775 33.2515 75.3976 33.1647 75.2344C33.1968 75.1673 33.2067 75.121 33.2347 75.092C34.3169 73.9748 34.8074 72.5573 35.2222 71.1122C35.912 68.7084 35.3668 66.4986 34.098 64.4168C34.0831 64.3921 34.067 64.3683 34.0503 64.3449C33.9661 64.2279 33.8871 64.0822 33.711 64.1428C33.5091 64.2118 33.5358 64.3898 33.5738 64.5437C33.7687 65.3322 33.8217 66.1365 33.8482 66.9432C33.8925 68.3012 33.831 69.6504 33.4959 70.9763C33.2965 71.7663 32.9434 72.4895 32.5453 73.1937C32.4819 73.3058 32.4024 73.4106 32.3189 73.5092C31.9612 73.9308 31.8536 73.9467 31.3845 73.6714C30.3584 73.0688 29.2425 72.9561 28.0844 73.0657C27.2674 73.1429 26.4509 73.2364 25.6319 73.2797C24.2514 73.3525 22.8689 73.4354 21.4876 73.4315C20.1065 73.4275 18.7233 73.3682 17.3542 73.1306C16.3141 72.9498 15.4338 72.4708 14.6222 71.7744C14.8295 71.5269 15.0721 71.4686 15.3557 71.5294C16.167 71.7028 16.982 71.7351 17.8029 71.604C18.535 71.4872 19.1783 71.182 19.7195 70.6783C20.2556 70.1797 20.3656 69.4683 20.0193 68.8235C19.9313 68.6601 19.8204 68.5091 19.6989 68.3194C19.8119 68.2322 19.9224 68.1471 20.0328 68.0616C21.5734 66.8651 23.0673 65.6122 24.1906 63.9986C24.9222 62.9479 25.5964 61.8538 26.2438 60.7484C27.5537 58.5121 28.4956 56.1146 29.2688 53.6463C29.5358 52.7943 29.8399 51.9537 30.1413 51.1132C30.6486 49.6981 30.94 48.2281 31.2717 46.7673C31.5695 45.4551 32.0297 44.1982 32.6677 43.0107C32.9481 42.4883 33.2857 42.0064 33.7079 41.5839C34.204 41.0874 34.8015 40.784 35.4824 40.6621C35.7439 40.6153 36.0235 40.6558 36.294 40.6731C36.4322 40.6821 36.5822 40.698 36.5974 40.5325C36.6046 40.4548 36.4939 40.3075 36.4164 40.2917C36.1535 40.2381 35.8737 40.1752 35.6143 40.2125C34.4757 40.3764 33.5687 40.9425 32.8812 41.8673C32.1583 42.84 31.6847 43.937 31.3088 45.0749C31.0653 45.8117 30.8581 46.5652 30.7009 47.3251C30.3766 48.8951 29.9288 50.4262 29.3912 51.9346C29.0235 52.9657 28.6705 54.0023 28.3299 55.0427C27.5274 57.4955 26.3711 59.7785 25.0201 61.9674C24.6193 62.6168 24.2013 63.2582 23.749 63.8722C22.6358 65.3827 21.2226 66.5895 19.7519 67.7342C19.4856 67.9416 19.2408 68.0146 18.8853 67.9032C18.5399 67.795 18.1475 67.8105 17.7763 67.8173C17.0586 67.8309 16.346 67.97 15.622 67.8579C15.0361 67.767 14.5108 67.5637 14.061 67.1768C13.777 66.9326 13.4944 66.6863 13.2209 66.4307C13.1416 66.3568 13.0561 66.2536 13.041 66.1536C12.9624 65.6375 12.6379 65.3027 12.2357 65.0283C11.4868 64.5174 10.6552 64.2109 9.76736 64.0382C9.16181 63.9203 8.59719 64.0292 8.0414 64.2684C7.48273 64.5091 6.95885 64.8046 6.47265 65.172C6.33906 65.2726 6.17429 65.3624 6.01241 65.3899C5.48853 65.4786 4.95906 65.5967 4.43247 65.5931C3.17992 65.5852 1.92773 65.5221 0.676258 65.4637C0.14138 65.4386 -0.0203247 65.552 0.00202942 66.0844C0.0153694 66.398 0.0510635 66.7229 0.15202 67.0169C0.227013 67.234 0.394669 67.4422 0.57206 67.596C0.968845 67.9401 1.4527 68.1375 1.95116 68.2933C2.17038 68.3618 2.3932 68.4184 2.67857 68.4986C2.35282 68.5743 2.08403 68.623 1.82407 68.7002C1.44405 68.813 1.3294 69.0432 1.43828 69.4268C1.53797 69.7777 1.79 69.9898 2.11539 70.1012C2.45503 70.2175 2.80405 70.3156 3.15649 70.3821C3.67946 70.4811 4.21073 70.5348 4.73443 70.6304C4.89416 70.6594 5.0647 70.7331 5.18891 70.8364C5.78814 71.3356 6.3917 71.822 7.11803 72.1349C7.23143 72.1836 7.31994 72.3233 7.38736 72.4396C7.66787 72.9245 7.92873 73.421 8.21231 73.904C8.31578 74.0801 8.39546 74.2424 8.41223 74.4572C8.42953 74.6788 8.51967 74.9032 8.61702 75.108C8.98244 75.8773 9.40446 76.6144 9.92618 77.291C9.98585 77.3683 10.0306 77.4572 10.1099 77.585C9.42412 77.8628 8.76052 78.0326 8.03888 77.9322C7.72682 77.8888 7.40792 77.8935 7.09225 77.881C7.02105 77.8781 6.94785 77.8888 6.87773 77.9037C6.53971 77.9766 6.34645 78.1495 6.33834 78.3808C6.32951 78.6346 6.58099 78.9987 6.84149 79.0687C7.0059 79.113 7.18185 79.1202 7.35347 79.1312C7.82345 79.1613 8.29397 79.1848 8.77476 79.2679C8.43062 79.3528 8.08773 79.442 7.74251 79.5214C7.32193 79.618 6.89666 79.6955 6.47896 79.8035C6.27164 79.857 6.05297 79.9356 6.07803 80.2289C6.08109 80.2666 6.04918 80.3079 6.03169 80.3463C5.86728 80.7043 5.92028 80.8914 6.30157 80.9704C6.83446 81.0809 7.38015 81.1631 7.92314 81.1839C8.87283 81.2203 9.82505 81.192 10.7758 81.2094C11.1346 81.2159 11.4921 81.2962 11.8508 81.3043C12.5833 81.3209 13.3166 81.3075 14.0493 81.3147C14.2333 81.3165 14.4304 81.3124 14.5984 81.3737C16.285 81.9879 18.0539 82.2673 19.7944 82.6589C21.5913 83.063 23.4196 83.1553 25.2517 83.0794C26.5753 83.0245 27.8966 82.8914 29.1677 82.4741C29.3209 82.4238 29.4433 82.436 29.576 82.5118C30.4089 82.987 31.3178 83.1059 32.2515 83.0268C33.027 82.961 33.7308 83.1355 34.4169 83.4813C35.2657 83.9089 36.1324 84.3004 36.9844 84.7221C37.2281 84.8427 37.4398 84.8561 37.6752 84.7145C38.0441 84.4928 38.107 84.1919 37.8353 83.8629C37.7904 83.8085 37.7401 83.7585 37.6271 83.6352Z" fill="black"/>
<path fill-rule="evenodd" clip-rule="evenodd" d="M9.15244 75.0801C9.41113 75.862 10.6756 77.7316 11.2553 78.1884C11.6229 77.8812 11.9956 77.5668 12.3714 77.2566C12.8073 76.8973 13.2696 76.5789 13.8133 76.4028C13.9485 76.359 14.0934 76.3206 14.2331 76.3237C14.3132 76.3256 14.3912 76.416 14.4702 76.4663C14.4199 76.543 14.3723 76.622 14.3168 76.6948C14.3027 76.7136 14.2641 76.7149 14.2362 76.7215C13.4954 76.8993 12.9234 77.362 12.3574 77.834C12.125 78.028 11.8991 78.2297 11.6644 78.4203C11.0643 78.9072 10.4046 79.2845 9.65 79.4732C8.85444 79.6724 8.05582 79.8603 7.25846 80.0528C7.16184 80.0761 7.06485 80.0975 6.97616 80.1179C6.93884 80.2948 6.90495 80.4539 6.86168 80.6589C7.17662 80.6838 7.51572 80.7341 7.85464 80.7334C9.26727 80.7303 10.6765 80.7402 12.0859 80.8848C13.3741 81.0169 14.6458 80.8871 15.867 80.4038C16.3406 80.2165 16.7844 79.9896 17.1725 79.6568C17.292 79.554 17.4202 79.4558 17.5596 79.3851C17.6174 79.3557 17.7438 79.3777 17.7853 79.4242C17.8242 79.4678 17.8201 79.5917 17.7847 79.6497C17.7265 79.7449 17.6311 79.8192 17.5455 79.8956C16.9986 80.3835 16.3669 80.7182 15.6687 80.9333C15.5585 80.967 15.4489 81.0029 15.3409 81.0429C15.3189 81.051 15.3058 81.0829 15.2683 81.1287C15.3635 81.1675 15.4475 81.2134 15.5372 81.2367C17.5459 81.7557 19.561 82.2598 21.6205 82.5186C23.1074 82.7056 24.6089 82.7027 26.1082 82.5747C26.9283 82.5049 27.7413 82.4119 28.5376 82.1994C28.6333 82.1739 28.7256 82.1366 28.8625 82.0903C28.7722 81.9829 28.7107 81.8911 28.6315 81.8188C28.3125 81.5271 27.9815 81.2481 27.6703 80.9486C27.6047 80.8853 27.5522 80.733 27.5836 80.6605C27.6463 80.5147 27.7999 80.5282 27.9148 80.6122C28.077 80.7307 28.2218 80.8725 28.3775 81.0004C28.8219 81.3652 29.2479 81.7577 29.7191 82.0843C30.2767 82.4705 30.929 82.6124 31.6036 82.63C31.9491 82.6391 32.2962 82.6407 32.641 82.6199C33.2176 82.5853 33.7562 82.7065 34.2734 82.9538C35.131 83.3641 35.9922 83.7674 36.8479 84.1817C37.0482 84.2787 37.2343 84.372 37.4957 84.1662C37.374 84.0497 37.2779 83.9311 37.1577 83.8473C36.7205 83.5424 36.2866 83.2304 35.8305 82.9554C34.7477 82.3025 33.8018 81.4871 32.9293 80.58C32.6766 80.3171 32.6825 80.2538 32.874 79.9501C33.643 78.7291 33.8123 77.4515 33.1373 76.1398C32.3111 74.5342 30.9881 73.6102 29.1817 73.4486C28.671 73.4028 28.1468 73.4845 27.6301 73.5251C26.7693 73.5925 25.9106 73.7115 25.0487 73.7412C23.4075 73.7982 21.7643 73.8449 20.1229 73.8222C19.1765 73.809 18.2286 73.6774 17.2874 73.5519C16.4175 73.4362 15.6236 73.0985 14.9187 72.5644C14.7601 72.4441 14.5883 72.3412 14.4116 72.2226C13.6005 72.8616 12.7257 73.3601 11.8342 73.8285C10.9592 74.288 9.9945 74.5634 9.15244 75.0801Z" fill="white"/>
<path fill-rule="evenodd" clip-rule="evenodd" d="M7.67114 66.8071C7.84024 66.729 7.9457 66.6373 8.04755 66.6411C8.44236 66.656 8.8103 66.7804 9.13966 67.0029C9.19681 67.0415 9.259 67.1017 9.27613 67.1637C9.2965 67.2372 9.2992 67.3477 9.25702 67.3975C9.21484 67.4471 9.07638 67.4838 9.03348 67.4527C8.70808 67.2165 8.33149 67.1314 7.95345 67.0373C7.87287 67.0175 7.81049 66.9241 7.67114 66.8071ZM7.87467 72.4475C8.10344 73.025 8.45426 73.5258 8.82364 74.0037C9.77441 73.9245 12.8759 72.4272 13.9148 71.548C13.8495 71.1716 13.7383 70.8474 13.3532 70.6172C12.5946 70.1636 11.9213 69.5976 11.4338 68.8426C11.3482 68.7103 11.2678 68.5725 11.2042 68.4289C11.1479 68.3025 11.1443 68.1473 11.3021 68.1078C11.3789 68.0883 11.504 68.1709 11.5741 68.2405C11.6532 68.3189 11.6893 68.4386 11.7537 68.5336C12.5258 69.6727 13.6242 70.4038 14.862 70.9231C15.7693 71.3037 16.7446 71.317 17.7112 71.2008C18.3088 71.129 18.8457 70.8813 19.3034 70.4813C19.9017 69.9581 19.9376 69.3492 19.4235 68.7393C19.1568 68.4231 18.8336 68.2365 18.4173 68.2381C18.1013 68.2396 17.7853 68.2619 17.4695 68.2695C16.8652 68.2837 16.2575 68.34 15.6575 68.2949C14.878 68.2365 14.1854 67.9232 13.6044 67.3802C13.2891 67.0853 12.9602 66.8035 12.6264 66.5295C12.0437 66.051 11.3834 65.7548 10.6194 65.7182C10.5498 65.7148 10.4807 65.6975 10.4137 65.6869C10.4293 65.3831 10.5283 65.2675 10.8324 65.3115C11.1995 65.3647 11.5584 65.4777 11.9181 65.5755C12.0388 65.6084 12.1508 65.6737 12.3139 65.6654C12.1914 65.5621 12.0778 65.4451 11.9447 65.3577C11.1607 64.8425 10.301 64.5151 9.36645 64.4444C9.04916 64.4204 8.69528 64.4879 8.40234 64.6153C7.87737 64.8435 7.36323 65.1148 6.8882 65.4336C6.54802 65.6618 6.22064 65.8264 5.80727 65.8859C4.91978 66.0133 4.03409 66.0891 3.1383 66.0357C2.82228 66.0168 2.50553 65.9897 2.18951 65.9953C2.07594 65.9975 1.92721 66.0541 1.85744 66.1383C1.55007 66.5082 1.17096 66.6439 0.703861 66.5662C0.651041 66.5574 0.594254 66.5706 0.537468 66.5736C0.502132 66.8992 0.637878 67.1384 0.885757 67.281C1.27028 67.5022 1.66076 67.7352 2.07864 67.8723C3.06835 68.1977 4.09718 68.3385 5.13917 68.3533C5.71768 68.3614 6.29239 68.3201 6.81177 68.0175C6.92047 67.954 7.05568 67.9259 7.09949 68.0685C7.12617 68.1545 7.08452 68.3041 7.01836 68.3658C6.91759 68.4591 6.77409 68.5165 6.6396 68.561C6.40885 68.6372 6.17071 68.6921 5.8747 68.7723C5.95564 68.9004 6.00648 69.012 6.08436 69.0995C6.66646 69.7501 7.32645 70.2938 8.13733 70.6482C8.46363 70.7908 8.78668 70.9673 9.06575 71.1865C9.52761 71.5492 9.43189 72.1416 8.87376 72.3351C8.58856 72.434 8.26028 72.4088 7.87467 72.4475Z" fill="white"/>
<path fill-rule="evenodd" clip-rule="evenodd" d="M34.2117 65.6595C34.2252 65.8274 34.2369 65.9622 34.2466 66.0973C34.3759 67.8598 34.335 69.6108 33.8515 71.3256C33.6274 72.1206 33.2737 72.8632 32.8198 73.5522C32.6642 73.7887 32.4484 73.9856 32.2369 74.2269C32.4275 74.4307 32.6177 74.634 32.8506 74.883C33.0983 74.5826 33.3339 74.3627 33.4902 74.0966C34.3836 72.5751 35.0023 70.9613 35.071 69.1724C35.1172 67.9627 34.7889 66.8371 34.313 65.7437C34.3034 65.7216 34.2722 65.7086 34.2117 65.6595Z" fill="white"/>
<path fill-rule="evenodd" clip-rule="evenodd" d="M33.5312 79.7629C33.4177 79.9491 33.3373 80.0814 33.2569 80.2135C34.5907 81.9036 36.3616 82.832 38.355 83.3873C38.4738 83.222 38.5643 83.0961 38.6561 82.9685C38.1344 82.7453 37.5395 82.4933 36.9471 82.2359C36.5775 82.0751 36.2092 81.911 35.8449 81.739C34.9962 81.3388 34.2691 80.7893 33.7378 80.0023C33.6908 79.9327 33.6279 79.8739 33.5312 79.7629Z" fill="white"/>
<path fill-rule="evenodd" clip-rule="evenodd" d="M4.55308 68.9871C4.67693 69.4062 4.80781 69.836 5.11969 70.1585C5.76183 70.823 6.45625 71.4334 7.34122 71.759C7.66085 71.8767 8.00572 71.9333 8.34355 71.9914C8.46163 72.0116 8.60549 71.9784 8.71582 71.9251C8.93053 71.8212 8.96262 71.6244 8.76954 71.4832C8.52833 71.3065 8.26279 71.1533 7.98877 71.034C7.12723 70.6588 6.41064 70.0922 5.78274 69.4071C5.60301 69.211 5.46113 68.9806 5.24137 68.787C5.24516 68.846 5.2311 68.9137 5.25544 68.9626C5.69747 69.8542 6.3324 70.5524 7.26623 70.9463C7.30607 70.9631 7.34825 70.9737 7.38773 70.9907C7.53303 71.0536 7.72467 71.1131 7.63759 71.317C7.55737 71.5052 7.36267 71.4446 7.21899 71.3922C6.58334 71.1605 6.04342 70.779 5.62338 70.2526C5.34702 69.9061 5.12131 69.5195 4.87019 69.1528C4.81196 69.0677 4.74201 68.9905 4.67747 68.9096C4.63601 68.9355 4.59437 68.9613 4.55308 68.9871Z" fill="white"/>
<path fill-rule="evenodd" clip-rule="evenodd" d="M1.87394 69.1309C1.88151 69.5055 2.08 69.6679 2.33977 69.7375C2.83823 69.8707 3.34354 69.9784 3.84868 70.0847C4.05545 70.1284 4.26872 70.1412 4.53516 70.1754C4.36769 69.7649 4.22311 69.3981 4.06519 69.0372C4.04193 68.9845 3.95576 68.9283 3.89699 68.9263C3.2233 68.9055 2.55196 68.9164 1.87394 69.1309Z" fill="white"/>
<path fill-rule="evenodd" clip-rule="evenodd" d="M6.87105 78.344C6.93325 78.6333 7.09369 78.7083 7.27108 78.7121C8.35995 78.7346 9.45422 78.8477 10.5278 78.5547C10.6067 78.5333 10.6786 78.4869 10.7536 78.4525C10.5198 77.9798 10.473 77.9548 10.0342 78.103C9.33235 78.3402 8.62603 78.4787 7.87645 78.3528C7.56043 78.2996 7.22818 78.344 6.87105 78.344Z" fill="white"/>
<path fill-rule="evenodd" clip-rule="evenodd" d="M7.67108 66.8069C7.81043 66.9239 7.8728 67.0173 7.95339 67.0371C8.33142 67.1312 8.70802 67.2163 9.03342 67.4525C9.07632 67.4837 9.21477 67.4469 9.25696 67.3973C9.29914 67.3476 9.29644 67.237 9.27607 67.1635C9.25894 67.1015 9.19675 67.0413 9.1396 67.0027C8.81024 66.7802 8.44229 66.6558 8.04749 66.6409C7.94564 66.6371 7.84018 66.7289 7.67108 66.8069Z" fill="black"/>
</svg>
